<?xml version="1.0" encoding="utf-8"?>
<!-- Generator: Adobe Illustrator 23.0.1, SVG Export Plug-In . SVG Version: 6.00 Build 0)  -->
<svg version="1.1" id="a02f2390-8fa7-48a9-96f1-2ec5f63ecbc1"
	 xmlns="http://www.w3.org/2000/svg" xmlns:xlink="http://www.w3.org/1999/xlink" x="0px" y="0px" viewBox="0 0 1150 627.5"
	 style="enable-background:new 0 0 1150 627.5;" xml:space="preserve">
<style type="text/css">
	.st0{opacity:0.1;fill:#007BFF;enable-background:new    ;}
	.st1{fill:#454B69;}
	.st2{fill:none;}
	.st3{opacity:0.4;enable-background:new    ;}
	.st4{opacity:0.1;enable-background:new    ;}
	.st5{fill:#EFB7B9;}
	.st6{fill:#FFFFFF;}
	.st7{fill:#FF0000;}
	.st8{opacity:0.1;}
	.st9{opacity:8.000000e-02;enable-background:new    ;}
	.st10{fill:#3F3D56;}
	.st11{fill:#FF6584;}
	.st12{fill:#9C9CA1;}
	.st13{fill:#939498;}
	.st14{fill-rule:evenodd;clip-rule:evenodd;fill:#FCBC54;}
	.st15{fill-rule:evenodd;clip-rule:evenodd;fill:#040404;}
	.st16{fill-rule:evenodd;clip-rule:evenodd;fill:#FC5649;}
	.st17{fill-rule:evenodd;clip-rule:evenodd;fill:#04E4FC;}
	.st18{fill-rule:evenodd;clip-rule:evenodd;fill:#BCD8A8;}
</style>
<title>teacher</title>
<path class="st0" d="M1137.8,582.2c-4.5,11-10,21.6-16.4,31.6c-3,4.8-6.3,9.3-9.9,13.7c0,0-0.1,0.1-0.1,0.1H0l0.1-0.1
	c1-0.8,6.9-5.5,16-13.7c6.5-5.8,14.8-13.4,24-22.5c75.5-74.2,220.5-250,99.7-411C27.6,30.5,148.5,3.4,228.2,0.2
	C258.9-1,289.4,4,318.1,14.9c36.8,14,104.2,35.5,191.9,45.3c2.9,0.3,5.8,0.6,8.7,0.9c46.4,4.7,93.2,5.6,139.8,2.5l0,0
	c1.4-0.1,2.8-0.2,4.1-0.3c46.1-3.2,91.8-10.3,136.7-21.1c2.9-0.7,5.8-1.4,8.6-2.1c149.6-34.6,287.6,83.4,253.1,216.7
	c-12.8,49.3-9.5,101.9,33,144.4C1163.7,470.7,1155.2,539.1,1137.8,582.2z"/>
<path class="st1" d="M1137.8,582.2c-4.5,11-10,21.6-16.4,31.6c-3,4.8-6.3,9.3-9.9,13.7H0.1c1-0.8,6.9-5.5,16-13.7
	c6.5-5.8,14.8-13.4,24-22.5L157.3,567c1.5-0.3,3.1-0.5,4.6-0.5l124.9-0.2h0.1l61.9-0.1h0.1l52.2-0.1h34.2l0,0h35l143.4-0.2h0.2H625
	h19.5h24.4h6.5l24.6-0.3h8.1l71.6-0.1h22.9l0,0h11l0,0l82.8-0.1h24.6l78.4-0.1l66.2-0.1c1.8,0,3.7,0.2,5.5,0.7L1137.8,582.2z"/>
<path class="st2" d="M16.2,613.7h1105.2c-3,4.8-6.3,9.3-9.9,13.7H0.1C1.1,626.6,7,621.8,16.2,613.7z"/>
<path class="st3" d="M16.2,613.7h1105.2c-3,4.8-6.3,9.3-9.9,13.7H0.1C1.1,626.6,7,621.8,16.2,613.7z"/>
<path class="st1" d="M733.2,302.7l-2.2,0.4l-100.4,19.3c-29.2,5.6-58.7,11.2-88.3,9.1c-21.5-1.6-41.5-7.9-62.1-13.5
	c-11.6-3.2-24-4.4-28-17.5c-5.5-18,3.4-44.6,5.5-62.9c2-17.9,3.2-36.2-0.4-53.9c-0.8-4-1.8-7.9-3.1-11.7
	c-3.6-10.6-9.2-21.6-6.1-32.4c2.4-8.5,9.7-14.6,16.5-20.3c13.4-11,27-23.3,32.3-39.8c2.6-8,3.1-16.6,5.9-24.6
	c5.3-15.1,18.7-26.4,33.5-32.4s31.2-7.2,47.2-7.2c14.1,0,28.3,0.9,42.3,2.8c15.3,2,30.7,5.3,44.1,12.9s24.8,20,27.9,35.1
	c4.4,21.4-7.9,44.2-1.3,65c3.3,10.5,11,19,16.3,28.6c8.8,16.3,10.6,35.4,5,53c-6.4,19.8-22,39.8-14,58.9
	c5.1,12.2,18.1,18.7,27.2,28.4C731.8,301,732.5,301.9,733.2,302.7z"/>
<path class="st4" d="M731,300.2v3l-100.4,19.3c-29.2,5.6-58.7,11.2-88.3,9.1c-21.5-1.6-41.5-7.9-62.1-13.5c-11.6-3.2-24-4.4-28-17.5
	c-5.5-18,3.4-44.6,5.5-62.9c2-17.9,32.8-83.2,29.2-100.9l184,8c1.2,9.8,49.9,58.8,46.8,68.2c-6.4,19.8-22,39.8-14,58.9
	C708.9,284,721.9,290.6,731,300.2z"/>
<path class="st5" d="M543,250.7c1.1,6.2,1.7,13-1.5,18.4c-4.2,7.2-13.4,9.5-21.6,11.2l-28.5,5.7c-1.9,0.4-4,0.8-5.5,2.2
	c-1.7,1.5-2.3,4-2.5,6.2c-1.1,10.3,2.5,20.5,5.8,30.3c6.7,19.9,12.4,40.2,20.9,59.4c8.5,19.2,20.2,37.5,36.9,50.4
	s38.7,19.7,59.1,14.7c17.8-4.4,32.4-16.9,44.9-30.2c10.4-11,20.1-23,25.1-37.3c3.5-9.8,4.6-20.2,5.7-30.6
	c1.7-15.9,3.4-31.7,5.1-47.6c0.8-7.4,1.3-15.8-3.5-21.5c-2.1-2.5-5-4.2-7.9-5.7c-10.9-5.8-22.5-10.6-32.6-17.6s-19.2-16.6-22.3-28.6
	c-1.8-7.2-1.5-15-4.7-21.7c-3.5-7.5-11-12.6-19-14.8s-16.4-1.9-24.7-1s-40,3.3-43.4,12.6c-1.8,5,5.8,15.7,7.6,20.6
	C539.3,234,541.5,242.3,543,250.7z"/>
<path class="st4" d="M543,250.7c1.1,6.2,1.7,13-1.5,18.4c-4.2,7.2-13.4,9.5-21.6,11.2l-28.5,5.7c-1.9,0.4-4,0.8-5.5,2.2
	c-1.7,1.5-2.3,4-2.5,6.2c-1.1,10.3,2.5,20.5,5.8,30.3c6.7,19.9,12.4,40.2,20.9,59.4c8.5,19.2,20.2,37.5,36.9,50.4
	s38.7,19.7,59.1,14.7c17.8-4.4,32.4-16.9,44.9-30.2c10.4-11,20.1-23,25.1-37.3c3.5-9.8,4.6-20.2,5.7-30.6
	c1.7-15.9,3.4-31.7,5.1-47.6c0.8-7.4,1.3-15.8-3.5-21.5c-2.1-2.5-5-4.2-7.9-5.7c-10.9-5.8-22.5-10.6-32.6-17.6s-19.2-16.6-22.3-28.6
	c-1.8-7.2-1.5-15-4.7-21.7c-3.5-7.5-11-12.6-19-14.8s-16.4-1.9-24.7-1s-40,3.3-43.4,12.6c-1.8,5,5.8,15.7,7.6,20.6
	C539.3,234,541.5,242.3,543,250.7z"/>
<path class="st6" d="M611.6,359.5l16.7-35.4c7.8-16.6,15.8-34,15-52.3c-0.2-3.6-0.2-8.2,3-9.8c1.4-0.6,2.9-0.8,4.4-0.6
	c17.6,0.9,35,4.4,51.5,10.4c3.2,1.2,6.5,2.5,8.8,5.1s3.2,6,3.9,9.3c2.6,11.2,4.5,22.5,5.7,33.9c3,28.2,1.5,56.7,0,85l-4.4,86.4
	c0,1.2-0.2,2.4-0.7,3.6c-1.1,2-3.6,2.7-5.8,3c-8.6,1.5-17.4,1.2-26.1,0.8c-61.2-2.3-122.7-5.9-183.5,1.5c0.3-9,0.1-18-0.4-27
	c-2.4-38.9-12.5-76.8-22.4-114.5c-5.8-22-11.4-46-2.1-66.7c1.4-3.3,3.3-6.3,5.8-8.8c4-3.9,9.3-5.9,14.7-7.4
	c9.2-2.5,18.8-3.6,28.3-3.2l63,137.3c2.9,6.3,5.2,12.9,8.1,19.1c2.6-10.7-0.5-23.3,2.6-34.9C601,382.3,606.3,370.7,611.6,359.5z"/>
<path class="st7" d="M605,453.9c11.3,0.7,22.2-5.1,30-13.2s12.9-18.5,17.2-29c6.2-14.9,11.2-30.3,14.8-46.1
	c3-13.4,5.1-27.3,3.1-40.9c-2.9-18.8-13.5-35.8-15.3-54.7c-0.3-3.3-0.1-7.2,2.5-9.1c1.6-1.2,3.8-1.4,5.8-1.5
	c18.9-1.1,39.6-0.9,54.2,11.1c4.5,3.6,8.1,8.2,12.4,11.9c10.4,9,25,13.6,31.7,25.5c2.3,4.2,3.4,8.9,5,13.4
	c3.8,10.6,10.4,19.9,17,29.1c-6.4,26.9-13.7,53.8-20.1,80.7c-3.7,15.8-7.5,31.6-13.3,46.7c-3.8,9.9-8.7,20-7.5,30.6
	c0.5,4.2,1.9,8.2,3.1,12.2c4.2,14.1,6.2,28.8,5.9,43.5l-285.3,0.7c13.7-19.6,17.7-43.6,16.3-67.5c-0.7-11.4-3.2-22.9-9-32.8
	c-9.1-15.5-25-25.6-40.7-34.2c-11-6-22.8,27.8-34.7,23.9c1.9-13.6,2.8-66,2-79.7c-0.3-4.5-0.7-9.1,0.7-13.4c0.9-2.9,2.7-5.5,3.8-8.4
	c4.7-11.4,0.2-26,7.8-35.7c5.2-6.8,14.4-8.7,21.9-12.8c7.7-4.3,13.6-11,20.3-16.7c13.1-11.1,29.1-18.3,46.2-20.6
	c5,7.8,8,16.8,8.8,26c0.5,5.8,0.1,11.7,1,17.5c1.1,7.8,4.3,15.2,7.6,22.4c13.4,30.2,26.8,60.5,43.7,88.8c4.8,8,10,16,16.9,22.2
	S595.7,454.4,605,453.9z"/>
<path class="st4" d="M605,453.9c11.3,0.7,22.2-5.1,30-13.2s12.9-18.5,17.2-29c6.2-14.9,11.2-30.3,14.8-46.1
	c3-13.4,5.1-27.3,3.1-40.9c-2.9-18.8-13.5-35.8-15.3-54.7c-0.3-3.3-0.1-7.2,2.5-9.1c1.6-1.2,3.8-1.4,5.8-1.5
	c18.9-1.1,39.6-0.9,54.2,11.1c4.5,3.6,8.1,8.2,12.4,11.9c10.4,9,25,13.6,31.7,25.5c2.3,4.2,3.4,8.9,5,13.4
	c3.8,10.6,10.4,19.9,17,29.1c-6.4,26.9-13.7,53.8-20.1,80.7c-3.7,15.8-7.5,31.6-13.3,46.7c-3.8,9.9-8.7,20-7.5,30.6
	c0.5,4.2,1.9,8.2,3.1,12.2c4.2,14.1,6.2,28.8,5.9,43.5l-285.3,0.7c13.7-19.6,17.7-43.6,16.3-67.5c-0.7-11.4-3.2-22.9-9-32.8
	c-9.1-15.5-25-25.6-40.7-34.2c-11-6-22.8,27.8-34.7,23.9c1.9-13.6,2.8-66,2-79.7c-0.3-4.5-0.7-9.1,0.7-13.4c0.9-2.9,2.7-5.5,3.8-8.4
	c4.7-11.4,0.2-26,7.8-35.7c5.2-6.8,14.4-8.7,21.9-12.8c7.7-4.3,13.6-11,20.3-16.7c13.1-11.1,29.1-18.3,46.2-20.6
	c5,7.8,8,16.8,8.8,26c0.5,5.8,0.1,11.7,1,17.5c1.1,7.8,4.3,15.2,7.6,22.4c13.4,30.2,26.8,60.5,43.7,88.8c4.8,8,10,16,16.9,22.2
	S595.7,454.4,605,453.9z"/>
<circle class="st5" cx="589.9" cy="162.7" r="85.7"/>
<path class="st1" d="M544.9,277c2.3-22.2-6.9-43.9-17.3-63.6c-5-9.4-10.4-18.8-12.9-29.2s-1.8-22.1,4.6-30.6
	c5.5-7.2,14.1-11.1,22.1-15.4c22.6-12,43.3-29.6,53.2-53.2c-5.6,3.1-4.2,12.2,0.8,16.2s11.7,4.8,17.8,6.7
	c22.2,7,35.6,29.2,46.3,49.9c1.8,3.4,3.5,7,3.5,10.8s-1.8,7.2-3.6,10.4c-5.3,9.4-11.7,18.4-14.1,28.9c-2.8,12,0.2,24.6,3.9,36.4
	c4,12.5,9.3,25.1,18.9,34.1s24.5,13.4,36.3,7.6c-11.8-20.3-24-42.9-19.4-65.9c2.2-11,8.2-21,10.7-31.9c4.8-20.9-3.2-42.3-11.1-62.3
	l-23.6-59.4c-3.6-9.1-7.7-18.8-16-23.9c-5.6-3.5-12.4-4.4-18.9-5c-21.1-1.9-43-1.3-62.7,6.6c-35.8,14.3-58.3,49.6-76.1,83.8
	c-5.3,10.2-10.6,21.1-10.4,32.7c0.1,6.3,1.9,12.5,3.3,18.7c5.9,25.2,6.2,51.2,6.5,77.1c0.2,19.8-0.8,38.5-9.5,56.5
	c11.9,2.4,29.1,8.7,40.9,4.1C533.6,311.1,543,292.4,544.9,277z"/>
<g class="st8">
	<path d="M486.8,256.1c0-2.8,0-5.7,0-8.5c-0.3-25.8-0.6-51.9-6.5-77.1c-1.3-4.9-2.3-9.9-3.1-14.9c-0.2,1.7-0.3,3.5-0.3,5.2
		c0.1,6.3,1.9,12.5,3.3,18.7C486.1,204.5,486.5,230.4,486.8,256.1z"/>
	<path d="M695.9,188.3c1.3-5.8,1.8-11.8,1.3-17.8c-0.2,3-0.6,5.9-1.3,8.8c-2.5,11-8.5,20.9-10.7,31.9c-1,4.9-1.2,9.8-0.8,14.8
		c0.2-1.9,0.4-3.9,0.8-5.8C687.4,209.2,693.3,199.3,695.9,188.3z"/>
	<path d="M662.4,164c0.5-1.4,0.8-2.9,0.8-4.4c0-3.8-1.8-7.4-3.5-10.8c-10.7-20.7-24-42.9-46.3-49.9c-6.1-1.9-12.8-2.7-17.8-6.7
		c-2.6-2.2-4.2-5.4-4.4-8.8c-10.8,19.9-29.5,35.1-49.6,45.8c-8,4.2-16.7,8.2-22.1,15.4c-5.1,6.8-6.6,15.6-5.7,24.2
		c0.5-5.5,2.5-10.7,5.7-15.2c5.5-7.2,14.1-11.1,22.1-15.4c20.2-10.7,38.8-25.9,49.6-45.8c0.2,3.4,1.8,6.6,4.4,8.8
		c5,4,11.7,4.8,17.8,6.7c22.2,7,35.6,29.2,46.3,49.9C660.7,159.8,661.6,161.9,662.4,164z"/>
	<path d="M668.2,269.5c-9.6-9-14.9-21.6-18.9-34.1c-2.4-7-4-14.3-4.8-21.7c-0.9,10.3,1.6,20.8,4.8,30.7c4,12.5,9.3,25.1,18.9,34.1
		s24.5,13.4,36.3,7.6c-1.4-2.4-2.8-4.9-4.2-7.4C689.3,281.8,676.8,277.4,668.2,269.5z"/>
	<path d="M544.9,268c-1.9,15.4-11.4,34.1-26.7,40.2c-10.7,4.2-25.9-0.6-37.5-3.3c-1,2.8-2.1,5.6-3.4,8.2c11.9,2.4,29.1,8.7,40.9,4.1
		c15.4-6.1,24.8-24.8,26.7-40.2c0.4-3.9,0.5-7.7,0.2-11.6C545.1,266.2,545,267.1,544.9,268z"/>
</g>
<path class="st6" d="M666.1,515.9c-15.5-2.5-31.1-7.2-46.5-4c-8.9,1.8-17,6.3-24.4,11.6c4.1,3.2,8.8,6.2,11.4,10.7
	c1.6,3.1,2.8,6.4,3.6,9.9c1.6,6,3.2,12.1,3.5,18.4s-1,12.7-4.7,17.8c19.5,1.9,38.4-2.9,57.4-7.6c2.2-0.4,4.2-1.2,6.1-2.5
	c3-2.4,3.9-6.6,3.9-10.4c0-6.8-1.9-13.5-3.9-20.1C670.2,531.8,668.4,523.7,666.1,515.9z"/>
<path class="st7" d="M770.4,347.2c7.7,1,13.6,7.2,18,13.5c12.3,17.7,17.6,39.2,23.5,59.9c7.3,25.8,16,51.2,25.9,76.1
	c2.1,5.8,4.7,11.4,7.8,16.7c2.5,4.1,5.5,8.1,6.6,12.8c2.6,11.3-6.7,22-16.5,28.3c-5.2,3.5-10.9,6.2-16.8,8.1
	c-5.8,1.7-11.9,2.4-17.9,3.1l-55.5,6c-25.5,2.8-51.3,5.6-76.9,2.9c-1.6-5.6,1.5-9.6,1.3-15.4c-0.2-4.2-2-8-3.6-11.9
	c-3-6.8-5-14.1-5.9-21.5c-0.3-2.7-0.4-5.5-1.4-8.1s-3.3-4.8-6-5c15-1.5,26.4-4.3,41.4-5.8c5.6-0.6,11.4-1.2,16.1-4.2
	c5.9-3.7,9.2-10.3,11.8-16.7c6.5-15.9,10.7-33.4,7.3-50.3c-2.8-13.8-10.6-26.7-10.6-40.8c0-8.4,2.9-16.5,6.2-24.2
	c3.6-8.1,8.2-16.4,16.1-20.5S761.5,346,770.4,347.2z"/>
<path class="st9" d="M770.4,347.2c7.7,1,13.6,7.2,18,13.5c12.3,17.7,17.6,39.2,23.5,59.9c7.3,25.8,16,51.2,25.9,76.1
	c2.1,5.8,4.7,11.4,7.8,16.7c2.5,4.1,5.5,8.1,6.6,12.8c2.6,11.3-6.7,22-16.5,28.3c-5.2,3.5-10.9,6.2-16.8,8.1
	c-5.8,1.7-11.9,2.4-17.9,3.1l-55.5,6c-25.5,2.8-51.3,5.6-76.9,2.9c-1.6-5.6,1.5-9.6,1.3-15.4c-0.2-4.2-2-8-3.6-11.9
	c-3-6.8-5-14.1-5.9-21.5c-0.3-2.7-0.4-5.5-1.4-8.1s-3.3-4.8-6-5c15-1.5,26.4-4.3,41.4-5.8c5.6-0.6,11.4-1.2,16.1-4.2
	c5.9-3.7,9.2-10.3,11.8-16.7c6.5-15.9,10.7-33.4,7.3-50.3c-2.8-13.8-10.6-26.7-10.6-40.8c0-8.4,2.9-16.5,6.2-24.2
	c3.6-8.1,8.2-16.4,16.1-20.5S761.5,346,770.4,347.2z"/>
<path class="st5" d="M422.8,334.3c3.6-8.6,7.3-17.5,7.4-26.9c0.1-10.1-4-19.7-7.1-29.3c-3.9-11.7-6.5-23.9-7.7-36.2
	c-0.3-1.2-0.1-2.4,0.5-3.5c0.8-1.2,2.4-1.4,3.8-1.7c6.9-1.6,12.1-7.2,16.5-12.8c6.7-8.7,12.4-18.1,16.9-28.2
	c3.3-7.4,7.8-16.4,15.9-16.4c-3.3,15.3-7.3,30.4-12.1,45.2c8.5-2.2,16.5-5.3,24.9-7.5c1.7-0.5,3.4-0.8,5.1-0.7
	c5.1,0.5,8.2,7.4,5.2,11.5c4.1,4.8,11,6.1,16.4,9.5s9.3,11.5,4.5,15.7c-0.9,0.8-2.1,1.4-2.8,2.4c-2.3,3.6,3.4,7.7,2.9,11.9
	c-0.4,3.5-4.8,5.1-8.2,4.2s-6-3.4-9-5.3s-6.9-3-9.8-1.1c-0.8,9.4-1.6,19-5.7,27.6c-1.5,3.1-3.4,6.1-4.6,9.3
	c-1.1,3.5-1.9,7.2-2.1,10.9l-3.6,33.2C452.7,349.7,437.1,344.5,422.8,334.3z"/>
<path class="st6" d="M418.6,364l-3.2-21.6c-0.3-1.8-0.5-3.5-0.5-5.3c0-5,2.2-9.8,4.3-14.3c17.6,8.2,36.7,11.2,56.2,11.2
	c2.6,0,5.5-0.2,7.1-2.2c3.3,3.8,3.4,9.9,2,14.8s-4.1,9.2-5.9,13.9c-0.9,2.4-1.6,5-3.4,6.8c-2.7,2.9-7.1,3.4-11.1,3.4
	c-4.2,0-8.4-0.4-12.5-1.2C441,367.5,429.2,362.1,418.6,364z"/>
<path class="st7" d="M484.4,363.1c-13.7-1.6-27.3-3.8-40.8-6.6c-6.6-1.4-13.3-2.9-20.1-2.7c-4.4,0.2-9.1,1.1-13-1.1
	c3.8,12.8,4,26.3-0.5,38.9c-2.7,7.5-6.7,14.5-8.7,22.2c-4.1,16.2,1.5,33.8-3.6,49.6c-0.5,2.1-1.6,4-3.1,5.5
	c-1.6,1.4-3.7,2.2-5.1,3.7c-2.1,2.3-2.2,5.7-2.3,8.8l-0.1,27.5c-0.1,17.5,0.2,36.1,9.4,51c10.6,17,32.8,25.8,52.1,20.6
	c5.1-1.3,10-3.7,14.2-6.9c6.7-5.3,11-13.1,15.2-20.6c5-9,10-18.2,11.6-28.3c1.1-7.2,0.5-14.5-0.3-21.7c-4.5-40-14.3-79.7-12.2-119.8
	C477.5,376.1,480,369,484.4,363.1z"/>
<path class="st5" d="M541.7,529.1c-7,0.4-14,0.8-20.9,0c-5-0.6-9.9-1.8-14.8-2.7c-27.4-4.4-55.4,3.3-76.6,21.3
	c-3.8,3.3-7.7,8.3-5.6,12.9c2.3,4.9,9.2,4.8,14.6,3.9c-5.8,2.8-10.9,6.8-15,11.7c-1.5,1.8-2.9,4-2.6,6.4c0.6,5,7.3,5.8,12.3,5.4
	c-1.6,1.7-0.5,4.8,1.5,6s4.6,0.9,7,0.5c5.2-0.9,10.1-2.7,14.8-5.1c-0.9,2.5,0.7,5.3,3,6.5s5.1,1.1,7.7,0.7
	c12.2-2,22.4-10.5,34.3-13.8c19.1-5.3,39,3.2,58.8,3.8c6.2,0.2,12.6-0.4,18.2-3c6.9-3.2,12.5-9.1,19.8-11.2
	c8.1-2.3,17.5,0.3,24.9-3.7c5.4-2.9,0.5-25.3-0.8-29.7c-2.5-7.9-5.1-13.1-13.5-13.9C587.4,523.1,563.2,527.9,541.7,529.1z"/>
<path class="st6" d="M594.9,523c0,0,32.3,27.3,13.7,57.2l36-12.4v-26.1c0-1.2-13.7-19.9-13.7-19.9l-16.2-2.5L594.9,523z"/>
<path class="st10" d="M256.8,521.3h12.1c13.8,0,25,11.2,25,25v37.1l0,0h-62.1l0,0v-37.1C231.8,532.5,243,521.3,256.8,521.3
	C256.8,521.3,256.8,521.3,256.8,521.3z"/>
<path class="st4" d="M256.8,521.3h12.1c13.8,0,25,11.2,25,25v37.1l0,0h-62.1l0,0v-37.1C231.8,532.5,243,521.3,256.8,521.3
	C256.8,521.3,256.8,521.3,256.8,521.3z"/>
<circle class="st10" cx="260.4" cy="530" r="5"/>
<circle class="st10" cx="260.4" cy="523.8" r="5"/>
<circle class="st10" cx="260.4" cy="517.6" r="5"/>
<circle class="st10" cx="260.4" cy="511.4" r="5"/>
<circle class="st10" cx="260.4" cy="505.2" r="5"/>
<circle class="st10" cx="260.4" cy="499" r="5"/>
<circle class="st10" cx="260.4" cy="492.7" r="5"/>
<circle class="st10" cx="267.8" cy="495.2" r="5"/>
<circle class="st10" cx="272.8" cy="492.7" r="5"/>
<circle class="st10" cx="277.8" cy="490.3" r="5"/>
<circle class="st10" cx="260.4" cy="486.5" r="5"/>
<circle class="st10" cx="260.4" cy="480.3" r="5"/>
<circle class="st10" cx="260.4" cy="474.1" r="5"/>
<circle class="st10" cx="260.4" cy="467.9" r="5"/>
<path class="st7" d="M281,451.9c-1.2,0.2-2.5,0.3-3.7,0.4c1.2-1,2.2-2.1,3.2-3.3c-0.7-2.1-1.7-4.1-3-5.8c-1.2,0.7-2.6,1.1-4,1.3
	c-1.2,0.2-2.5,0.3-3.7,0.4c1.6-1.3,3.1-3.3,4.8-5c-8.6-7.8-22-7.2-29.8,1.5c-7.8,8.6-7.2,22,1.5,29.8c8.6,7.8,22,7.2,29.8-1.5
	c3.5-3.9,5.5-8.9,5.5-14.2c0-1.2-0.1-2.4-0.3-3.6L281,451.9z"/>
<path class="st11" d="M297.6,476.6c-1.3,0.8-2.7,1.3-4.2,1.4c-1.2,0.2-2.5,0.3-3.7,0.4c1.3-1.2,2.5-2.5,3.7-3.8
	c-6.6-1.7-13.4,2.3-15.2,8.9c-1.7,6.6,2.3,13.4,8.9,15.2c6.6,1.7,13.4-2.3,15.2-8.9C303.5,484.8,301.7,479.5,297.6,476.6
	L297.6,476.6z"/>
<circle class="st10" cx="252.9" cy="495.2" r="5"/>
<circle class="st10" cx="247.9" cy="492.7" r="5"/>
<circle class="st10" cx="243" cy="490.3" r="5"/>
<path class="st11" d="M223.2,476.6c1.3,0.8,2.7,1.3,4.2,1.4c1.2,0.2,2.5,0.3,3.7,0.4c-1.3-1.2-2.6-2.5-3.7-3.8
	c6.6-1.7,13.4,2.3,15.2,8.9c1.7,6.6-2.3,13.4-8.9,15.2c-6.6,1.7-13.4-2.3-15.2-8.9C217.2,484.8,219,479.5,223.2,476.6L223.2,476.6z"
	/>
<path class="st10" d="M256.8,525h12.1c13.8,0,25,11.2,25,25l0,0v32.9c0,2.3-1.9,4.2-4.2,4.2H236c-2.3,0-4.2-1.9-4.2-4.2V550
	C231.8,536.2,243,525,256.8,525C256.8,525,256.8,525,256.8,525z"/>
<g class="st8">
	<path d="M281.3,453.2c-0.5,0.5-1,1-1.6,1.5c0.6,0,1.1-0.1,1.7-0.2C281.4,454.1,281.4,453.7,281.3,453.2z"/>
	<path d="M272.3,447.3c1.2-0.1,2.5-0.2,3.7-0.4c1.1-0.1,2.2-0.4,3.2-0.9c-0.5-1-1.1-2-1.7-2.9c-0.6,0.4-1.3,0.7-2,0.8
		C274.5,445.2,273.4,446.3,272.3,447.3z"/>
	<path d="M241.7,458c0-11.6,9.4-21.1,21-21.1c4.1,0,8,1.2,11.5,3.4l0.3-0.3c-8.7-7.7-22-7-29.8,1.7s-7,22,1.7,29.8
		c0.1,0.1,0.2,0.1,0.2,0.2C243.5,467.8,241.7,463,241.7,458z"/>
</g>
<g class="st8">
	<path d="M289.7,480.8c1.2-0.1,2.5-0.2,3.7-0.4c1.5-0.1,2.9-0.6,4.2-1.4c2.8,2.1,4.7,5.3,5,8.8c0-0.4,0.1-0.9,0.1-1.3
		c0-3.9-1.8-7.7-5-10c-1.3,0.8-2.7,1.3-4.2,1.4l-1,0.1C291.6,479,290.7,480,289.7,480.8z"/>
	<path d="M290.2,476.6c0.4,0,0.8,0,1.2,0.1c0.6-0.7,1.3-1.4,1.9-2.2c-6.6-1.8-13.4,2.2-15.2,8.8c-0.3,1.1-0.4,2.1-0.4,3.2
		c0,0.4,0,0.8,0.1,1.2C278.5,481.4,283.8,476.6,290.2,476.6z"/>
</g>
<g class="st8">
	<path d="M231,480.8c-1.2-0.1-2.5-0.2-3.7-0.4c-1.5-0.1-2.9-0.6-4.2-1.4c-2.8,2.1-4.7,5.3-5,8.8c0-0.4-0.1-0.9-0.1-1.3
		c0-3.9,1.8-7.7,5-10c1.3,0.8,2.7,1.3,4.2,1.4l1,0.1C229.1,479.1,230,480,231,480.8z"/>
	<path d="M230.6,476.6c-0.4,0-0.8,0-1.2,0.1c-0.6-0.7-1.3-1.4-1.9-2.2c6.6-1.8,13.4,2.2,15.2,8.8c0.3,1.1,0.4,2.1,0.4,3.2
		c0,0.4,0,0.8-0.1,1.2C242.3,481.4,236.9,476.6,230.6,476.6z"/>
</g>
<path class="st7" d="M196.9,599.1H99.2c-2.3,0-4.2-1.9-4.2-4.2l0,0v-46.2c0-2.3,1.9-4.2,4.1-4.2c0.6,0,1.2,0.1,1.8,0.4
	c28.1,13.3,58.3,17.9,94,0.2c2.1-1,4.6-0.2,5.6,1.9c0.3,0.6,0.4,1.2,0.4,1.8v46C201,597.2,199.1,599.1,196.9,599.1
	C196.9,599.1,196.9,599.1,196.9,599.1z"/>
<path class="st4" d="M196.9,599.1H99.2c-2.3,0-4.2-1.9-4.2-4.2l0,0v-46.2c0-2.3,1.9-4.2,4.1-4.2c0.6,0,1.2,0.1,1.8,0.4
	c28.1,13.3,58.3,17.9,94,0.2c2.1-1,4.6-0.2,5.6,1.9c0.3,0.6,0.4,1.2,0.4,1.8v46C201,597.2,199.1,599.1,196.9,599.1
	C196.9,599.1,196.9,599.1,196.9,599.1z"/>
<ellipse class="st10" cx="147.3" cy="556.4" rx="5.8" ry="7.6"/>
<ellipse class="st10" cx="147.3" cy="547.2" rx="5.8" ry="7.6"/>
<ellipse class="st10" cx="147.3" cy="537.9" rx="5.8" ry="7.6"/>
<ellipse class="st10" cx="147.3" cy="528.7" rx="5.8" ry="7.6"/>
<ellipse class="st10" cx="147.3" cy="519.4" rx="5.8" ry="7.6"/>
<ellipse class="st10" cx="147.3" cy="510.1" rx="5.8" ry="7.6"/>
<ellipse class="st10" cx="147.3" cy="500.9" rx="5.8" ry="7.6"/>
<path class="st7" d="M196.9,601.6H99.2c-2.3,0-4.2-1.9-4.2-4.2l0,0v-48.7c0-2.3,1.9-4.2,4.1-4.2c0.6,0,1.2,0.1,1.8,0.4
	c28.1,13.3,50.3,28.8,94,0.2c2.6-1.7,6,0.6,6,3.7v48.5C200.9,599.7,199.1,601.5,196.9,601.6z"/>
<polygon class="st12" points="921.8,587.8 777.7,606.9 770.5,607.8 700,570.2 700,561.4 920.2,537.4 "/>
<polygon class="st13" points="740.8,574.2 897,555.8 895.4,584.6 773.8,593.5 "/>
<path class="st3" d="M777.7,597.4v9.5l-7.2,1L700,570.2v-8.8l67.3,36C767.3,597.4,776.1,598.2,777.7,597.4z"/>
<path class="st10" d="M805.4,447.3l-32.4,150c-1.1,5.2,2.2,10.3,7.3,11.4c1.1,0.2,2.2,0.3,3.3,0.1l204.7-27.1c3.6-0.5,6.7-3,7.8-6.5
	l44.2-133.2c1.7-5-1.1-10.5-6.1-12.1c-1.1-0.4-2.3-0.5-3.5-0.5l-216.5,10.3C809.9,439.9,806.3,443,805.4,447.3z"/>
<ellipse transform="matrix(0.1045 -0.9945 0.9945 0.1045 317.6534 1356.8535)" class="st6" cx="912.3" cy="502" rx="8.7" ry="5.6"/>
<g id="svgg">
	<path id="path0" class="st14" d="M135.2,396.7c0,0.1-0.1,0.5-0.2,1c-0.1,0.5-0.1,1-0.2,1c-0.1,0.1-0.2,0.9-0.3,1.7
		s-0.2,1.7-0.3,1.7s-0.2,0.6-0.2,1.2c-0.1,0.6-0.2,1.1-0.2,1.2s-0.2,0.7-0.3,1.4c-0.1,0.7-0.2,1.3-0.3,1.4c-0.1,0.1-0.2,0.8-0.3,1.5
		c-0.1,0.7-0.2,1.4-0.3,1.4c0,0-0.2,0.5-0.2,1.1c-0.1,0.6-0.2,1.2-0.2,1.2c-0.1,0.1-0.2,0.9-0.3,1.8s-0.2,1.7-0.3,1.7
		c-0.1,0.1-0.4,2.4-0.4,3c0,0.3,0.1,0.4,0.3,0.5c0.2,0.1,0.4,0.2,0.5,0.2c0.1,0.1,0.7,0.2,1.4,0.4c0.7,0.1,1.3,0.3,1.3,0.3
		c0.1,0.1,1.8,0.4,2.3,0.4c0.2,0,0.3-0.1,0.3-0.5c0-0.3,0.1-0.6,0.1-0.7c0.1-0.1,0.2-1.1,0.3-2.1c0.1-1,0.2-1.9,0.3-2
		s0.2-0.8,0.3-1.7s0.2-1.7,0.3-1.8s0.2-0.6,0.2-1.3c0.1-0.6,0.2-1.2,0.2-1.3s0.2-0.9,0.3-1.7c0.1-0.9,0.2-1.7,0.3-1.7
		s0.2-0.8,0.3-1.7c0.1-0.8,0.2-1.6,0.3-1.7c0.1-0.1,0.2-0.6,0.2-1.2c0.1-0.6,0.2-1.1,0.2-1.2c0.2-0.2,0.1-1.5-0.1-1.5
		c-0.1,0-0.2-0.1-0.2-0.1s-0.6-0.2-1.2-0.3c-0.6-0.1-1.3-0.3-1.4-0.3c-1.4-0.7-1.8-0.9-2.1-1.2C135.3,396.6,135.2,396.6,135.2,396.7
		 M154.9,397.3c-0.4,0.1-0.7,0.2-0.8,0.3s-0.4,0.2-0.7,0.3s-0.7,0.3-0.9,0.3c-0.1,0.1-0.4,0.2-0.6,0.3c-0.3,0.1-0.4,0.2-0.4,0.3
		c0,0.4,0.3,1.9,0.4,2.1c0.1,0.1,0.2,0.8,0.3,1.6c0.1,0.8,0.2,1.6,0.3,1.7c0.3,0.9,0.5,3.3,0.4,4.2c-0.2,1,0,2.4,0.3,3.1
		c0.1,0.2,0.2,0.4,0.2,0.5s0.1,0.4,0.3,0.8c0.2,0.6,0.2,0.8,0.2,1.8c-0.1,1.2,0,1.6,0.4,2.6c0.3,0.9,0.4,1.5,0.4,2.3
		c0,1,0.5,1.7,0.9,1.2c0.3-0.4,2.2-0.7,2.4-0.4c0.1,0.1,0.3,0.2,0.4,0.2s0.3,0.1,0.3,0.1c0,0.1,0.3,0.1,0.7,0.1s0.7-0.1,0.7-0.1
		c0-0.1,0.2-0.1,0.4-0.1c0.4,0,0.5-0.5,0.2-0.8c-0.1-0.1-0.2-0.7-0.3-1.4c-0.1-0.7-0.2-1.3-0.3-1.4s-0.2-0.6-0.2-1.1
		c-0.1-0.5-0.2-1-0.2-1c-0.1,0-0.2-0.7-0.3-1.4c-0.1-0.7-0.3-1.4-0.3-1.5c0-0.1-0.2-0.6-0.2-1.2s-0.2-1-0.2-1c0,0-0.2-0.6-0.3-1.3
		c-0.1-0.7-0.3-1.3-0.3-1.4c0,0-0.2-0.7-0.3-1.4c-0.1-0.7-0.3-1.4-0.3-1.5s-0.2-0.6-0.2-1c-0.1-0.5-0.2-1-0.2-1
		c-0.1-0.1-0.2-0.8-0.3-1.5c-0.1-0.7-0.2-1.4-0.3-1.4c0,0-0.2-0.5-0.2-1C155.7,397,155.8,397.1,154.9,397.3 M149.6,398.9
		c-0.1,0.1-0.8,0.2-1.6,0.3c-0.8,0.1-1.5,0.3-1.5,0.4s-0.1,0.1-0.3,0.1c-0.3,0-0.3,0-0.3,0.7c0,1.3,0.3,4.9,0.4,4.9
		c0.2,0,0.1,3.9,0,4c-0.2,0.1-0.2,3.2,0,3.3c0.1,0,0.2,0.4,0.2,0.8c0,0.4,0.2,1,0.3,1.3c0.4,0.8,0.3,1.3-0.2,2
		c-0.6,0.7-0.8,1.9-0.6,3.7l0.1,0.6l1.9,0.1c1,0,2,0.1,2.1,0.2c0.1,0.1,0.8,0.1,1.5,0.1c2,0,2.4-0.7,1.5-2.7c-0.4-0.8-0.4-1.1-0.4-2
		c0-1-0.3-3.6-0.5-4.1c-0.1-0.1-0.2-0.8-0.2-1.4c-0.1-0.6-0.2-1.2-0.2-1.3c-0.1-0.1-0.2-0.9-0.3-1.8c-0.1-0.9-0.2-1.8-0.3-2
		c-0.1-0.1-0.2-1.5-0.3-3.1s-0.2-2.9-0.3-3.1s-0.1-0.4-0.2-0.6C150.2,399,149.8,398.7,149.6,398.9 M141.6,400c0,0.4-0.1,1.5-0.2,2.5
		s-0.2,2-0.2,2.1c-0.1,0.1-0.2,1-0.3,1.8c-0.1,0.8-0.2,1.6-0.3,1.7c-0.1,0.1-0.2,0.6-0.2,1.3s-0.2,1.2-0.2,1.3
		c-0.1,0.1-0.2,0.8-0.3,1.5c-0.1,0.8-0.2,1.5-0.3,1.5s-0.2,0.8-0.3,1.7c-0.1,0.8-0.2,1.6-0.3,1.7s-0.2,0.9-0.2,1.7
		c-0.1,0.8-0.2,1.5-0.3,1.6c-0.1,0-0.1,0.3-0.1,0.6v0.5h2.7c4.1,0,3.8,0.3,3.7-4.3c-0.1-2.7-0.1-6.5,0-13.8l0-3.9l-0.6-0.1
		c-0.3,0-0.9-0.1-1.5-0.1h-0.9L141.6,400 M130.7,421.2c-0.2,0.2-0.2,0.5-0.2,0.7c0,0.2-0.1,0.4-0.1,0.5c-0.1,0.1-0.2,0.9-0.3,1.9
		c-0.1,1-0.2,1.8-0.3,1.9c-0.1,0.1-0.2,0.9-0.3,1.9c-0.1,1-0.2,1.8-0.3,1.8c0,0-0.2,0.6-0.2,1.3c-0.1,0.7-0.2,1.3-0.2,1.4
		c-0.1,0.2-0.5,3.5-0.5,4.4c0,0.4-0.1,0.7-0.1,0.8s-0.1,0.3-0.1,0.6c0,0.8-0.4,3.8-0.5,4c-0.1,0.1-0.2,0.4-0.2,0.8
		c-0.1,0.3-0.2,0.9-0.3,1.2c-0.1,0.3-0.3,0.8-0.4,1.1c-0.1,0.3-0.2,0.6-0.2,0.6c-0.1,0-0.2,0.4-0.2,0.7c-0.3,1.1-0.1,1.2,2.9,1.2
		h2.5l0.1-0.7c0-0.3,0.1-0.8,0.2-0.9c0.1-0.1,0.2-1.1,0.3-2.2c0.1-1.1,0.2-2.1,0.3-2.3c0.1-0.1,0.2-1.2,0.2-2.2
		c0.1-1.1,0.2-2.1,0.2-2.2c0.1-0.1,0.1-0.6,0.2-1c0.1-1.2,0.4-3.2,0.5-3.3c0.1,0,0.2-0.9,0.3-2c0.1-1.1,0.3-2,0.3-2
		c0.1,0,0.2-1.2,0.2-2.5c0.1-1.4,0.2-2.5,0.2-2.5c0.1,0,0.1-0.5,0.1-1s-0.1-1-0.1-1c-0.1,0-0.2-0.1-0.2-0.2
		c-0.1-0.3-0.6-0.5-1.6-0.7c-0.4,0-0.7-0.1-0.7-0.2C131.8,420.6,130.9,420.8,130.7,421.2 M156.8,421.4c-0.4,0-0.7,0.1-0.8,0.1
		c-0.1,0.1-1,0.2-2.1,0.3c-2.2,0.2-2.2,0.1-1,1.5c0.9,1,1.8,2.3,1.8,2.5c0,0.1,0.1,0.1,0.1,0.1c0.1,0,0.2,0.2,0.2,0.5
		c0,0.3,0.2,0.7,0.3,1c0.3,0.7,0.6,3,0.5,4.1c-0.1,1.6-0.4,2.5-1.2,4c-0.9,1.8-0.9,1.7-0.7,3.3c0.1,0.8,0.2,1.5,0.3,1.6
		s0.2,0.8,0.3,1.6c0.1,0.8,0.2,1.5,0.3,1.6s0.2,0.6,0.2,1.3c0.1,0.6,0.2,1.3,0.2,1.4c0.1,0.1,0.2,0.8,0.2,1.4
		c0.1,1.2,0.2,1.3,0.6,0.6c0.4-0.7,0.6-0.7,0.6,0c0,0.3-0.1,0.6-0.1,0.6s-0.1,0.1-0.1,0.2s0.1,0.2,0.1,0.2s0.3,0.1,0.5,0.2
		c1.6,0.8,3.5,0.7,3.9-0.2c0.3-0.6,0.1-8.2-0.2-9c-0.1-0.1-0.1-0.7-0.2-1.3c-0.1-1.8-0.3-3.7-0.4-3.8c-0.1-0.1-0.2-0.8-0.2-1.6
		c-0.1-0.8-0.2-1.4-0.2-1.4c0,0-0.1-0.2-0.1-0.4c0-0.6-0.4-3-0.5-3.3c-0.1-0.1-0.2-0.7-0.2-1.3c-0.1-0.6-0.2-1.1-0.2-1.2
		s-0.2-0.8-0.3-1.5c-0.1-0.8-0.3-1.5-0.3-1.6c-0.1-0.1-0.2-0.5-0.2-0.9C157.6,421.3,157.6,421.4,156.8,421.4 M158.7,421.6
		c0,0.1,0,0.2,0,0.3c0.1,0.1,0.2,0.6,0.3,1.2c0.1,0.5,0.3,1,0.3,1c0,0,0.2,0.5,0.2,1c0.1,0.5,0.2,1,0.2,1s0.2,0.7,0.3,1.4
		c0.1,0.7,0.3,1.3,0.3,1.4c0.1,0.1,0.2,0.8,0.3,1.6c0.1,0.8,0.2,1.6,0.3,1.7s0.2,0.7,0.2,1.3c0.1,0.5,0.2,1,0.2,1.1s0.2,0.7,0.3,1.3
		c0.1,0.6,0.2,1.2,0.3,1.4c0.2,0.5,0.3,1.8,0.4,5.8c0.1,2.4,0.1,3.9,0.2,4c0.2,0.3,0.5,1.8,0.4,2.3c-0.1,0.4-0.4,0.5-0.8,0.2
		c-0.2-0.2-0.5,0-0.5,0.3c0,0.6,3.7,0.7,3.9,0.2c0.1-0.2-0.2-2.6-0.4-3c-0.1-0.1-0.2-0.7-0.2-1.3c-0.1-0.6-0.2-1.1-0.2-1.2
		s-0.2-0.7-0.3-1.4s-0.2-1.4-0.3-1.5c-0.1-0.3-0.5-2.7-0.5-3.2c0-0.2-0.1-0.4-0.1-0.4s-0.2-0.6-0.2-1.4c-0.1-0.7-0.2-1.4-0.2-1.5
		c-0.1-0.1-0.2-0.9-0.3-1.9c-0.1-1-0.2-1.9-0.3-2c-0.2-0.5-0.3-2-0.4-3.9c-0.1-1-0.1-1.9-0.2-2c-0.1-0.1-0.2-0.8-0.3-1.6
		c-0.2-2-0.5-2.4-1.9-2.4C159.2,421.5,158.7,421.5,158.7,421.6 M135.6,424.2c0,1.3-0.1,4-0.2,6.1c0,2.1-0.1,3.8-0.2,3.9
		c-0.1,0.1-0.2,1.4-0.2,2.8s-0.2,2.7-0.3,2.8c-0.2,0.1-0.1,2.1,0,2.2c0.2,0.1,0.2,0.8,0,0.8c-0.1,0-0.6,4.6-0.5,5.3
		c0.1,0.9,0.9,0.7,0.9-0.2c0-0.7,0.3-0.3,0.3,0.4c0,0.6,0.1,0.7,0.3,0.7c0.2,0,0.3,0,0.3,0.1c0,0.1,0.4,0.2,0.9,0.3
		c0.5,0.1,0.9,0.3,1,0.4c0.1,0.1,0.5,0.2,0.9,0.3l0.8,0.2l-0.1-1.4c-0.1-1.5,0.2-6.3,0.4-6.9c0.2-0.4,0.2-2.1,0.2-2.8
		c-0.1-0.5-0.3-0.8-1.2-1.8c-0.6-0.7-1.1-1.4-1.1-1.5s-0.2-0.4-0.3-0.7c-0.2-0.3-0.3-0.7-0.4-0.9c0-0.2-0.1-0.5-0.2-0.5
		s-0.2-0.5-0.2-1c-0.1-0.5-0.2-1-0.2-1c-0.1,0-0.1-3.3,0-3.4c0.1,0,0.2-0.4,0.2-0.9s0.2-1,0.3-1.2c0.1-0.2,0.3-0.6,0.3-0.9
		c0.1-0.2,0.2-0.5,0.2-0.6c0.1-0.1,0.2-0.4,0.4-0.7c0.1-0.3,0.3-0.6,0.3-0.6c0.6-0.7,0.4-1.3-0.4-1.3c-0.5,0-0.5,0-0.8,0.8l-0.3,0.8
		l0-0.7c0-0.8-0.1-0.8-0.9-1l-0.3-0.1L135.6,424.2 M146.8,422.6c-1.1,0.1-2.6,0.3-2.8,0.5c-0.1,0.1-0.4,0.2-0.7,0.3
		c-0.3,0.1-0.5,0.2-0.5,0.3c0,0-0.3,0.2-0.6,0.3s-0.6,0.3-0.6,0.3s-0.1,0.1-0.3,0.2c-0.2,0.1-0.3,0.2-0.4,0.4c0,0.2-0.1,0.3-0.2,0.3
		s-0.2,0.2-0.2,0.4s-0.2,0.4-0.3,0.4c-0.2,0-0.2-0.7,0-0.9c0.1-0.1,0.1-0.2-0.1-0.4c-0.4-0.5-1.7,1.2-2.1,2.6
		c-0.1,0.4-0.3,0.9-0.3,1c-0.2,0.3-0.2,3.5,0,3.8c0.1,0.1,0.2,0.5,0.3,0.8c0.2,0.5,0.6,1.5,0.7,1.5c0.3,0,0.3-0.3,0.1-1.7
		c-0.2-0.8-0.3-1.6-0.4-1.6c-0.1-0.1,0-0.4,0.2-0.4c0.1,0,0.1,0.1,0.1,0.2s0.1,0.3,0.2,0.3s0.2,0.2,0.2,0.3c0,0.2,0.9,1.4,1,1.4
		c0,0,0.1-0.7,0.2-1.5c0.1-0.8,0.2-1.6,0.3-1.9c0.1-0.2,0.2-0.7,0.3-0.9c0.1-0.3,0.2-0.5,0.3-0.6c0.1-0.1,0.2-0.2,0.2-0.3
		c0-0.1,0.4-0.7,0.9-1.3c0.6-0.8,0.8-1.2,0.7-1.3c-0.2-0.2-0.1-0.2,1.3-0.5c0.6-0.1,1.2-0.2,1.3-0.3c1.3-0.6,3.6-0.2,4.4,0.7
		c0.2,0.2,0.5,0.4,0.8,0.5c0.8,0.1,1.4,0.6,1.7,1.1s0.3,1.2,0.1,1.2c-0.2,0-0.8-0.3-0.8-0.5c0-0.1-0.1-0.1-0.1-0.1
		c-0.2,0,0.1,0.9,0.4,1.5c0.1,0.3,0.4,0.8,0.5,1.3c0.2,0.4,0.5,1.1,0.6,1.5l0.3,0.7l0.1-0.6c0-0.3,0.1-1.2,0.2-1.8s0.2-1.3,0.2-1.4
		c0.1-0.1,0.1-0.2,0-0.4c-0.1-0.1-0.2-0.5-0.2-0.7c0-0.5-0.4-1.4-0.6-1.7c-0.1-0.1-0.2-0.3-0.2-0.3c0-0.2-0.6-0.9-0.8-0.9
		c-0.1,0-0.2-0.1-0.2-0.2c-0.1-0.2-0.6-0.5-0.8-0.5c-0.1,0-0.3-0.1-0.5-0.2c-0.2-0.1-0.7-0.3-1-0.4c-0.3-0.1-0.8-0.3-1-0.4
		C148.1,422.6,147.6,422.5,146.8,422.6 M152.6,439.1c-0.3,0.4-0.8,0.8-1,0.9c-0.2,0.1-0.7,0.4-1,0.6c-0.3,0.2-0.6,0.3-0.7,0.4
		c-0.2,0.1-1.7,0.4-2.3,0.5l-0.4,0l0,0.8c0,0.5,0.1,0.9,0.1,1c0.1,0.1,0.2,0.9,0.3,1.9c0.1,1,0.2,1.8,0.3,1.9s0.2,0.6,0.2,1.3
		c0.2,1.3,0.1,1.2,1,1.3c0.4,0,0.7,0.1,0.7,0.2c0,0.1,0.5,0.1,1.1,0.2c0.6,0.1,1.2,0.2,1.4,0.2c0.6,0.2,1.5,0.7,1.6,0.9
		c0.1,0.1,0.1-0.5,0-1.2c-0.1-0.7-0.1-1.4-0.2-1.4s-0.2-0.8-0.2-1.7s-0.2-1.7-0.2-1.7c-0.2-0.3-0.4-3.9-0.2-5.3
		C153.3,438.2,153.3,438.2,152.6,439.1 M141.3,444v4.2l0.3,0.3c0.4,0.4,0.4,0.6-0.1,0.5c-0.4-0.1-0.4-0.1-0.4,0.6v0.6h2.5
		c2.3,0,2.5,0,2.7-0.2c0.2-0.3,0.3-0.7,0.1-0.7c-0.1,0-0.2-1-0.3-2.2c-0.1-1.2-0.3-2.2-0.3-2.2s-0.1-0.7-0.1-1.4
		c0-1.8-0.1-2-0.6-2.2c-0.2-0.1-0.5-0.2-0.6-0.2c-0.1-0.1-0.4-0.2-0.7-0.3c-0.3-0.1-0.6-0.2-0.8-0.3s-0.5-0.2-0.8-0.3
		c-0.3-0.1-0.7-0.2-0.8-0.2C141.3,439.9,141.3,440.1,141.3,444 M127.7,448.8c-0.1,0.2,0.2,8.5,0.3,8.9c0.1,0.1,0.1,1.2,0.2,2.2
		c0.1,2,0.3,4.4,0.4,4.6c0.1,0.1,0.4,2.8,0.4,3.5c0,0.3,0.1,0.6,0.1,0.6c0.1,0,0.1,0.5,0.1,0.9c0,2.4,0.2,2.6,2.1,2.6
		c1.8,0,1.7,0,1.6-0.9c-0.1-0.5-0.2-0.9-0.2-0.9c-0.1-0.1-0.2-1.9-0.2-4c-0.1-2.1-0.2-3.8-0.2-3.9c-0.2-0.2-0.5-9.1-0.3-10
		c0.4-1.7-0.2-3.4-1.3-3.4c-0.2,0-0.3-0.1-0.4-0.1C130.3,448.6,127.8,448.6,127.7,448.8 M133.9,449.9c0,0.4-0.1,0.6-0.2,0.7
		c-0.2,0.1-0.2,6.5,0,6.7c0.2,0.2,0.4,6.9,0.3,10.7l-0.1,3.6l0.4,0.5l0.4,0.5l0.6-0.2c0.3-0.1,0.7-0.2,0.9-0.2
		c0.2,0,0.3-0.1,0.3-0.1c0-0.1,0.1-0.1,0.2-0.1c0.1,0,0.3-0.2,0.5-0.5c0.4-0.6,0.7-0.5,1,0.3c0.2,0.5,0.3,0.6,0.7,0.6h0.5l-0.1-0.8
		c-0.1-1.3,0.2-11,0.3-11.2c0.2-0.3,0.2-5,0-5c-0.1,0-0.1-0.8-0.2-2c0-2.4-0.5-2.9-1.7-1.6c-0.3,0.3-0.4,0.3-0.3-0.3
		c0.1-0.6,0.1-0.6-0.6-0.8c-0.2,0-0.5-0.1-0.5-0.2c0-0.1-0.4-0.2-0.9-0.3c-0.5-0.1-1-0.3-1.2-0.5
		C133.9,449.2,133.9,449.2,133.9,449.9 M148.1,451.1c-0.6,0.1-1,0.2-1.1,0.3c-0.2,0.1-0.2,10.8,0,10.8c0,0,0.1-0.1,0.2-0.1
		c0.4-0.4,1.3-0.5,1.8-0.1c0.3,0.2,0.6,0.4,0.8,0.5l0.3,0.1v-5.8v-5.8l-0.5,0C149.3,450.9,148.7,451,148.1,451.1 M155.8,451.4
		c0,0.2,0.1,0.4,0.1,0.5c0.1,0.1,0.3,2.8,0.5,6.4c0,0.9,0.1,1.8,0.2,2c0.1,0.1,0.2,1.4,0.2,2.8c0.1,1.4,0.2,2.5,0.2,2.6
		c0.2,0.2,0.5,4.2,0.3,4.5c-0.2,0.4-0.2,0.4-0.8-0.1c-0.2-0.3-0.5-0.5-0.6-0.5s-0.3-0.2-0.6-0.6l-0.5-0.6l-0.1-2.7
		c0-1.5-0.1-5.1-0.2-8.1l-0.1-5.4l-0.3-0.4c-0.5-0.6-2.6-0.8-2.6-0.3c0,0.1-0.1,0.1-0.2,0.1c-0.2,0-0.3,2-0.1,2.2
		c0.2,0.1,0.2,10.6,0,10.7c-0.1,0.1-0.2,1.5-0.2,3.3l-0.1,3.1l0.3,0.3c0.2,0.3,0.5,0.3,2.5,0.4l2.2,0.1l-0.1-0.5
		c-0.1-0.6,0.1-0.6,0.9,0.2c0.4,0.4,0.8,0.7,1,0.8s0.4,0.1,0.4,0.2c0,0.1,0.2,0.1,0.5,0.1c0.6,0,0.9-0.8,0.9-2.1
		c0-2.2,0.3-9.5,0.4-9.5c0.1,0,0.1-2.1,0.1-4.7v-4.7h-0.6c-0.3,0-0.6-0.1-0.7-0.1c0,0-0.5-0.2-1-0.2s-1.2-0.1-1.5-0.2
		C155.8,451,155.8,451,155.8,451.4 M142.6,451.3c-0.6,0-1.1,0.1-1.2,0.1c0,0.1-0.2,0.2-0.3,0.2c-0.3,0.2-0.3,4.7-0.1,5
		c0.2,0.2,0.2,1.8,0,2c-0.2,0.1-0.3,1.7-0.2,2.4c0.1,0.8,0.5,0.9,0.8,0.2c0.2-0.5,0.5-0.7,0.6-0.6c0,0.1,0,0.1-0.1,0.1
		c-0.1,0-0.1,0.1,0,0.2c0.1,0.2,0.5,0.2,1.5,0.2h1.4l0.2-0.5c0.2-0.5,0.3-2.5,0.1-2.7c-0.4-0.4-0.6-3.6-0.3-4.9
		c0.1-0.5,0.2-1.2,0.2-1.5v-0.7l-0.8,0C144.1,451.2,143.2,451.3,142.6,451.3 M163,451.3c-0.4,0-0.8,0.1-0.9,0.2s-0.3,0.1-0.5,0.1
		c-0.5,0-0.5,0.2,0,0.6l0.4,0.2l0,7c0,6.6-0.2,10.8-0.4,11.2c-0.2,0.3-0.3,2.2-0.1,2.5c0.2,0.2,0.2,0.2,0.7,0
		c0.6-0.3,0.6-0.3,0.7-2.2c0-0.5,0.1-1,0.2-1.1c0.1-0.1,0.2-1.3,0.2-2.7c0.1-1.4,0.2-2.6,0.2-2.8c0.1-0.1,0.2-2.1,0.3-4.3
		c0.1-2.2,0.2-4,0.3-4s0.1-0.3,0.2-0.7c0.1-0.6,0.2-0.9,0.8-2.4c0.1-0.3,0.2-0.8,0.2-1.1v-0.5l-0.8,0
		C164.1,451.2,163.4,451.3,163,451.3 M140.8,463.5c0,0.3-0.1,1.5-0.2,2.7c0,1.2-0.1,2.2-0.2,2.3s-0.1,0.8-0.2,1.6l-0.1,1.5h0.9
		c1.4,0,1.4,0,1.5-3.5c0.1-2.5,0.1-2.9,0.3-3.5c0.2-0.3,0.3-0.7,0.3-0.8c0-0.4,0.2-0.1,0.4,0.5c0.1,0.3,0.2,0.8,0.2,0.9
		s0.2,1.5,0.3,3c0.1,1.5,0.2,2.8,0.3,2.9c0.1,0.2,0.2,2.1,0,2.2c-0.1,0-0.2,1.3-0.2,2.8c0,1.5-0.2,3.9-0.2,5.4
		c-0.1,2.3-0.1,3.3,0.1,6.4c0.2,4.5,0.3,4.7,1.6,5.1c0.4,0.1,0.8,0.2,0.8,0.3c0,0.1,0.4,0.2,0.8,0.3c0.4,0.1,0.8,0.2,0.8,0.3
		c0.2,0.2,0.5-0.1,0.7-0.6c0.2-0.8,0.1-9.3-0.2-9.9c-0.1-0.1-0.2-2.4-0.2-5.1c-0.1-2.7-0.2-4.9-0.2-5c0-0.1-0.2-0.3-0.3-0.4
		c-0.1-0.2-0.4-0.3-1.5-0.4c-1.3-0.1-1.6-0.2-1.5-0.3c0,0,0.3-0.3,0.7-0.6c0.6-0.5,0.6-0.6,0.8-0.4c0.2,0.3,1.6,0.3,1.7,0
		c0-0.1,0-0.6-0.1-1.1c-0.1-0.6-0.1-1.5,0-2.4c0.1-1.5-0.1-4.1-0.4-4.6c-0.2-0.3-0.9-0.2-1.2,0.1c-0.3,0.3-0.4,7-0.1,7.4
		c0.1,0.1,0.1,0.2-0.1,0.2c-0.5,0-0.7-0.3-0.6-1.5c0.1-1,0.1-1.3,0-4.2l-0.1-1.7l-0.9-0.1c-0.5,0-1.1-0.1-1.4-0.1
		c-0.3,0-0.5-0.1-0.5-0.1s-0.4-0.1-0.9-0.2l-0.9,0L140.8,463.5 M125.9,464.9c-0.4,0.1-0.6,0.2-0.6,0.3c0,0.1-0.1,0.2-0.1,0.2
		c-0.2,0-0.2,1,0.1,1.3c0.2,0.1,1-1.2,1-1.6c0-0.1,0.1-0.1,0.1-0.1c0.3,0,0.1,1-0.4,1.7c-0.3,0.4-0.5,0.8-0.5,0.8s-0.2,0.3-0.3,0.7
		c-0.2,0.3-0.4,0.7-0.4,0.8c0,0.1-0.1,0.2-0.2,0.2c-0.1,0-0.1,0.1-0.1,0.2c0,0.1-0.2,0.4-0.4,0.7c-0.2,0.3-0.4,0.6-0.4,0.7
		s-0.1,0.2-0.2,0.3c-0.2,0.1-0.6,0.9-0.6,1.2c0,0.1-0.1,0.2-0.1,0.2c-0.1,0-0.1,0.1-0.1,0.3s-0.1,0.5-0.2,0.8
		c-0.1,0.3-0.3,0.7-0.5,1.1c-0.4,0.9-0.6,0.9-0.5,0.1c0.1-0.6,0.1-0.7-0.1-0.4c-0.1,0.1-0.2,0.3-0.2,0.5c0,0.1-0.1,0.2-0.2,0.2
		s-0.2,0.2-0.2,0.3c0,0.1-0.1,0.2-0.2,0.3c-0.1,0.1-0.3,0.3-0.4,0.7c-0.1,0.3-0.3,0.6-0.4,0.7c-0.1,0.1-0.2,0.2-0.2,0.2
		s-0.2,0.4-0.4,0.8s-0.4,0.7-0.4,0.7s0,0.2-0.1,0.2c-0.1,0-0.2,0.3-0.3,0.5c-0.4,1-0.7,1.7-0.8,2.1c-0.1,0.2-0.3,0.5-0.5,0.5
		s-0.4,0.2-0.6,0.3c-0.1,0.1-0.3,0.1-0.5,0.1c-0.3,0-1.1,0.7-1,0.9c0,0.1,0.3,0.2,0.6,0.3c0.3,0.1,0.6,0.2,0.6,0.3s0.2,0.2,0.5,0.3
		c0.2,0.1,0.7,0.3,1.1,0.5c1.8,0.9,2,1,2.2,1c0.1,0,0.2,0,0.2,0.1c0.1,0.1,0.9,0.6,1.7,0.9c0.6,0.2,0.7,0.2,0.7-0.3
		c0-0.3,0.8-1.9,1.2-2.5c0.2-0.3,0.4-0.7,0.4-0.7s0.1-0.3,0.2-0.5c0.1-0.2,0.4-0.7,0.5-1c0.4-0.9,0.6-1.3,0.7-1.4
		c0,0,0.2-0.3,0.3-0.7c0.2-0.3,0.4-1.1,0.7-1.7c0.9-2.2,0.9-2.4,1.1-3c0.1-0.3,0.2-0.7,0.2-0.7c0.2-0.1,0.1-1.8,0-2
		c-0.1-0.1-0.2-1-0.3-2c-0.1-1-0.2-1.9-0.3-2c0-0.1-0.2-0.9-0.2-1.9l-0.2-1.8l-0.3,0C126.7,464.8,126.3,464.8,125.9,464.9
		 M164.6,467.1c0,0.1-0.1,0.4-0.1,0.5s-0.2,1.2-0.3,2.3c-0.1,1.1-0.2,2.1-0.3,2.1c-0.2,0.1-0.2,0.8,0,0.9c0.1,0,0.2,0.5,0.1,1.5
		c0,1.4,0,1.4,0.3,2c0.2,0.3,0.4,0.6,0.4,0.7s0.1,0.2,0.2,0.2c0.1,0.1,0.2,0.4,0.4,0.7c0.1,0.3,0.3,0.8,0.4,1c0.3,0.7,1,2.5,1.4,3.3
		c0.2,0.4,0.5,0.9,0.6,1.2c0.1,0.2,0.3,0.7,0.5,1c0.6,1,1.3,2.7,1.3,3.1c0,0.2,0.1,0.3,0.1,0.4s0.2,0.3,0.2,0.6
		c0.1,0.4,0.2,0.5,0.4,0.6c0.9,0.4,1.3,0.9,0.6,0.8c-0.4-0.1-0.5-0.1-0.4,0.1c0.1,0.1,0.1,0.6,0.2,0.9c0.1,0.8,0.3,1.2,0.7,1.2h0.3
		l0.1,5.9c0,4.2,0.1,5.9,0.2,6c0.2,0.2,0.2,6.3,0,6.5c-0.1,0-0.2,1-0.2,2.2c-0.2,3.8-0.3,5.4-0.5,5.7c-0.4,0.7-0.4,1.6,0,1.8
		c0.2,0.1,0.4,0.2,0.4,0.3c0.2,0.2,0.6,0.2,0.6,0.1c0-0.6,0.3-0.6,3.1-0.6c1.7,0,2.7,0,2.8-0.1c0.1-0.1,0.2-0.2,0.3-0.3
		c0.1-0.1,0.3-0.3,0.4-0.4c0.1-0.1,0.2-0.3,0.2-0.4c0.2-0.1,0.1-2.7,0-3c-0.1-0.1-0.2-1.4-0.3-2.9c-0.1-1.5-0.2-2.8-0.3-2.8
		c0,0-0.2-0.9-0.2-1.9l-0.2-1.8h-0.9c-0.9,0-1.2-0.1-0.8-0.5c0.1-0.1,0.2-0.7,0.2-1.5c0.1-0.7,0.2-1.4,0.2-1.6
		c0.1-0.1,0.2-1.2,0.2-2.2c0.1-1.5,0.2-2.1,0.4-2.4c0.3-0.6,0.3-1.4-0.1-2.3c-0.4-0.9-0.5-1.6-0.3-2.4c0.2-1-0.2-1.8-1.2-2.1
		c-0.2-0.1-0.4-0.2-0.5-0.3s-0.5-0.2-0.7-0.3c-0.4-0.2-0.9-0.6-0.6-0.6c0.4,0,0.7-0.6,0.8-1.7c0.1-1.4,0.2-1.6,0.4-1.6
		c0.2,0,0.2,0.2,0.1,1.1l-0.1,1.1h0.9c1.1,0,1.1,0,1-1.7c0-1.3-0.1-1.4-0.3-1.7c-0.3-0.3-0.4-0.9-0.2-1.1c0.1-0.1,0-0.2-0.2-0.5
		c-0.2-0.2-0.4-0.6-0.4-0.9c-0.2-0.7-0.9-1.5-1.3-1.5c-0.2,0-0.3-0.1-0.5-0.5c-0.1-0.2-0.3-0.7-0.6-0.9c-0.2-0.2-0.6-0.6-0.8-0.8
		c-0.3-0.3-0.4-0.5-0.4-1.2c-0.1-1-0.2-1.1-0.4-0.8c-0.3,0.3-0.4,0.1-0.6-1c-0.2-0.9-0.7-1.6-1.9-2.5c-0.2-0.2-0.5-0.4-0.5-0.5
		c0-0.1-0.3-0.6-0.7-1.1s-0.8-1.1-0.9-1.4c-0.1-0.2-0.3-0.5-0.4-0.5s-0.2-0.2-0.2-0.3c0-0.1-0.2-0.4-0.4-0.7s-0.4-0.5-0.4-0.6
		s-0.1-0.2-0.1-0.3c-0.2-0.3-0.8-1.3-0.9-1.6C164.8,466.7,164.6,466.7,164.6,467.1 M124.1,467.3c-0.2,0.5-0.6,1.2-0.7,1.3
		c-0.2,0.2-0.4,0.9-0.2,1c0.2,0.1,0.4-0.2,0.7-0.9c0.1-0.2,0.2-0.4,0.2-0.4c0.1-0.1,0.5-1,0.5-1c0,0-0.1-0.1-0.2-0.2
		C124.3,467,124.2,467,124.1,467.3 M151.5,473.5c0,1.1-0.2,1.5-0.6,2l-0.3,0.3l0.1,2.8c0,1.6,0.1,2.8,0.2,2.9c0.2,0.3,0.2,3.6,0,3.9
		c-0.2,0.2-0.2,0.9-0.2,3.9v3.6h1.5h1.5l-0.1-0.7c0-0.4-0.2-0.8-0.2-0.9c-0.2-0.2-0.2-4.6,0-4.7c0.1-0.1,0.2-0.4,0.3-0.8
		c0.1-0.4,0.2-0.8,0.3-0.8c0.2-0.3,0.5-2.9,0.5-5.2c0-1.3,0.1-2.4,0.1-2.5c0.2-0.2,0.5-2.5,0.5-3.3v-0.7l-0.8-0.1
		c-0.4-0.1-0.8-0.1-0.9-0.2s-0.5-0.1-0.9-0.2l-0.8-0.1L151.5,473.5 M130.6,473.2c-0.2,0.1-0.1,1.8,0.2,2.2c0.1,0.1,0.5,1.5,0.5,1.7
		c0,0.1,0,0.2,0.1,0.2c0.1,0,0.2,0.4,0.3,0.9c0.1,0.5,0.3,1,0.4,1.2c0.1,0.1,0.2,0.5,0.2,0.8c0.1,0.3,0.1,0.5,0.2,0.6
		c0.1,0.1,0.5,1.5,0.5,1.8c0,0.1,0.1,0.3,0.1,0.4c0.1,0.1,0.2,0.7,0.3,1.4c0.1,0.7,0.3,1.3,0.3,1.4s0.1,0.5,0.2,0.9
		c0.1,0.5,0.2,0.8,0.4,1c0.2,0.3,0.3,0.5,0.4,1.7c0.1,0.8,0.1,1.5,0.2,1.5s0.1,0.3,0.1,0.7c0,0.3,0,0.8,0.1,1l0.1,0.4l1.5,0.1
		c0.8,0,1.5,0,1.6,0c0.1-0.1-0.2-3.3-0.3-3.5c-0.2-0.1-0.4-3-0.4-6c0-1.7-0.1-3-0.2-3s-0.1-0.8-0.1-1.7c0-4.2-0.6-5.8-2-5.5
		c-0.6,0.1-1.3,0.7-1.3,1.1c0,0.1-0.1,0.2-0.1,0.2c-0.1,0-0.1,0.1-0.1,0.2c0,0.3-0.2,0.2-0.5-0.2
		C132.7,473.7,131.2,472.9,130.6,473.2 M139.4,473.3c-1,0-1,0-1,0.4c0,1.3,0.3,6.1,0.4,6.4c0.1,0.1,0.2,1.7,0.3,3.3
		c0.1,1.7,0.2,3.2,0.3,3.3c0.3,0.7,0.3,4.2-0.1,4.2c-0.7,0-0.4,1.7,0.4,1.8c2,0.3,2.5,0,2.6-1.5c0-0.5,0.1-1,0.2-1.2
		c0.2-0.3,0.2-11.6-0.1-12c-0.1-0.2-0.2-0.7-0.3-1c-0.1-0.3-0.1-0.7-0.2-0.7c-0.2-0.1-0.1-2.5,0-2.7c0.1,0,0.1-0.2,0.1-0.3
		C142.1,473.2,141.9,473.2,139.4,473.3 M156.7,474.4c-0.1,0.6-0.1,1.1-0.2,1.2c-0.1,0.1-0.2,0.9-0.3,2s-0.2,1.9-0.3,2
		c-0.1,0.2-0.3,2-0.4,4c0,0.8-0.1,1.6-0.2,1.7c-0.1,0.1-0.2,1.4-0.2,2.8c-0.1,1.5-0.2,2.7-0.3,2.7c-0.2,0-0.1,1.2,0.2,1.5
		c0.2,0.1,0.2,0.3,0.2,0.5c-0.1,0.4,0.1,0.6,0.4,0.3c0.2-0.1,0.4-0.5,0.4-0.8c0.1-0.3,0.2-0.6,0.2-0.7c0.1-0.1,0.2-0.7,0.3-1.3
		c0.1-0.7,0.2-1.3,0.3-1.5c0.1-0.1,0.2-1.6,0.2-3.3c0.1-1.6,0.2-3.1,0.2-3.1s0.2-1.2,0.3-2.5c0.1-1.3,0.2-2.4,0.3-2.4
		c0,0,0.2-0.8,0.2-1.7c0.2-1.8,0.2-1.9-0.4-1.9c-0.2,0-0.3-0.1-0.3-0.1C157.1,473,156.8,473.4,156.7,474.4 M160,475.1
		c0,0.1-0.1,0.2-0.1,0.2s-0.1,0.2-0.1,0.5c0,0.8-0.2,3.2-0.4,3.4c-0.1,0.1-0.2,1.2-0.3,2.3c-0.1,1.2-0.2,2.1-0.3,2.2
		c0,0-0.2,0.6-0.2,1.3c-0.1,0.7-0.2,1.3-0.2,1.4s-0.2,0.8-0.3,1.7s-0.3,1.6-0.3,1.7c-0.2,0.3-0.5,2.7-0.4,2.8
		c0.3,0.4,3.3,0.3,3.3-0.1c0-0.1,0.1-0.2,0.1-0.2c0.1,0,0.1-0.6,0.1-1.4c0-0.8-0.1-1.4-0.1-1.4c-0.2,0-0.2-1.8,0-2
		c0.1-0.1,0.2-1.4,0.3-2.9c0.1-1.5,0.3-2.9,0.3-2.9c0.1-0.1,0.1-0.5,0.1-0.9c0-1.2,0.2-3.7,0.4-3.8c0.2-0.3,0.1-1.3-0.2-1.6
		C161.2,474.9,160,474.7,160,475.1 M114.4,485.3c0.1,0.7,0.4,1,0.8,1c0.2,0,0.5,0.2,0.9,0.5c0.4,0.4,0.6,0.5,0.9,0.4
		c0.3,0,0.6,0,1.1,0.3c0.6,0.3,0.9,0.7,1.9,2c0.1,0.1,0.1,0.3,0.1,0.3c-0.2,0.1-3.6-1.9-3.6-2.1c-0.2-0.6-0.6-0.9-0.9-0.7
		c-0.2,0.2-0.4,0.2-0.6,0.2l-0.4-0.1l0.1,2.2c0.2,2.8,0.1,6-0.1,7.5c-0.1,1-0.1,1.3,0,2c0.2,0.7,0.2,0.9,0,1.7
		c-0.2,0.9-0.2,4.2-0.1,4.2c0,0,0.2-0.1,0.4-0.3l0.4-0.3l0-3.9c0-4,0.1-5.1,0.4-5.3c0.1-0.1,0.2-0.5,0.2-2c0-1.6,0-1.9,0.2-1.9
		s0.2,0.2,0.2,1.7c0,0.9,0,1.7,0.1,1.7s0.1,0.4,0.1,0.9s0,1.1,0.1,1.3c0.1,0.2,0,0.4-0.1,0.5c-0.2,0.1-0.2,0.5,0.1,0.8
		c0.5,0.5,0.6,4.3,0.1,4.6c-0.1,0.1-0.4,1.3-0.3,1.4c0,0,0.2-0.2,0.3-0.5c0.3-0.7,0.4-0.5,0.5,0.5c0,0.2,0.1,0.5,0.1,0.5
		s0.2,0.9,0.3,2c0.1,1.1,0.2,2,0.3,2c0.2,0,0.1,0.8,0,0.9c-0.2,0.2-1-0.7-1.2-1.3l-0.1-0.6l-0.2,0.5c-0.1,0.3-0.2,0.5-0.2,0.6
		c-0.3,0.2-0.2,0.7,0.1,0.7c0.2,0,0.3,0.1,0.3,0.3c0,0.7-0.3,3-0.4,3.1c-0.1,0.1-0.1,0.4-0.1,0.7v0.5h2.5c2.7,0,2.8,0,2.8-0.6
		c0-0.2,0.1-0.3,0.1-0.4c0.1-0.1,0.2-3.6,0.3-9.3c0.1-5.3,0.2-9.2,0.3-9.3c0.1-0.1,0.1-0.2,0-0.3c-0.1-0.1-0.2-0.7-0.3-1.3
		c-0.1-0.6-0.2-1.2-0.3-1.3c-0.1-0.1-0.2-0.7-0.2-1.4c-0.1-0.7-0.2-1.3-0.2-1.3c-0.1,0-0.1-0.1-0.1-0.2c0-0.1-0.1-0.2-0.2-0.2
		s-0.2-0.1-0.2-0.1s-0.2-0.2-0.6-0.3c-0.3-0.1-0.6-0.2-0.6-0.3c0-0.1-0.2-0.1-0.4-0.2c-0.2-0.1-0.6-0.2-0.8-0.3
		c-1.8-1-2.8-1.5-3.2-1.6l-0.5-0.1L114.4,485.3 M176.4,490c-0.2,0.3-0.4,0.6-0.5,0.7c-0.1,0.1-0.1,0.2,0.1,0.3
		c0.3,0.2,0.4,0.1,0.9-0.6l0.3-0.3l-0.3-0.3C176.7,489.5,176.8,489.5,176.4,490 M145,495c0,0.1-0.2,0.1-0.3,0.1
		c-0.7,0-0.8,3.7-0.1,4.3c0.2,0.2,0.4,1,0.5,1.8c0,0.5,0.1,0.9,0.2,0.9s0.1,0.2,0.1,0.5c0,0.3,0,0.5-0.1,0.5c-0.1,0-0.5,4.7-0.5,5.9
		c0,0.5-0.1,0.8-0.1,0.9c-0.1,0-0.1,0.7-0.1,1.4c0,0.7-0.1,1.6-0.1,2c-0.1,0.3-0.2,1.7-0.2,3c0,1.7-0.1,2.4-0.2,2.4
		c-0.1,0-0.2,0.5-0.2,1.5v1.4l0.6-0.1c0.3-0.1,0.6-0.1,0.7-0.2c0.1-0.1,0.3-0.1,0.5-0.2s0.4-0.1,0.4-0.2c0-0.2,0.4-0.1,0.7,0.1
		c0.3,0.2,0.3,0.2,0.7-0.2l0.4-0.5l1.5,0l1.5,0l-0.1-1.4c-0.1-0.8-0.1-2.2-0.2-3.1c-0.1-1-0.1-3.1-0.1-4.7c0-1.8-0.1-3-0.1-3
		c-0.1,0-0.1-0.8-0.1-1.7c0-1.9-0.3-2.8-1.3-3.4l-0.5-0.3l0-2.1c0-1.8,0-2.1,0.2-2.2c0.2-0.1,0.2-0.5,0.1-0.5
		c-0.1,0-0.1-0.1-0.1-0.2c0-0.1-0.1-0.2-0.2-0.3c-0.2,0-0.2-0.1-0.2-0.3c0.1-0.1,0.2-0.5,0.4-0.9c0.4-1,0.5-1-1.4-1
		c-1,0-1.7-0.1-1.8-0.1s-0.1-0.1-0.2-0.1C145.1,494.9,145,494.9,145,495 M112.1,498.1c-0.2,0.4-0.4,1.1-0.5,1.6s-0.3,1.2-0.4,1.6
		c-0.2,0.5-0.3,1-0.3,1.5c0,0.4-0.1,0.8-0.1,0.8c-0.1,0-0.1,0.2-0.1,0.3c0,0.1-0.2,0.6-0.6,0.9c-0.5,0.6-0.6,0.8-0.6,1.2
		c0,0.3-0.1,0.7-0.2,0.9c-0.1,0.2-0.4,0.7-0.5,1c-0.2,0.3-0.4,0.8-0.5,1.1c-0.1,0.3-0.3,0.5-0.3,0.6c-0.4,0.4-0.5,1.6-0.2,1.9
		c0.2,0.2,0,1-0.3,1.3c-0.1,0-0.2,0.3-0.3,0.6s-0.3,0.6-0.3,0.6c-0.6,0.7-0.6,1.6,0.2,1.2c0.2-0.1,0.7-0.3,1.1-0.4
		c0.4-0.1,0.7-0.2,0.8-0.3c0.1-0.1,0.4-0.2,0.7-0.3c0.3-0.1,0.7-0.3,0.9-0.4c0.2-0.1,0.4-0.2,0.5-0.2c1.3,0,1.9-1.5,1.1-2.6
		c-0.2-0.3-0.4-0.7-0.4-0.8s-0.1-0.2-0.1-0.3c-0.1,0-0.2-1.3-0.2-2.7c-0.1-3-0.1-3.1,0.9-2.9l0.5,0.1v-3.5c0-3.3-0.1-3.8-0.4-3.8
		C112.5,497.4,112.3,497.7,112.1,498.1 M178.7,500.9c-0.2,0.5-0.2,1.9,0.1,2.1c0.1,0,0.1,0.2,0.1,0.4c0,0.3,0,0.3,0.2,0.2
		c0.3-0.2,0.3-1.1,0.1-2.4C179,500.3,178.9,500.3,178.7,500.9 M180.6,504.9c0,0.7-0.1,2-0.1,2.8s-0.1,1.5-0.1,1.6
		c-0.2,0.3-0.5,8.9-0.3,9.5c0.1,0.3,0.7,0.7,0.8,0.5c0-0.1,0.2-0.1,0.4-0.1c0.2,0,0.6-0.1,0.8-0.2c0.5-0.2,0.9-0.1,0.9,0.3
		c0,0.2,0.1,0.3,0.3,0.1c0.1-0.1,0.6-0.2,1.1-0.3c1.9-0.3,2.4-1.4,1.3-2.4c-0.1-0.1-0.2-0.2-0.2-0.3s-0.2-0.3-0.3-0.6
		c-0.2-0.2-0.3-0.5-0.3-0.6c0-0.1-0.1-0.2-0.2-0.3c-0.2-0.1-0.6-1-0.9-2c-0.1-0.3-0.3-0.7-0.3-0.7c-0.1,0-0.1-0.1-0.1-0.2
		s-0.2-0.6-0.4-1.1c-0.2-0.5-0.4-1.1-0.4-1.4c-0.1-0.3-0.1-0.5-0.2-0.6c-0.1,0-0.2-0.5-0.3-1c-0.1-0.5-0.3-1-0.3-1.1
		c-0.1-0.1-0.2-0.5-0.2-0.8s-0.2-0.7-0.2-0.8c-0.1,0-0.2-0.4-0.3-0.8C180.7,503.4,180.7,503.4,180.6,504.9 M114.4,505.9
		c-0.2,0.2-0.4,0.3-0.3,0.5c0,0.1,0.1,0.6,0.1,1.1c0,1.3,0.3,1.2,0.7-0.2c0.1-0.6,0.3-1.1,0.3-1.2
		C115.5,505.7,114.9,505.6,114.4,505.9 M114.4,509.2l-0.3,0.5l0.3,0.5c0.3,0.5,0.2,1.5-0.1,1.5c-0.1,0-0.4,1.1-0.3,1.3
		c0.1,0.2,0.3,0.2,0.3-0.1c0-0.1,0.1-0.2,0.2-0.3c0.5-0.2,1.1-2.3,0.7-2.3c-0.1,0-0.1-0.1-0.1-0.2s-0.1-0.5-0.2-0.8l-0.2-0.6
		L114.4,509.2 M185.9,519.9c-0.2,0.3,0.6,0.9,1.5,1c0.5,0.1,0.5,0,0.3-0.8c0-0.1-0.2-0.2-0.5-0.2c-0.2,0-0.6-0.1-0.8-0.2
		C186.2,519.7,186,519.8,185.9,519.9"/>
	<path id="path1" class="st15" d="M144.5,372.4c-0.5,0.1-0.8,0.2-0.9,0.4c-0.1,0.1-0.3,0.3-0.3,0.3c-0.1,0-0.9,0.8-0.9,1
		c0,0.1-0.2,0.3-0.3,0.5c-0.2,0.2-0.3,0.6-0.4,0.7c0,0.2-0.1,0.3-0.2,0.3s-0.2,0.2-0.2,0.6c-0.1,0.3-0.2,0.6-0.2,0.6
		c-0.1,0-0.2,0.3-0.3,0.7s-0.2,0.7-0.3,0.7s-0.2,0.3-0.3,0.7c-0.1,0.4-0.3,0.7-0.3,0.7c-0.1,0-0.2,0.3-0.2,0.6
		c-0.1,0.3-0.2,0.6-0.2,0.6s-0.2,0.4-0.3,0.9c-0.1,0.5-0.3,0.9-0.3,0.9s-0.2,0.3-0.3,0.8s-0.2,0.8-0.3,0.9c0,0-0.1,0.2-0.2,0.5
		c-0.1,0.2-0.2,0.7-0.3,1c-0.1,0.3-0.3,0.9-0.4,1.2c-0.1,0.3-0.2,0.7-0.2,0.7s-0.2,0.5-0.3,1c-0.1,0.6-0.3,1.1-0.4,1.2
		c-0.1,0.1-0.2,0.4-0.2,0.7c0,0.3-0.1,0.6-0.2,0.6s-0.2,0.5-0.3,1s-0.3,1-0.3,1c0,0-0.2,0.5-0.3,1c-0.1,0.6-0.3,1-0.3,1
		c-0.1,0-0.1,0.2-0.2,0.5c-0.1,0.3-0.2,0.8-0.3,1.1s-0.3,1-0.4,1.5c-0.1,0.5-0.2,0.9-0.2,0.9c-0.1,0-0.1,0.1-0.1,0.3
		c0,0.5-0.4,2.8-0.5,2.9c-0.1,0-0.2,0.6-0.2,1.2s-0.2,1.2-0.2,1.2c0,0-0.2,0.7-0.3,1.4c-0.1,0.7-0.3,1.4-0.3,1.4
		c-0.1,0-0.2,0.6-0.3,1.3s-0.2,1.3-0.3,1.4s-0.2,0.9-0.2,2s-0.2,1.9-0.2,2c-0.2,0.1-0.5,2.2-0.5,3c0,0.4,0,0.8-0.1,0.8
		c-0.1,0-0.2,0.4-0.2,0.9s-0.2,0.9-0.3,1c-0.2,0.2-0.4,1.5-0.4,3.1c0,0.6-0.1,1-0.1,1c-0.1,0-0.1,0.6-0.2,1.4
		c-0.1,1.4-0.3,2.8-0.5,3c-0.1,0-0.2,0.5-0.2,0.9c-0.1,0.5-0.2,0.9-0.2,0.9c-0.1,0-0.2,0.9-0.3,1.8c-0.1,0.9-0.2,1.8-0.3,1.8
		c0,0-0.2,1.2-0.3,2.4c-0.1,1.3-0.3,2.4-0.3,2.4c0,0-0.2,0.9-0.2,2c-0.1,1-0.2,1.9-0.3,1.9c-0.1,0-0.1,0.2-0.1,0.4
		c0,0.5-0.4,2.4-0.5,2.4c-0.1,0-0.2,0.6-0.3,1.3c-0.1,0.7-0.2,1.2-0.3,1.3c-0.1,0.1-0.4,2-0.3,2c0.1,0.1,1.1-0.2,1.1-0.4
		c0-0.1,0.1-0.1,0.2-0.1c0.2,0,0.2,0.2,0.2,1c0,0.7,0.1,1,0.2,1c0.1,0,0.2,1,0.2,4.1c0,3.8,0.1,5.8,0.3,5.9c0.1,0,0.1,0.5,0.2,1
		l0.1,0.9h-0.8c-0.9,0-1.6,0.2-1.6,0.5c0,0.1-0.1,0.2-0.2,0.3c-0.1,0.1-0.2,0.3-0.2,0.4s-0.1,0.2-0.2,0.3c-0.1,0.1-0.2,0.4-0.4,0.7
		c-0.1,0.3-0.3,0.6-0.3,0.6s-0.2,0.2-0.2,0.5c-0.1,0.2-0.3,0.6-0.4,0.7c-0.1,0.1-0.2,0.5-0.3,0.7c0,0.2-0.1,0.4-0.2,0.4
		s-0.2,0.2-0.3,0.5c-0.1,0.3-0.2,0.5-0.3,0.5s-0.2,0.1-0.2,0.3c0,0.2-0.2,0.5-0.3,0.7c-0.1,0.2-0.2,0.4-0.2,0.5s-0.1,0.3-0.2,0.4
		c-0.1,0.1-0.3,0.5-0.5,0.9c-0.1,0.3-0.3,0.6-0.3,0.6s-0.2,0.2-0.2,0.5c-0.1,0.2-0.2,0.5-0.3,0.6c-0.1,0.1-0.2,0.2-0.2,0.3
		c0,0.1-0.1,0.3-0.2,0.5c-0.1,0.1-0.3,0.5-0.5,0.8c-0.1,0.3-0.3,0.6-0.3,0.6s-0.2,0.2-0.2,0.5c-0.1,0.3-0.2,0.5-0.2,0.5
		c-0.1,0-0.2,0.2-0.3,0.5c-0.1,0.3-0.2,0.5-0.3,0.5s-0.2,0.2-0.2,0.5c-0.1,0.3-0.2,0.5-0.2,0.5c-0.1,0-0.2,0.3-0.3,0.6
		c-0.1,0.3-0.3,0.7-0.5,0.9c-0.1,0.1-0.2,0.5-0.3,0.7c0,0.2-0.1,0.4-0.2,0.4c-0.1,0-0.2,0.2-0.3,0.4c-0.2,0.4-0.2,0.5-1.1,1.6
		c-0.6,0.8-0.9,2.3-0.6,3.3c0.1,0.4-0.1,2.8-0.3,2.9c-0.1,0.1-0.2,0.7-0.3,1.3c-0.1,0.6-0.2,1.2-0.2,1.2s-0.2,0.5-0.2,0.9
		c-0.1,0.5-0.2,0.9-0.3,1c-0.1,0.1-0.2,0.4-0.3,0.8c-0.1,0.3-0.2,0.6-0.2,0.6c-0.1,0-0.2,0.4-0.3,0.8c-0.2,0.5-0.3,0.8-0.3,0.8
		s-0.2,0.3-0.3,0.8c-0.1,0.4-0.2,0.8-0.3,0.8c0,0-0.2,0.2-0.2,0.5c-0.1,0.3-0.2,0.6-0.2,0.6c0,0-0.2,0.4-0.3,0.9s-0.2,0.8-0.3,0.8
		c-0.1,0-0.2,0.3-0.2,0.8c-0.1,0.4-0.2,0.9-0.3,0.9c-0.1,0.1-0.2,0.5-0.3,0.8c-0.1,0.3-0.2,0.7-0.2,0.7c0,0-0.2,0.4-0.3,0.8
		c-0.1,0.5-0.2,0.8-0.3,0.8s-0.2,0.4-0.3,0.9s-0.3,0.9-0.3,0.9c0,0-0.2,0.3-0.2,0.7s-0.2,0.7-0.3,0.8c-0.1,0.1-0.2,0.6-0.3,1
		c-0.1,0.5-0.2,0.8-0.2,0.8c-0.1,0-0.1,0.3-0.2,0.7c-0.1,0.9-0.3,2.1-0.5,2.1c0,0-0.2,0.3-0.2,0.6c-0.1,0.3-0.2,0.6-0.2,0.7
		c-0.1,0.1-0.5,1.4-0.5,1.7c0,0.1-0.1,0.3-0.1,0.3c-0.1,0-0.2,0.2-0.2,0.5l-0.1,0.4l0.8,0c0.7,0,0.9-0.1,0.9-0.3
		c0.1-0.1,0.2-0.3,0.2-0.3c0,0,0.1-0.2,0.2-0.5l0.1-0.4h3.3c2.3,0,3.4,0,3.4-0.1c0.1-0.1,2.5-0.5,3.2-0.5c0.1,0,0.1-0.1,0.1-0.2
		s-0.1-0.2-0.1-0.2c-0.2,0-0.1-0.5,0.2-0.7c0.6-0.3,4.8-0.2,4.7,0.1c0,0.2-0.2,0.3-0.4,0.4c-0.2,0.1-0.3,0.2-0.3,0.3
		c0,0.1-0.2,0.2-0.5,0.3c-0.6,0.2-0.9,1-0.6,1.3c0.2,0.2,2,0.1,2.1-0.1c0-0.1,0.1-0.2,0.2-0.2c0.2,0,1.1-1,1.1-1.3
		c0-0.1,0.2-0.2,0.6-0.1c0.7,0,0.9-0.1,1-0.7c0.1-0.6-0.2-0.9-0.8-0.9c-0.2,0-0.4-0.1-0.4-0.1s-0.1-0.1-0.2-0.1
		c-0.2,0-0.2-0.1-0.1-0.9c0.1-1.1,0.1-1.1,0.4-0.8c0.1,0.1,0.4,0.2,0.6,0.2l0.4,0l0.1-2.9c0-1.6,0-3.3,0-3.8
		c-0.1-0.6-0.1-1.7,0.1-3.5c0.1-1.6,0.1-2.8,0.1-3.1c-0.1-0.2-0.1-0.8-0.1-1.2c0-1-0.1-2.5-0.3-2.5c-0.1,0-0.1-0.5-0.1-1
		c0-0.6,0-1,0.1-1c0.1,0,0.5-1,0.5-1.2c0-0.1-0.2-0.2-0.3-0.2h-0.3l0.4-0.5c0.5-0.5,0.7-0.9,0.8-1.3c0-0.1,0.1-0.2,0.2-0.2
		s0.2-0.2,0.2-0.5c0.1-0.3,0.2-0.5,0.2-0.5s0.2-0.3,0.3-0.7c0.1-0.4,0.3-0.8,0.4-0.8c0.1-0.1,0.2-0.3,0.3-0.6
		c0.1-0.3,0.2-0.5,0.2-0.5c0.1,0,0.2-0.2,0.2-0.6c0.1-0.3,0.2-0.6,0.2-0.6c0.1,0,0.2-0.2,0.3-0.6c0.1-0.3,0.2-0.6,0.3-0.7
		c0.1-0.1,0.2-0.3,0.3-0.6c0.1-0.3,0.2-0.6,0.3-0.7c0.1-0.1,0.2-0.5,0.3-0.8c0.1-0.3,0.2-0.6,0.2-0.6s0.2-0.5,0.3-1.2
		c0.1-0.7,0.3-1.2,0.3-1.2s0.1-0.1,0.1-0.3c0-0.3,0-0.3,0.2,0c0.3,0.3,0.6,1.1,0.6,1.3c0,0.1,0.1,0.2,0.1,0.2c0,0,0.2,0.4,0.3,0.8
		s0.2,0.8,0.2,0.8c0,0,0.2,0.5,0.3,1.1c0.1,0.6,0.3,1.1,0.3,1.1c0,0,0.2,0.5,0.3,1.2c0.1,0.7,0.2,1.2,0.3,1.2c0,0,0.2,0.3,0.2,0.8
		c0.1,0.4,0.2,0.8,0.2,0.8c0,0,0.2,0.4,0.2,0.8s0.2,0.9,0.3,1c0.1,0.1,0.2,0.7,0.3,1.8c0.1,1.8,0.2,2.5,0.4,2.5
		c0.1,0,0.2,0.2,0.2,0.6c0.1,0.6,0.2,0.7,0.7,1.3c0.4,0.5,0.6,0.3,0.6-0.6c0-0.7,0.2-0.8,2.6-0.7l2.2,0l0.5,0.5
		c0.7,0.7,0.8,1,0.9,2.7c0,0.8,0.1,1.6,0.2,1.6c0.1,0.1,0.4,2.5,0.4,3.3c0,0.3,0.1,0.5,0.1,0.5c0.1,0,0.1,0.5,0.1,1
		c0,0.6-0.1,1-0.1,1c-0.1,0-0.3,5-0.2,5.4c0,0.1,0.2,0.3,0.3,0.3c0.4,0.1,0.2,5.3-0.2,5.5c-0.1,0-0.2,0.6-0.2,1.2
		c-0.1,0.6-0.2,1.1-0.2,1.1s-0.1,0.6-0.1,1.3c0,0.7,0.1,1.3,0.1,1.3c0.1,0,0.1,0.1,0.1,0.2c0,0.3-0.2,0.3-0.3,0
		c-0.1-0.3-0.3-0.2-0.3,0.1c0,0.1-0.1,0.3-0.1,0.3c-0.1,0-0.2,0.5-0.2,1.2l-0.1,1.1l0.5-0.1c0.3,0,0.8-0.1,1.1-0.2
		c0.3,0,0.7-0.2,0.9-0.3c0.1-0.1,0.4-0.3,0.5-0.5c0.3-0.3,1-0.6,1.4-0.6c0.2,0,0.3-0.1,0.3-0.1s0.1-0.1,0.2-0.1
		c0.1,0,0.3-0.1,0.3-0.1c0.4-0.4,1.4-0.1,1.4,0.4c0,0.2,0.5,0.4,1,0.4c0.8,0,3.6-0.5,3.6-0.6c0-0.1,0.2-0.1,0.3-0.1
		c0.5,0,0.6-1.3,0.1-2c-0.1-0.2-0.2-0.4-0.2-0.5c0-0.1-0.1-0.3-0.2-0.3c-0.1-0.1-0.3-0.4-0.4-0.7c-0.1-0.3-0.3-0.6-0.4-0.7
		c-0.2-0.2-0.1-0.6,0.2-0.6c0.1,0,0.2-0.1,0.2-0.1s0.1-0.2,0.2-0.2c0.2-0.1,0.3-0.3,0.4-0.7c0.1-0.3,0.2-0.6,0.2-0.6
		c0.1,0,0.1-0.5,0.1-1c0-0.5-0.1-1-0.1-1c-0.1,0-0.2-1-0.3-2.3s-0.2-2.3-0.3-2.3c-0.1,0-0.1-0.1-0.1-0.3c0-0.6-0.4-4.4-0.5-4.4
		c0,0-0.2-0.9-0.2-2s-0.2-1.9-0.2-2c-0.1,0-0.2-1.3-0.3-2.8c-0.2-1.9-0.3-2.8-0.4-2.9c-0.4-0.5-0.2-0.6,0.8-0.5
		c0.6,0.1,1,0.1,1.1,0.2s1,0.2,2.1,0.3c1.1,0.1,2.1,0.2,2.2,0.3c0.1,0.1,0.5,0.1,0.9,0.1c0.4,0,1.2,0.1,1.7,0.1
		c1.3,0.2,1.8,0,2.4-0.7l0.4-0.5l0-2.3c0-2.3,0.2-2.8,0.5-2.2c0.2,0.3,0.6,0.1,0.7-0.2c0.1-0.2,0.2-1.3,0.2-2.4
		c0-1.2,0.1-2.1,0.2-2.1s0.1-0.8,0.1-1.7c0-1.5,0-1.7,0.2-2c0.3-0.3,0.5-0.3,0.6,0.1c0,0.2,0.1,0.3,0.2,0.3c0.1,0,0.2,0.3,0.3,0.7
		c0.1,0.4,0.3,0.7,0.3,0.7c0.1,0,0.2,0.2,0.2,0.6s0.2,0.6,0.2,0.6s0.2,0.3,0.3,0.7c0.1,0.4,0.3,0.7,0.3,0.7c0.1,0,0.2,0.3,0.2,0.6
		c0.1,0.3,0.2,0.6,0.2,0.6s0.2,0.3,0.3,0.7s0.2,0.7,0.3,0.7s0.2,0.3,0.3,0.7c0.1,0.4,0.2,0.7,0.3,0.7c0,0,0.2,0.3,0.2,0.7
		s0.2,0.7,0.2,0.7s0.2,0.4,0.2,0.8s0.2,0.9,0.4,1.1c0.2,0.3,0.5,0.9,0.5,1.1c0,0.1,0.1,0.2,0.1,0.2s0.1,0.7,0.1,2c0,1.2-0.1,2-0.1,2
		s-0.1,0.7-0.1,1.7s0.1,1.7,0.1,1.7s0.1,0.6,0.1,1.4c0,0.8-0.1,1.4-0.1,1.4s-0.1,0.2-0.1,0.5c0,0.3,0.1,0.5,0.2,0.5
		c0.2,0,0.2,1.8-0.1,1.9c-0.5,0.3-0.6,17.5-0.2,17.5c0.1,0,0.3-0.1,0.4-0.2c0.1-0.1,0.3-0.3,0.6-0.3c0.3-0.1,0.4-0.2,0.4-0.6
		c0-1.2,0.2-1.9,0.4-1.9c0.1,0,0.2,0.1,0.2,0.1s0.2,0.2,0.6,0.2c0.3,0.1,0.6,0.1,0.7,0.2c0.1,0,0.2,0,0.2-0.2c0-0.4,0.2-0.4,0.3,0
		c0.1,0.2,0.2,0.2,0.3,0.2c0.7-0.3,3.5-0.1,3.9,0.3c0.1,0.1,0.2,0.2,0.3,0.2c0.2,0,0.7,0.3,1,0.7c0.4,0.4,0.5,0.4,0.5,0
		c0-0.2,0.1-0.3,0.1-0.3c0.1,0,0.2-0.1,0.2-0.3c0.1-0.2,0.3-0.3,0.6-0.4c0.3-0.1,0.6-0.2,0.8-0.4c0.3-0.3,2-0.3,2.2,0
		c0,0.1,0.9,0.2,2,0.3c1.1,0.1,1.9,0.3,1.9,0.4s0.4,0.1,0.8,0.1h0.8v-0.7c0-0.3-0.1-0.6-0.1-0.6s-0.1-0.1-0.1-0.3s-0.1-0.3-0.1-0.3
		c-0.2-0.2-0.1-0.6,0.2-0.7c0.4-0.1,0.4-0.4,0-0.7c-0.2-0.1-0.3-0.3-0.3-0.5c0-0.1-0.1-0.2-0.2-0.3c-0.1,0-0.3-0.5-0.4-0.9
		c-0.1-0.5-0.3-0.8-0.3-0.8s-0.2-0.2-0.2-0.5c-0.1-0.3-0.2-0.5-0.2-0.5s-0.2-0.4-0.3-0.8c-0.1-0.5-0.2-0.8-0.3-0.8
		c0,0-0.2-0.3-0.3-0.7c-0.1-0.3-0.2-0.7-0.3-0.7c0,0-0.2-0.3-0.2-0.6c-0.1-0.3-0.2-0.6-0.3-0.6c-0.1-0.1-0.2-0.4-0.3-0.8
		c-0.1-0.3-0.2-0.6-0.2-0.7c-0.1-0.1-0.5-1.3-0.5-1.6c0-0.1-0.1-0.2-0.1-0.2s-0.2-0.2-0.3-0.5c-0.1-0.3-0.2-0.6-0.3-0.7
		c-0.1-0.1-0.2-0.3-0.2-0.3s-0.2-0.4-0.4-0.7c-0.2-0.3-0.4-0.6-0.4-0.7c0-0.1-0.1-0.2-0.2-0.2c-0.1,0-0.2-0.3-0.3-0.8
		c0-0.4-0.1-0.7-0.2-0.7c0,0-0.2-0.5-0.3-1.2c-0.1-0.7-0.3-1.2-0.3-1.2c-0.2,0-0.5-2.5-0.5-3.8l0.1-1.3l-0.4-0.1
		c-0.4-0.1-0.8-0.5-0.8-0.8c0-0.1-0.1-0.1-0.1-0.1c-0.1,0-0.1-0.2-0.1-0.4c0-0.2,0.1-0.4,0.1-0.4c0.1,0,0.1-0.9,0.1-2.3
		c0-1.3-0.1-2.3-0.1-2.3c-0.1,0-0.2-0.1-0.2-0.3c-0.1-0.2-0.2-0.5-0.4-0.7c-0.6-0.8-1-1.3-1-1.5c0-0.1-0.1-0.2-0.1-0.2
		s-0.2-0.3-0.3-0.8s-0.2-0.8-0.3-0.8s-0.2-0.2-0.2-0.5c0-0.3-0.2-0.6-0.2-0.7c-0.1-0.1-0.2-0.5-0.4-1c-0.1-0.5-0.3-0.8-0.3-0.8
		c-0.1,0-0.2-0.2-0.2-0.5c-0.1-0.3-0.2-0.5-0.2-0.5s-0.2-0.4-0.3-0.8s-0.3-0.9-0.4-0.9s-0.2-0.3-0.3-0.6c-0.1-0.3-0.2-0.6-0.2-0.6
		c-0.1,0-0.2-0.2-0.2-0.5s-0.2-0.5-0.2-0.5s-0.2-0.4-0.3-0.8s-0.3-0.8-0.3-0.8s-0.2-0.3-0.3-0.7s-0.3-0.7-0.3-0.7
		c-0.1,0-0.2-0.2-0.2-0.6c-0.2-0.6-0.5-0.8-0.9-0.7c-0.2,0.1-0.2,0-0.3-0.6c-0.1-0.6-0.2-0.8-0.9-1.7c-1.5-1.7-1.7-2.1-1.7-2.2
		c0-0.1-0.1-0.2-0.2-0.3c-0.1-0.1-0.3-0.4-0.4-0.7c-0.2-0.5-0.6-1-1.4-1.9c-0.3-0.3-0.5-0.5-0.8-0.5c-0.9,0-0.9,0.2-0.6-4.7
		c0.1-2.4,0.2-4.8,0.2-5.3s0.1-0.9,0.1-0.9s0.1-0.2,0.1-0.6c0-0.6,0.2-2,0.4-2.1c0,0,0.2-0.3,0.3-0.6c0.1-0.3,0.3-0.5,0.4-0.6
		c0.2-0.1,0.2-2.6,0-2.7c-0.1,0-0.2-0.8-0.3-1.7c-0.1-0.9-0.2-1.6-0.3-1.6s-0.2-0.6-0.2-1.3c-0.1-0.7-0.2-1.3-0.2-1.3
		s-0.2-0.7-0.3-1.6c-0.1-0.9-0.2-1.7-0.3-1.7s-0.2-0.6-0.2-1.3c-0.1-0.7-0.2-1.3-0.2-1.3c0,0-0.2-1-0.3-2.1
		c-0.1-1.1-0.3-2.1-0.3-2.1c0,0-0.2-0.9-0.3-2.1c-0.1-1.1-0.2-2.1-0.3-2.1c0,0-0.2-0.6-0.2-1.3c-0.1-0.7-0.2-1.3-0.3-1.3
		c-0.1,0-0.1-0.2-0.1-0.3c0-0.5-0.4-2.7-0.5-2.8c-0.1-0.1-0.5-2.4-0.5-3c0-0.2-0.1-0.5-0.1-0.5c-0.1,0-0.2-0.8-0.2-1.8
		c-0.1-1-0.2-1.9-0.2-1.9c-0.1,0-0.2-0.7-0.3-1.5c-0.1-0.8-0.3-1.4-0.3-1.4c0,0-0.2-0.5-0.3-1.1c-0.1-0.6-0.2-1.1-0.3-1.1
		c-0.1,0-0.2-0.4-0.2-0.8s-0.2-0.8-0.2-0.8c-0.2,0-0.2-0.8-0.3-3c-0.1-1.3-0.2-2.1-0.2-2.1c-0.1,0-0.2-0.5-0.3-1.1
		c-0.1-0.6-0.2-1-0.3-1c0,0-0.2-0.3-0.2-0.8c-0.1-0.4-0.2-0.8-0.2-0.8c0,0-0.2-0.4-0.2-0.8c-0.1-0.5-0.2-0.9-0.3-0.9
		c-0.1,0-0.2-0.3-0.4-0.7c-0.1-0.3-0.3-0.6-0.3-0.6s-0.2-0.2-0.2-0.5c-0.1-0.3-0.2-0.6-0.3-0.7c-0.1-0.1-0.2-0.6-0.3-1
		c-0.1-0.5-0.2-0.8-0.2-0.8s-0.2-0.5-0.3-1.1s-0.2-1.1-0.3-1.1s-0.2-0.4-0.2-0.9c-0.1-0.5-0.2-0.9-0.2-0.9c0,0-0.2-0.5-0.3-1
		s-0.3-1-0.3-1s-0.2-0.6-0.3-1.2s-0.3-1.2-0.4-1.3c-0.1-0.1-0.2-0.4-0.2-0.7c-0.1-0.3-0.2-0.6-0.2-0.7c-0.1-0.1-0.2-0.5-0.3-0.9
		c-0.1-0.4-0.2-0.8-0.2-0.8c-0.1,0-0.2-0.3-0.2-0.7c-0.1-0.4-0.2-0.7-0.2-0.7c-0.1,0-0.2-0.5-0.3-1s-0.3-1-0.3-1s-0.2-0.5-0.3-1
		c-0.1-0.5-0.3-1-0.3-1c-0.1,0-0.2-0.2-0.2-0.5c-0.1-0.3-0.2-0.5-0.2-0.5c-0.1,0-0.1-0.1-0.1-0.2c0-0.3-1.3-1.6-1.6-1.6
		c-0.1,0-0.2-0.1-0.2-0.2c0-0.1-2.1-0.6-2.3-0.5C145.2,372.3,144.9,372.3,144.5,372.4 M147,373.8c0.6,0.4,1.2,1.3,1.2,1.6
		c0,0.1,0.2,0.5,0.4,0.7c0.2,0.3,0.4,0.6,0.4,0.7s0.1,0.3,0.2,0.4c0.1,0.1,0.2,0.2,0.2,0.3c0,0.1,0.1,0.3,0.3,0.5
		c0.2,0.2,0.4,0.8,0.5,1.3c0.1,0.5,0.2,1,0.3,1c0.1,0,0.2,0.6,0.3,1.3c0.1,0.7,0.2,1.2,0.2,1.2c0.1,0,0.2,0.3,0.2,0.6
		c0.1,0.3,0.2,0.7,0.4,0.7c0.2,0.1,0.3,0.3,0.3,0.6c0,0.3,0.1,0.5,0.2,0.6c0.1,0.1,0.2,0.2,0.2,0.4c0,0.1,0.1,0.3,0.1,0.3
		c0.1,0,0.1,0.4,0.1,0.7c0,0.5,0.1,0.8,0.3,1.1c0.2,0.2,0.3,0.5,0.3,0.6s0.1,0.2,0.1,0.2c0.1,0,0.2,0.7,0.3,2.7
		c0,0.7,0.1,1.3,0.2,1.4s0.1,0.3,0.1,0.5c0,0.2,0.1,0.3,0.1,0.4c0.1,0,0.1,0,0.1-0.1c0-0.2,0-0.2,0.2-0.1c0.1,0.1,0.2,0.2,0.2,0.3
		c0,0.1,0.2,0.5,0.4,1c0.5,1.1,0.3,1.7-0.4,1.7c-0.1,0-0.2,0.1-0.3,0.2c-0.1,0.2-0.3,0.2-1,0.2c-0.5,0-1.2,0.1-1.6,0.1
		c-2,0.4-2.9,0.3-3.2-0.3c-0.2-0.4-1.1-0.3-1.2,0.1c0,0.1-0.2,0.5-0.3,0.7l-0.2,0.4l-0.3-0.4c-0.3-0.3-0.3-0.4-0.6-0.3
		c-0.2,0.1-0.3,0.1-0.4,0c-0.1-0.1-0.3-0.1-0.9,0c-1.5,0.3-4,0.1-5-0.4c-0.1-0.1-0.6-0.2-1-0.3c-0.4-0.1-0.8-0.2-0.9-0.2
		s-0.5-0.2-0.9-0.3c-0.8-0.2-1.1-0.9-0.6-1.6c0.1-0.2,0.2-0.6,0.3-1c0.1-0.4,0.2-0.9,0.4-1.2c0.1-0.2,0.2-0.6,0.2-0.7
		s0.1-0.3,0.2-0.5c0.1-0.1,0.2-0.4,0.2-0.5c0-0.1,0.2-0.6,0.4-1c0.2-0.5,0.4-1.1,0.5-1.6c0-0.5,0.2-0.9,0.2-1
		c0.2-0.2,0.4-0.8,0.7-1.3c0.1-0.2,0.2-0.8,0.2-1.3c0-0.6,0.1-1,0.2-1.2c0.1-0.1,0.3-0.7,0.3-1.2c0.1-0.5,0.3-1.2,0.4-1.5
		c0.2-0.3,0.3-0.8,0.4-0.9c0.1-0.2,0.3-0.6,0.5-0.9c0.3-0.3,0.4-0.7,0.4-0.9c0-0.2,0-0.5,0.1-0.5c0.2-0.1,0.5-0.9,0.5-1.2
		c0-0.1,0.1-0.4,0.2-0.6c0.1-0.2,0.2-0.6,0.3-0.8c0.1-0.2,0.2-0.4,0.3-0.3c0.1,0,0.2,0,0.3-0.1c0.1-0.1,0.2-0.2,0.3-0.2
		c0.1,0,0.4-0.1,0.7-0.3C145.3,373.3,146.2,373.3,147,373.8 M149.6,386.1c-0.1,1,0,2.1,0.2,2.4c0.1,0.2,0.5,2.2,0.5,2.8
		c0,0.2,0.1,0.5,0.1,0.6c0.1,0.1,0.1,0.4,0.1,0.7c0,0.9,0.2,3,0.4,3.2c0.1,0.1,0.2,0.5,0.2,0.8c0.1,0.7,0.5,0.9,0.9,0.5
		c0.1-0.1,0.3-0.1,0.5-0.2c0.4,0,0.4,0,0.2-0.5c-0.1-0.2-0.2-0.9-0.2-1.4c-0.1-1.1-0.3-2.3-0.5-2.5c-0.2-0.2-0.1-0.6,0.1-0.7
		c0.2-0.1,0.2-0.2,0-0.5c-0.1-0.2-0.2-0.6-0.2-0.9c0-0.3-0.1-0.7-0.4-1.1c-0.3-0.5-0.4-0.7-0.4-1.4c0-0.6-0.1-0.8-0.2-0.9
		c-0.1,0-0.2-0.1-0.2-0.2s-0.1-0.3-0.3-0.6c-0.2-0.2-0.4-0.6-0.4-0.8C149.8,384.8,149.7,385,149.6,386.1 M136,397.1
		c0.2,0.2,0.5,0.4,0.6,0.4s0.3,0.1,0.6,0.3c0.2,0.1,0.8,0.3,1.3,0.5s0.9,0.2,0.9,0.3s0.2,0.1,0.3,0.1s0.6,0.1,0.8,0.2l0.5,0.2
		l-0.1,1.2c0,0.6-0.1,1.3-0.2,1.3c-0.1,0.1-0.2,0.6-0.3,1.2c-0.1,0.6-0.2,1.1-0.2,1.1c-0.1,0.1-0.2,1.2-0.5,2.8
		c0,0.3-0.1,0.5-0.2,0.6c0,0-0.2,0.8-0.3,1.7s-0.3,1.7-0.3,1.8c-0.1,0.1-0.2,0.6-0.2,1.2c-0.1,0.6-0.2,1.2-0.2,1.3
		c-0.1,0.1-0.2,0.9-0.3,1.7c-0.1,0.8-0.2,1.6-0.3,1.7s-0.2,1.2-0.3,2.4l-0.2,2.1l-0.4,0c-0.2,0-0.5,0-0.7-0.1
		c-0.2-0.1-0.8-0.2-1.5-0.4c-0.7-0.1-1.3-0.3-1.5-0.3c-0.1-0.1-0.6-0.2-0.9-0.3s-0.8-0.3-1-0.4l-0.3-0.3l0.2-2
		c0.1-1.1,0.3-2.1,0.3-2.1c0.1-0.1,0.1-0.5,0.2-0.9c0.1-1,0.3-2.2,0.5-2.6c0.1-0.1,0.2-0.7,0.2-1.1c0.1-0.5,0.2-1,0.2-1.1
		c0.1-0.1,0.2-0.8,0.3-1.4c0.1-0.6,0.2-1.3,0.3-1.4c0.1-0.1,0.2-0.8,0.3-1.5c0.1-0.7,0.2-1.3,0.3-1.3s0.2-0.6,0.2-1.2
		c0.1-0.6,0.2-1.1,0.2-1.2c0.1-0.1,0.2-0.9,0.3-2s0.3-1.9,0.3-2s0.1-0.3,0.1-0.5C135.1,396.5,135.3,396.5,136,397.1 M155.9,397.8
		c0,0.3,0.1,0.6,0.2,0.7c0.1,0.1,0.2,0.6,0.2,1.1c0.1,0.5,0.2,1,0.2,1.1c0.1,0.1,0.2,0.7,0.3,1.3c0.1,0.7,0.2,1.3,0.3,1.5
		c0.1,0.1,0.2,0.8,0.3,1.5c0.1,0.7,0.2,1.3,0.3,1.3c0.1,0.1,0.2,0.6,0.2,1s0.2,1.1,0.3,1.3c0.1,0.2,0.2,0.9,0.3,1.4
		c0.1,0.5,0.2,1,0.2,1.1c0.1,0.1,0.2,0.7,0.3,1.4c0.1,0.7,0.2,1.3,0.3,1.4c0.1,0.1,0.2,0.6,0.2,1.1s0.2,1,0.2,1s0.2,0.7,0.3,1.4
		c0.1,0.7,0.3,1.4,0.3,1.5c0.1,0.2,0.4,1.5,0.3,1.6c-0.2,0.2-2.8,0.1-3-0.2c-0.3-0.3-0.6-0.4-1.1-0.1c-1.7,0.9-2.2,0.7-2.2-0.9
		c0-0.7-0.1-1.3-0.2-1.4c-0.1-0.1-0.2-0.6-0.3-1c-0.1-0.5-0.2-0.9-0.3-1c-0.2-0.2-0.2-1,0-1.1c0.2-0.1,0.2-1.3-0.1-1.7
		c-0.1-0.2-0.2-0.5-0.2-0.6c0-0.1-0.1-0.3-0.2-0.5c-0.4-0.6-0.6-2.5-0.5-3.6c0.2-1,0.1-2.3-0.2-3.1c-0.1-0.1-0.2-0.9-0.2-1.6
		c-0.1-0.7-0.2-1.4-0.2-1.5c-0.1-0.1-0.2-0.7-0.3-1.4c-0.1-0.7-0.3-1.3-0.3-1.4c-0.2-0.1-0.1-0.9,0.1-0.9c0.1,0,0.3-0.1,0.3-0.1
		c0.1-0.1,0.4-0.2,0.8-0.3c0.4-0.1,0.8-0.3,1-0.4c0.2-0.1,0.6-0.2,1-0.3c0.4-0.1,0.7-0.2,0.7-0.3
		C155.6,396.8,155.8,397.2,155.9,397.8 M150,398.8c0.1,0,0.2,0.2,0.2,0.3s0.1,0.2,0.1,0.2c0.1,0,0.2,1.2,0.3,2.6
		c0.1,1.4,0.2,2.7,0.3,2.8c0.1,0.1,0.1,0.5,0.1,0.7c0,0.6,0.4,3.2,0.5,3.6c0.1,0.1,0.2,0.8,0.2,1.5c0.1,0.7,0.2,1.3,0.2,1.3
		c0.1,0.1,0.2,0.9,0.3,1.7c0.1,0.9,0.3,1.7,0.3,1.7s0.1,0.7,0.1,1.4c0,1.2,0.2,2.1,0.6,2.4c0.3,0.2,0.2,1.6-0.1,2l-0.3,0.3l-2.5-0.1
		c-1.3-0.1-2.5-0.1-2.6-0.2c-0.1-0.1-0.5-0.1-1-0.1H146l-0.1-0.7c-0.2-1.8,0-3.1,0.5-3.7c0.5-0.6,0.4-2-0.2-2.9
		c-0.1-0.1-0.1-1.4-0.1-3.9c0-2.4,0-4.6-0.2-6.1c-0.1-1.3-0.2-2.8-0.2-3.2v-0.8l1.3-0.2c0.7-0.1,1.4-0.3,1.4-0.3
		c0.1-0.1,0.3-0.1,0.6-0.2c0.2,0,0.5-0.1,0.5-0.1C149.7,398.7,149.9,398.8,150,398.8 M144.1,399.4c0.6,0.1,0.9,0.5,0.5,0.8
		c-0.1,0-0.1,0.7-0.1,1.6c0,0.9,0.1,1.5,0.1,1.5c0.2,0,0.2,2.7,0,2.9c-0.2,0.2-0.2,10.4,0,10.6c0.2,0.2,0.2,3.5,0,3.6
		c-0.1,0-0.2,0.2-0.2,0.5c-0.1,0.6-0.3,0.6-3.6,0.6h-2.8l0.1-1c0.1-0.6,0.1-1.1,0.2-1.2s0.2-1,0.3-2s0.2-2,0.3-2
		c0.1-0.1,0.2-0.6,0.2-1.2s0.2-1.1,0.2-1.1c0.1-0.1,0.4-1.7,0.5-2.7c0-0.3,0.1-0.5,0.2-0.5s0.2-0.6,0.2-1.2c0.1-0.7,0.2-1.3,0.2-1.3
		c0.1-0.1,0.3-1.7,0.5-2.9c0-0.6,0.1-1.1,0.2-1.2s0.1-0.7,0.2-1.3c0-0.7,0.1-1.5,0.2-1.8l0.1-0.7h0.9
		C143.1,399.3,143.8,399.3,144.1,399.4 M132.7,421.1c0.1,0.1,0.4,0.2,0.7,0.2c0.4,0.1,0.7,0.2,0.9,0.5l0.3,0.3l-0.1,1.9
		c-0.1,1-0.2,1.9-0.2,2s-0.1,0.4-0.1,0.8c0,0.9-0.4,4.5-0.5,4.6c0,0-0.2,0.7-0.2,1.6c-0.1,0.8-0.2,1.5-0.2,1.5
		c-0.1,0-0.3,1.8-0.4,3.5c0,0.6-0.1,1.2-0.2,1.2s-0.1,0.2-0.1,0.6c0,0.9-0.4,4.6-0.5,5c-0.1,0.1-0.2,0.8-0.2,1.5
		c-0.1,0.7-0.2,1.4-0.3,1.6l-0.2,0.4h-2.5c-2.1,0-2.6,0-2.8-0.2c-0.3-0.2-0.4-0.7-0.2-0.8c0.1,0,0.2-0.4,0.3-0.8
		c0.1-0.4,0.2-0.7,0.2-0.7c0.1,0,0.2-0.3,0.3-0.8c0.1-0.5,0.2-0.9,0.3-0.9s0.2-0.8,0.3-1.5c0.1-0.8,0.2-1.5,0.3-1.7
		c0.1-0.3,0.4-3.1,0.4-4.2c0-0.3,0.1-0.7,0.1-0.7c0.1,0,0.2-0.4,0.2-0.9c0.1-1.5,0.3-3,0.5-3c0.1,0,0.2-0.6,0.2-1.4
		c0.1-0.7,0.2-1.4,0.2-1.5c0.1-0.1,0.2-0.9,0.3-1.8s0.2-1.8,0.3-2s0.2-1,0.3-1.8c0.3-2.4,0.4-2.7,1.6-2.5
		C132.2,420.9,132.6,421,132.7,421.1 M157.6,421.9c0,0.2,0.1,0.4,0.1,0.5c0.1,0,0.2,0.6,0.3,1.2c0.1,0.6,0.2,1.2,0.2,1.2
		c0.1,0.1,0.2,0.7,0.3,1.4c0.1,0.7,0.2,1.4,0.3,1.5c0.1,0.3,0.5,2.7,0.5,3.2c0,0.2,0,0.3,0.1,0.3c0.1,0,0.2,0.6,0.3,1.4
		c0.1,0.8,0.2,1.5,0.3,1.6c0.1,0.2,0.5,3.5,0.5,4.2c0,0.2,0.1,0.6,0.1,0.7c0.3,0.7,0.7,9.3,0.4,10.3c-0.2,0.7-2.2,1.3-2.8,0.8
		c-0.1-0.1-0.4-0.2-0.7-0.3c-1-0.3-1.1-0.4-1-1.3c0.1-0.9-0.1-0.9-0.4-0.1c-0.3,0.7-0.6,0.6-0.6-0.1c0-0.3,0-0.6-0.1-0.6
		c-0.1,0-0.2-0.7-0.2-1.5s-0.2-1.6-0.3-1.8c-0.1-0.3-0.3-1.3-0.5-2.5c0-0.4-0.1-0.8-0.2-0.8c-0.1-0.1-0.2-0.8-0.3-1.6
		c-0.1-0.8-0.2-1.5-0.3-1.5c-0.2,0-0.1-0.5,0.3-1.3c0.2-0.4,0.5-1,0.6-1.4s0.3-0.6,0.3-0.6c0.1,0,0.2-0.3,0.2-0.7
		c0.1-0.3,0.2-0.8,0.3-0.9c0.4-0.9,0.4-4.6-0.1-5.5c-0.1-0.2-0.2-0.5-0.2-0.8c-0.1-0.3-0.1-0.5-0.2-0.5s-0.1-0.1-0.1-0.2
		c0-0.2-0.3-0.8-0.6-1.3c-0.1-0.1-0.6-0.8-1.3-1.5c-1.4-1.6-1.4-1.5,0.1-1.6c0.7-0.1,1.3-0.1,1.4-0.2c0.2-0.1,2.9-0.4,3-0.3
		C157.6,421.5,157.6,421.7,157.6,421.9 M161.1,421.9c0.2,0.2,0.3,0.6,0.4,1.5c0.1,0.6,0.2,1.3,0.2,1.4c0.1,0.1,0.2,1.4,0.3,2.8
		c0.1,1.4,0.2,2.7,0.3,2.7c0.1,0.1,0.2,1,0.3,2c0.1,1,0.2,1.9,0.3,2c0.1,0.1,0.2,0.7,0.2,1.5c0.1,0.7,0.2,1.4,0.2,1.5
		s0.2,0.9,0.3,1.9c0.1,1,0.2,1.8,0.3,1.8c0.1,0,0.2,0.7,0.3,1.5c0.1,0.8,0.2,1.5,0.3,1.5s0.2,0.6,0.2,1.2s0.2,1.1,0.2,1.2
		s0.2,0.8,0.3,1.6c0.1,0.8,0.2,1.5,0.3,1.5s0.1,0.1,0.1,0.3c0,0.1-0.1,0.3-0.1,0.3s-0.1,0.1-0.1,0.2c0,0.4-2.9,0.5-3,0.1
		c0-0.1-0.2-0.2-0.3-0.2c-0.1,0-0.3-0.1-0.4-0.2c-0.3-0.3-0.1-0.5,0.7-0.5h0.6l0-0.7c0-0.4-0.1-0.8-0.2-0.9
		c-0.2-0.3-0.4-2.3-0.4-5.7c0-2.1-0.1-3.5-0.2-3.6c-0.1-0.1-0.1-0.3-0.1-0.6c0-0.5-0.2-1.6-0.4-2.1c-0.1-0.1-0.2-0.8-0.3-1.4
		c-0.1-0.6-0.2-1.2-0.3-1.3s-0.2-0.9-0.3-1.8c-0.1-0.9-0.3-1.8-0.4-2.1c-0.1-0.2-0.2-0.7-0.2-1c-0.1-0.3-0.1-0.7-0.2-0.8
		c-0.1-0.1-0.2-0.7-0.3-1.3s-0.2-1.2-0.3-1.3s-0.2-0.7-0.3-1.3c-0.1-0.5-0.3-1.1-0.4-1.3c-0.4-0.8-0.3-0.9,0.9-0.8
		C160.6,421.5,160.9,421.6,161.1,421.9 M136.6,422.1c0.3,0.1,0.3,0.1,0.4,0.8l0,0.7l0.3-0.7c0.3-0.7,0.3-0.7,0.9-0.7
		c0.9,0,1,0.2,0.5,1.1c-0.6,0.9-1,1.8-1.2,2.7c-0.1,0.3-0.2,0.7-0.3,0.7c-0.5,0.4-0.5,5.5,0.1,6.8c0.1,0.2,0.2,0.6,0.2,0.7
		c0,0.1,0.1,0.4,0.2,0.6c0.1,0.2,0.3,0.6,0.5,0.9c0.2,0.3,0.6,1.1,1.2,1.7c1.2,1.4,1.3,1.6,1.1,4.2c-0.1,1-0.2,1.9-0.2,2
		c-0.2,0.5-0.4,4.1-0.3,5.5l0.1,1.4l-0.4-0.1c-0.2,0-0.4-0.1-0.4-0.2s-0.3-0.2-0.7-0.3c-0.4-0.1-0.7-0.2-0.7-0.3s-0.5-0.2-1-0.4
		l-1-0.3l0-0.6c0-0.7-0.3-0.9-0.4-0.3c0,0.5-0.6,0.7-0.9,0.4c-0.2-0.2-0.2-1.8-0.1-2c0.2-0.2,0.4-3.1,0.4-5.8c0-1.4,0.1-2.6,0.2-2.7
		c0.2-0.2,0.4-4.2,0.5-9c0-2.3,0.1-4.3,0.2-4.3s0.1-0.7,0.1-1.5c0-1.4,0-1.4,0.3-1.3C136.1,422,136.4,422.1,136.6,422.1
		 M148.3,422.7c0.3,0.1,0.5,0.2,0.5,0.3s0.4,0.2,0.9,0.3c2.7,0.7,4.2,2.7,4.2,5.3c0,0.7-0.1,1.3-0.2,1.4c-0.1,0.1-0.1,0.4-0.1,0.7
		c0,0.3,0,0.8-0.1,1.1l-0.1,0.5l-0.2-0.4c-0.1-0.2-0.3-0.7-0.4-1c-0.1-0.3-0.2-0.6-0.2-0.6c0,0-0.2-0.2-0.2-0.5s-0.3-0.8-0.4-1.2
		c-0.6-1.3-0.5-1.6,0.1-1c0.6,0.6,0.9,0,0.4-0.9c-0.3-0.6-0.8-0.9-1.3-0.9c-0.2,0-0.3-0.1-0.4-0.1c0-0.1-0.2-0.1-0.3-0.1
		s-0.3-0.2-0.5-0.3c-0.7-0.8-1.8-1.3-2-0.9c0,0.1-0.5,0.1-0.9,0.1c-1.5,0-4,0.5-4,0.7c0,0.1-0.2,0.6-0.6,1.1c-0.4,0.5-0.6,0.9-0.6,1
		c0,0.1,0,0.2-0.1,0.2c-0.2,0.1-0.9,1.4-0.9,1.9c-0.1,0.3-0.2,0.6-0.2,0.6s-0.2,0.8-0.2,1.6c-0.1,1.7-0.2,1.8-0.4,1.4
		c-0.5-0.9-1.5-2.1-1.6-2.1c-0.1,0-0.1,0.1,0,0.2c0.1,0.1,0.2,0.6,0.3,1.2c0.1,0.6,0.2,1.1,0.2,1.2c0.2,0.3,0.2,0.9,0,1
		c-1.1,0.3-1.8-5-1-6.8c0.1-0.2,0.2-0.5,0.2-0.6s0.2-0.3,0.3-0.6c0.2-0.3,0.4-0.6,0.4-0.8c0.1-0.2,0.2-0.3,0.2-0.3
		c0.1,0,0.3-0.2,0.5-0.4c0.2-0.2,0.4-0.3,0.5-0.3c0.2,0.1,0.3,0.7,0.1,0.7c-0.1,0-0.1,0.2-0.1,0.4c0,0.6,0.2,0.5,0.6-0.3
		c0.3-0.8,2.3-2.2,3.1-2.2c0.2,0,0.3-0.1,0.3-0.1c0.1-0.1,1.8-0.4,2.8-0.4c0.3,0,0.7-0.1,0.7-0.1c0.1-0.1,0.1-0.1,0.2,0
		C147.7,422.5,148,422.6,148.3,422.7 M146.1,426.1c0.2,0.1,0.8,0.3,1.3,0.5c0.5,0.1,0.9,0.3,0.9,0.3c0,0.1,0.1,0.1,0.2,0.1
		c0.8,0,2.5,1.6,2.8,2.6c0.1,0.3,0.2,0.6,0.3,0.7c0.3,0.4,0.2,4.6-0.1,5.3c-0.3,0.6-0.9,1.5-1.1,1.5c-0.1,0-0.2,0.1-0.3,0.2
		s-0.5,0.5-1,0.7c-0.5,0.2-0.9,0.5-1.1,0.6c-0.1,0.1-0.9,0.2-1.7,0.2l-1.4,0.1l-0.6-0.5c-1.6-1.5-2.5-3.7-2.5-5.7
		c0-0.3-0.1-0.7-0.2-0.8c-0.1-0.1-0.1-0.2,0-0.4c0.1-0.1,0.2-0.7,0.2-1.2C142.2,427.5,144.5,425.2,146.1,426.1 M153.4,438.6
		c0,0.2-0.1,0.5-0.2,0.6c-0.2,0.2-0.2,4.2,0,4.7c0.1,0.2,0.2,0.9,0.3,1.7c0.1,0.8,0.2,1.5,0.2,1.5c0.1,0.1,0.1,0.7,0.2,1.5
		c0,0.7,0.1,1.6,0.2,2l0.1,0.7l-0.4-0.3c-0.2-0.1-0.6-0.3-0.9-0.5c-0.3-0.1-0.5-0.2-0.6-0.3c0,0-0.8-0.2-1.7-0.3
		c-2.2-0.2-2.4-0.3-2.4-1.5c0-0.2-0.1-0.5-0.1-0.6s-0.2-0.8-0.3-1.7c-0.1-0.9-0.2-1.7-0.3-1.9c-0.2-0.4-0.4-2.4-0.3-2.7
		c0.1-0.1,0.2-0.2,0.7-0.2c0.3,0,0.6-0.1,0.7-0.1c0.1-0.1,0.4-0.2,0.9-0.3c1.2-0.3,2.4-1.1,3.3-2.2
		C153.3,438.1,153.4,438.1,153.4,438.6 M141.8,440c0.2,0.1,0.7,0.3,1.2,0.4c0.5,0.1,0.8,0.2,0.8,0.3c0,0.1,0.4,0.2,0.9,0.3
		c1,0.3,1.2,0.7,1.2,2.2c0,1.1,0.4,4.8,0.5,5c0.1,0,0.1,0.5,0.2,0.9c0.1,1.3,0.2,1.3-2.9,1.3l-2.5,0l0-0.7c0-0.7,0.2-1,0.5-0.7
		c0.1,0.1,0.2,0.1,0.2,0c0.1-0.1,0.1-0.2,0-0.2c-0.6-0.3-0.5,0-0.6-4.7c0-2.4,0-4.4,0-4.4C141.4,439.7,141.6,439.9,141.8,440
		 M131.1,449c0.9,0.7,1.1,1,1.1,2.3c0,0.9-0.1,1.2-0.2,1.3c-0.2,0.1-0.2,3.6,0,4c0.1,0.2,0.5,9.3,0.5,11c0,0.4,0.1,0.8,0.1,0.8
		c0.1,0,0.1,0.4,0.1,0.8s0.1,1.2,0.2,1.7c0.2,1.2,0.2,1.2-1.5,1.2c-1.7,0-2-0.1-2.1-0.8c0-0.3-0.1-0.7-0.2-0.8
		c-0.1-0.1-0.2-1.2-0.2-2.4c-0.1-1.2-0.2-2.2-0.2-2.4c-0.1-0.3-0.5-3.6-0.5-4.4c0-0.3-0.1-0.6-0.1-0.7c-0.1-0.1-0.2-2.2-0.3-4.7
		c-0.1-2.5-0.2-4.6-0.2-4.6c-0.2,0-0.1-2.3,0.1-2.5C127.9,448.5,130.6,448.7,131.1,449 M134.9,449.6c0.2,0.1,0.7,0.3,1.1,0.4
		c0.4,0.1,0.8,0.3,0.9,0.3c0.1,0.1,0.3,0.1,0.5,0.2c0.4,0.1,0.4,0.2,0.1,1c-0.1,0.2,0.1,0.3,0.3,0.1c0.4-0.7,1.4-1,1.7-0.6
		c0.3,0.3,0.3,13,0.1,13.4c-0.1,0.1-0.2,1.4-0.2,3.9l0,3.7h-0.5c-0.5,0-0.5,0-0.6-0.5c-0.3-0.9-0.9-0.9-1.2-0.1
		c-0.1,0.2-0.3,0.3-0.9,0.4c-0.5,0.1-0.9,0.2-1.1,0.4c-0.3,0.2-0.3,0.2-0.6-0.1l-0.3-0.4V466c0-4.1-0.1-5.9-0.2-6.1
		c-0.2-0.5-0.4-6.7-0.3-8.8l0.2-1.8l0.4,0.1C134.4,449.4,134.7,449.5,134.9,449.6 M150,456.6c0,4.6,0,5.9-0.2,5.9
		c-0.1,0-0.5-0.2-0.9-0.4c-0.7-0.4-0.9-0.4-1.6-0.1c-0.7,0.4-0.7,0.7-0.7-5.1l0-5.3l0.3-0.2c0.2-0.1,0.7-0.2,1.2-0.3
		c0.5-0.1,0.9-0.1,0.9-0.2c0-0.1,0.2-0.1,0.5-0.1h0.4L150,456.6 M157.8,451.3c0.8,0.1,1.7,0.2,2,0.2h0.5l-0.1,6.4
		c0,4-0.1,6.4-0.2,6.5c-0.1,0-0.2,1.7-0.2,3.9c-0.1,3.6-0.1,3.9-0.3,4.2c-0.3,0.4-1.2,0.3-1.8-0.1c-0.2-0.1-0.4-0.3-0.4-0.3
		c-0.1,0-0.3-0.2-0.6-0.6c-0.5-0.6-1-0.6-0.6-0.1c0.1,0.1,0.1,0.3,0.1,0.3c-0.1,0.2-2.4,0.2-2.5,0c0-0.1-0.5-0.1-1-0.1
		c-0.7,0-1-0.1-1.2-0.2l-0.3-0.2l0.2-4.9c0.1-2.8,0.1-6.9,0.1-9.8l-0.1-4.9l0.6-0.1c0.9-0.2,2,0,2.4,0.3c0.3,0.3,0.4,4,0.4,10.3
		c0,1,0.1,2,0.1,2c0.1,0.1,0.1,1.1,0.2,2.3l0,2.2l0.4,0.5c0.2,0.3,0.5,0.5,0.6,0.5c0.1,0,0.4,0.2,0.6,0.4c0.7,0.9,1,0.4,0.8-1.4
		c-0.1-0.7-0.2-1.4-0.2-1.6c-0.1-0.3-0.4-3-0.4-4c0-0.3-0.1-0.7-0.1-0.8c-0.1-0.1-0.2-2.5-0.5-6.8c0-0.9-0.1-1.7-0.2-1.8
		c-0.1-0.1-0.1-0.7-0.2-1.3C155.8,450.8,155.6,450.9,157.8,451.3 M145.4,452.2c0,0.6-0.2,1.2-0.3,1.5c-0.2,0.5-0.2,2.7,0.1,3
		c0.2,0.3,0.4,2.3,0.4,3.3c-0.1,1.5-0.1,1.5-1.8,1.5c-1.5,0-1.5,0-1.5-0.6c0-0.1-0.2,0.1-0.4,0.4c-0.8,1.1-1.2,0.2-0.9-2.1
		c0.1-0.8,0.1-1.8,0-4.1c-0.2-4-0.5-3.7,3.6-3.8l0.9,0L145.4,452.2 M165.4,451.8c0,0.3-0.1,0.9-0.2,1.2c-0.8,1.7-1,2.6-1,4
		c0,0.5-0.1,0.9-0.1,0.9c-0.1,0.1-0.2,2-0.3,4.3c-0.1,2.3-0.3,4.2-0.3,4.3c-0.1,0.1-0.1,0.5-0.1,0.9c0,0.9-0.2,3.2-0.4,3.6
		c-0.1,0.1-0.1,0.6-0.2,1c-0.1,0.8-0.3,1.2-0.9,1.3c-0.5,0.1-0.6-0.3-0.3-2.6c0.1-0.9,0.2-2,0.2-2.3c0-0.3,0.1-0.6,0.1-0.7
		s0.1-3,0.2-7.6l0-7.5l-0.5-0.4c-0.3-0.2-0.4-0.5-0.4-0.5c0.1-0.1,2.1-0.3,3.4-0.4l0.8,0L165.4,451.8 M144.4,463.4
		c0,0.1,0.3,0.1,0.6,0.1h0.6l0,1.7c0,1,0.1,1.7,0.2,1.8c0.2,0.2,0.2,1.3,0,1.4c-0.1,0.1-0.2,2.1-0.1,2.2c0.5,0.6,0.6,0.4,0.5-3.4
		c0-4.1,0-4.2,0.8-4.2c0.6,0,0.7,0.2,0.9,1.3c0.1,0.5,0.2,1,0.2,1.1c0.2,0.3,0.2,2.1,0,2.3c-0.2,0.2-0.2,2.5,0,2.7
		c0.6,0.7-1,1.4-1.7,0.8c-0.1-0.1-0.2-0.1-0.4,0.1c-0.1,0.1-0.3,0.2-0.3,0.2s-0.2,0.1-0.2,0.2c0,0.1-0.2,0.3-0.3,0.3
		c-0.2,0.1-0.2,0.1,0.1,0.1c0.2,0,0.4,0.1,0.5,0.1c0,0.1,0.5,0.1,1,0.1c1.6,0,1.7,0.5,1.7,7c0,0.6,0,1.1,0.1,1.2
		c0.4,0.2,0.6,12.4,0.2,13c-0.2,0.4-0.9,0.4-1.1,0.1c0-0.1-0.4-0.2-0.9-0.3c-0.4-0.1-0.9-0.3-1.1-0.4c-0.2-0.1-0.4-0.2-0.5-0.2
		c-0.7,0-0.9-1-1-4.8c-0.1-1.2-0.1-2.2-0.2-2.3c-0.2-0.1-0.1-3.5,0-3.6c0.5-0.6,0.5-14.3,0-15.3c-0.1-0.1-0.1-0.5-0.1-0.7
		c0-1.6-0.5-2.8-0.7-1.7c-0.1,0.3-0.2,0.7-0.3,0.8c-0.1,0.1-0.2,1.3-0.2,3.1c-0.1,3.6-0.1,3.5-1.5,3.5h-1l0.1-0.7
		c0-0.3,0.1-1.6,0.2-2.9c0-1.2,0.1-2.2,0.2-2.3s0.1-0.5,0.1-1.1s0-1.2,0.1-1.5l0.1-0.5l1.8,0.1C143.6,463.2,144.4,463.3,144.4,463.4
		 M127.3,465.9c0.1,0.6,0.1,1.3,0.2,1.4c0.1,0.1,0.2,1.2,0.3,2.3s0.2,2.2,0.3,2.2c0.3,0.5,0.3,2.7,0,3.2c-0.1,0.1-0.2,0.4-0.2,0.8
		c-0.1,0.3-0.2,0.8-0.3,1c-0.1,0.2-0.3,0.8-0.6,1.4c-0.8,1.9-1.2,2.9-1.5,3.5c-0.2,0.3-0.4,0.8-0.5,1c-0.1,0.2-0.4,0.8-0.6,1.2
		c-0.9,1.6-1.1,2-1.1,2.1c0,0.1-0.1,0.4-0.2,0.7c-0.1,0.3-0.2,0.6-0.2,0.7c0,0.2-0.2,0.2-0.3,0c0-0.1-0.4-0.2-0.7-0.4
		c-0.4-0.1-0.7-0.3-0.7-0.3c0,0-0.2-0.2-0.5-0.3s-0.7-0.3-1-0.5c-0.3-0.2-0.9-0.5-1.3-0.7c-0.4-0.2-1-0.5-1.4-0.7
		c-0.4-0.2-0.8-0.3-0.9-0.3c-0.7,0-0.9-0.9-0.2-1.2c0.2-0.1,0.3-0.2,0.3-0.2c0-0.1,0.2-0.1,0.3-0.1c1.1,0,1.7-0.7,2-2.3
		c0-0.2,0.1-0.4,0.2-0.4c0.1,0,0.2-0.3,0.4-0.6c0.4-1,0.6-1.4,1.1-2.2c0.2-0.4,0.5-0.8,0.5-0.8s0.2-0.5,0.5-0.9
		c0.3-0.5,0.5-0.9,0.5-0.9s0.1-0.2,0.1-0.2c0.1-0.1,0.1,0.1,0.1,0.6l-0.1,0.7l0.2-0.3c0.2-0.2,0.3-0.5,0.3-0.6
		c0-0.1,0.2-0.5,0.4-0.8c0.2-0.3,0.3-0.8,0.4-1.1c0-0.3,0.1-0.6,0.2-0.6s0.1-0.1,0.1-0.2s0.2-0.4,0.4-0.7c0.2-0.3,0.4-0.6,0.4-0.7
		c0-0.1,0.3-0.6,0.6-1.1s0.6-1,0.6-1.1s0.2-0.4,0.4-0.7c0.2-0.3,0.4-0.6,0.4-0.7c0-0.1,0.1-0.2,0.2-0.2c0.1,0,0.2-0.2,0.2-0.3
		s0.1-0.3,0.2-0.4c0.2-0.2,0.2-1,0.1-1c-0.1,0-0.2,0.2-0.3,0.5c-0.1,0.3-0.3,0.6-0.4,0.6c-0.1,0.1-0.2,0.2-0.2,0.3
		c0,0.1,0,0.2-0.1,0.2c-0.7,0-0.6-1.8,0.2-1.8c0.2,0,0.4-0.1,0.6-0.1c0.1-0.1,0.4-0.1,0.6-0.1h0.4L127.3,465.9 M165.1,467.3
		c0.2,0.3,0.6,0.9,0.8,1.4c0.2,0.5,0.5,0.8,0.5,0.9s0.2,0.4,0.5,0.8c0.3,0.4,0.5,0.8,0.5,0.8c0,0,0.2,0.3,0.4,0.5
		c0.2,0.2,0.4,0.5,0.4,0.6c0,0.2,2.3,2.8,2.7,3c0.2,0.1,0.4,0.3,0.5,0.8c0.1,0.3,0.2,0.7,0.2,0.8s0.1,0.2,0.1,0.4
		c0,0.4,0.2,0.6,0.3,0.2c0.2-0.5,0.4-0.2,0.5,0.7c0.1,1,0.3,1.4,0.9,1.7c0.2,0.1,0.4,0.3,0.4,0.4s0.1,0.2,0.1,0.2s0.2,0.3,0.4,0.6
		c0.2,0.5,0.3,0.6,0.6,0.6c0.5,0,0.9,0.5,1.1,1.3c0.1,0.4,0.3,0.9,0.5,1.1c0.3,0.4,0.3,0.5,0.2,0.6c-0.2,0.2-0.1,0.7,0.2,0.8
		c0.2,0.1,0.3,0.3,0.4,1.5c0.1,2,0.1,2-1,2H175l0.1-1.1c0-0.6,0-1.1,0-1.1c-0.2,0-0.4,0.6-0.5,1.7c-0.1,1-0.1,1.2-0.4,1.4
		c-0.4,0.3-0.4,0.6,0.3,0.8c0.3,0.1,0.7,0.3,0.9,0.5s0.5,0.2,0.6,0.2c0.5,0,1,0.8,1,1.5c-0.1,1.8-0.1,2.1,0.3,2.8
		c0.4,0.9,0.4,2.3-0.1,2.7c0,0-0.2,1.3-0.3,2.7c-0.1,1.5-0.2,2.8-0.3,2.9c-0.1,0.1-0.1,0.5-0.2,0.8c0,0.3-0.1,0.7-0.2,0.9l-0.1,0.5
		h0.9h0.9l0.1,1c0,0.6,0.1,1.2,0.2,1.3c0.1,0.1,0.2,1.4,0.3,2.9c0.1,1.4,0.2,2.7,0.3,2.9c0.2,0.5,0.4,3.6,0.2,4.1
		c-0.4,1.4-0.9,1.6-3.7,1.5c-2.6-0.1-2.9-0.1-3.1,0.4c-0.1,0.4-0.4,0.3-1.1-0.2c-0.4-0.3-0.6-0.8-0.3-1.1c0.2-0.2,0.5-1.8,0.5-2.8
		c0-0.5,0.1-0.9,0.1-0.9c0.2,0,0.4-7.3,0.3-9.8c0-1.3-0.1-4.9-0.2-7.9l-0.1-5.5h-0.3c-0.4,0-0.6-0.4-0.7-1.2c0-0.4-0.1-0.8-0.2-1
		c-0.1-0.3-0.1-0.3,0.4-0.2c0.6,0.1,0.5-0.2-0.1-0.3c-0.6-0.1-1.1-0.8-1.2-1.6c-0.1-0.3-0.3-1.1-0.5-1.6c-0.2-0.5-0.6-1.1-0.7-1.4
		s-0.3-0.5-0.3-0.6c-0.1,0-0.2-0.3-0.3-0.6c-0.1-0.3-0.4-0.8-0.6-1.2c-0.7-1.4-1.6-3.5-1.8-4.4c-0.1-0.3-0.4-0.8-0.6-1.2
		c-0.3-0.4-0.5-0.8-0.5-0.9s-0.1-0.2-0.2-0.2c-0.2-0.1-0.3-1.8-0.1-1.8c0.2,0,0.2-0.8,0-0.9s-0.2-1.5,0-2c0.1-0.2,0.5-3.8,0.5-4.5
		C164.5,466.5,164.8,466.7,165.1,467.3 M124.6,467.2c0.2,0.1,0.2,0.2,0.1,0.3s-0.3,0.3-0.4,0.7c-0.7,1.7-0.8,1.7-1.1,1.5
		c-0.2-0.1-0.1-0.3,0.6-2C124.2,466.9,124.3,466.8,124.6,467.2 M154.1,472.9l0.9,0.2v1.2c0,0.6-0.1,1.3-0.2,1.5
		c-0.3,0.6-0.4,1.8-0.4,4.2c0,1.3-0.1,2.4-0.1,2.4c-0.1,0-0.2,0.5-0.2,1c-0.1,0.9-0.2,1.5-0.5,2.3c-0.1,0.2-0.2,0.7-0.2,0.9
		c-0.1,0.3-0.1,0.5-0.2,0.5c-0.2,0-0.2,2.9,0,3c0.1,0,0.2,0.5,0.2,1s0.1,1.2,0.2,1.4l0.1,0.5h-1.5h-1.5l0-2.3c0-2.4,0.2-6,0.4-6.2
		c0.2-0.2,0.2-1.4,0-1.6c-0.1-0.1-0.4-6.6-0.3-7c0-0.1,0.2-0.2,0.4-0.3c0.3-0.1,0.5-0.6,0.5-1.9v-0.9l0.9,0.1
		C152.8,472.7,153.6,472.8,154.1,472.9 M131.3,473.1c0,0.1,0.2,0.2,0.5,0.2c0.4,0.1,0.6,0.2,1.1,0.8c0.6,0.7,0.8,0.7,0.8,0.1
		c0-0.1,0.1-0.3,0.2-0.3c0.1,0,0.3-0.2,0.5-0.3c0.1-0.1,0.3-0.3,0.5-0.3s0.3-0.1,0.3-0.2c0.1-0.2,1.1,0.3,1.3,0.7
		c0.2,0.3,0.5,1.3,0.5,2c0,0.3,0.1,0.6,0.1,0.6c0.1,0,0.2,1.5,0.2,3.3c0.1,4.8,0.3,8.5,0.4,8.6c0.2,0.1,0.6,4.5,0.4,4.6
		c-0.1,0.1-0.8,0.1-1.6,0c-1.8-0.1-1.7,0.1-1.9-3c-0.2-2-0.2-2.2-0.4-2.4c-0.2-0.1-0.3-0.4-0.3-0.5c0-0.1-0.1-0.4-0.1-0.5
		c-0.1-0.1-0.2-0.8-0.3-1.6c-0.1-0.7-0.2-1.4-0.3-1.5s-0.2-0.5-0.2-1s-0.2-1-0.3-1.1s-0.2-0.6-0.3-1s-0.2-0.8-0.3-0.8
		c-0.1-0.1-0.2-0.5-0.3-0.9c-0.1-0.4-0.2-0.8-0.3-0.9c-0.1-0.1-0.2-0.5-0.3-1s-0.2-0.9-0.3-0.9s-0.1-0.2-0.2-0.6
		c0-0.3-0.2-0.7-0.2-0.8c-0.3-0.4-0.2-1.2,0.1-1.4C130.9,473,131.3,472.9,131.3,473.1 M142,474.5c-0.1,1.2,0.2,3.3,0.3,3.3
		c0.5,0,0.5,12.5,0,14c-0.4,1.1-0.3,1-1.7,1c-1.5,0-1.7-0.1-1.7-0.9c0-0.4,0.1-0.6,0.4-0.9c0.4-0.5,0.6-2.1,0.3-2.4
		c-0.1-0.1-0.2-1.2-0.2-2.4c-0.1-1.3-0.2-2.4-0.2-2.6c-0.1-0.3-0.5-5.8-0.5-7.3c0-0.5-0.1-0.9-0.1-0.9c-0.1,0-0.1-0.4-0.1-1v-1
		l1.1,0c0.6,0,1.4-0.1,1.9-0.1l0.8,0L142,474.5 M158.1,473.7c0.2,0.2,0.3,1,0.1,1.1c-0.1,0-0.2,0.9-0.3,1.8c-0.1,1-0.2,1.8-0.2,1.9
		s-0.2,1.2-0.3,2.6c-0.1,1.4-0.2,2.6-0.3,2.7c-0.1,0.1-0.1,1.2-0.2,2.4c-0.1,2-0.2,3.5-0.4,3.8c-0.1,0.1-0.2,0.6-0.2,1.1
		c-0.1,0.5-0.2,0.9-0.3,0.9c-0.1,0-0.1,0.1-0.1,0.2c0,0.3-0.7,1.1-0.8,0.9c-0.1-0.1-0.1-0.3,0-0.5c0.1-0.2,0-0.4-0.2-0.5
		c-0.2-0.2-0.2-3.1,0-3.3c0.1,0,0.2-1.3,0.2-2.7c0.1-1.5,0.2-2.7,0.2-2.8s0.1-0.8,0.2-1.5c0.1-1.4,0.3-3.2,0.5-3.3
		c0,0,0.2-1,0.3-2.1c0.1-1.1,0.3-2,0.3-2.1c0.1,0,0.1-0.3,0.1-0.6v-0.5l0.6,0.1C157.7,473.5,158,473.6,158.1,473.7 M161.5,475.2
		l0.5,0.4l-0.1,1.2c0,0.7-0.1,1.3-0.2,1.3c-0.1,0.1-0.2,1.2-0.2,2.5c-0.1,1.3-0.2,2.5-0.2,2.7c-0.2,0.6-0.5,5.1-0.4,7.1
		c0.1,2.7,0.1,2.7-2,2.5c-1.6-0.1-2-0.3-1.7-0.7c0.1-0.1,0.2-0.8,0.3-1.6c0.1-0.8,0.2-1.4,0.3-1.5c0.1-0.1,0.2-0.9,0.3-1.8
		c0.1-0.9,0.2-1.7,0.3-1.8c0.1-0.1,0.2-0.7,0.2-1.3c0.1-0.7,0.2-1.3,0.2-1.5c0.1-0.1,0.2-1.2,0.3-2.4c0.1-1.2,0.2-2.2,0.3-2.2
		c0.1-0.1,0.1-0.6,0.2-1.3c0.2-2.1,0.1-2,0.8-2C160.9,474.8,161.1,474.9,161.5,475.2 M115.4,485.1c0.2,0.1,0.5,0.2,0.5,0.3
		c0,0.1,0.1,0.1,0.2,0.1c0.2,0,1.4,0.6,2.2,1.1c0.2,0.1,0.5,0.3,0.6,0.3c0.1,0,0.6,0.2,1,0.5c1.1,0.6,1.3,0.9,1.3,2.1
		c0,0.4,0,0.8,0.1,0.8c0.1,0,0.2,0.6,0.3,1.3c0.1,0.7,0.3,1.3,0.4,1.4c0.2,0.1,0.1,3.6,0,3.8c-0.1,0.1-0.2,2.9-0.2,6.3
		c-0.1,7.9-0.2,10-0.5,10.4c-0.2,0.2-0.4,0.3-2.8,0.3h-2.6l0.1-1.1c0.1-0.6,0.1-1.2,0.2-1.2s0.2-0.6,0.2-1.2l0.1-1.1h-0.3
		c-0.4,0-0.4-0.1,0-1l0.4-0.8l0.1,0.6c0.1,0.8,1.2,1.8,1.2,1.2c0-0.5-0.3-2.9-0.4-3.1c-0.1-0.1-0.2-0.7-0.2-1.3
		c-0.1-1.5-0.2-1.7-0.4-1.5c-0.1,0.1-0.2,0.2-0.2,0.3c0,0.2-0.5,0.7-0.6,0.6c0,0,0-0.1,0.1-0.1c0.1,0,0.2-0.1,0.2-0.2
		c0-0.2,0.4-1.6,0.5-2c0.2-0.4,0.2-3.1,0-3.1c-0.1,0-0.2-0.2-0.2-0.3c0-0.1-0.1-0.3-0.2-0.4c-0.2-0.2-0.2-0.8-0.1-0.9
		c0.1,0,0.1-0.2,0-0.3c-0.1-0.1-0.1-0.7-0.1-1.2c0-1.1-0.2-1.3-0.7-0.4l-0.3,0.5v4.3c0,4.2,0,4.6-0.4,4.6c-0.1,0-0.2,0.1-0.3,0.2
		c-0.1,0.1-0.2,0.2-0.2,0.1c-0.2-0.1-0.1-4.1,0.1-4.3c0.2-0.1,0.2-1.4,0-1.6c-0.2-0.3-0.2-2.2,0-2.5c0.2-0.3,0.2-6.3,0-6.7
		c-0.1-0.1-0.2-0.6-0.1-1.5l0-1.2l0.4,0c0.2,0,0.5,0,0.6-0.1c0.3-0.2,0.3-0.1,0.8,0.5c0.6,0.6,3.5,2.5,3.7,2.3
		c0.1-0.1-1.8-2.2-2-2.2c-0.1,0-0.3-0.1-0.5-0.2c-0.2-0.1-0.3-0.2-0.3-0.1c-0.1,0.2-0.7,0.2-0.8-0.1c0-0.1-0.1-0.2-0.2-0.2
		c-0.1,0-0.3-0.1-0.4-0.3c-0.2-0.2-0.4-0.3-0.6-0.3c-0.4,0-0.8-0.5-0.9-1.1C114.2,484.7,114.2,484.7,115.4,485.1 M177.1,489.9
		l0.3,0.3l-0.6,0.6l-0.6,0.6l-0.2-0.3l-0.2-0.3l0.4-0.5c0.2-0.3,0.4-0.6,0.4-0.7C176.5,489.5,176.8,489.5,177.1,489.9 M115.9,491.2
		c-0.2,0.2-0.1,3.1,0.1,3.1c0.2,0,0.2-0.3,0.2-1.5C116.2,491.4,116.1,491,115.9,491.2 M148.9,495.1c0.1,0-0.2,1-0.3,1
		c-0.3,0.3-0.3,1-0.1,1.3c0.3,0.4,0.4,0.7,0.1,0.9c-0.3,0.3-0.3,4.2,0.1,4.3c1.4,0.5,1.7,1.6,1.8,6.5c0.1,4.9,0.3,9.2,0.4,9.4
		c0.1,0.1,0.1,0.5,0.1,0.9v0.8l-1.6,0l-1.6,0l-0.4,0.5c-0.4,0.5-0.4,0.5-0.7,0.2c-0.3-0.3-0.6-0.3-0.9,0c-0.1,0.1-0.5,0.3-0.8,0.3
		c-0.3,0-0.7,0.1-0.9,0.2l-0.4,0.1l0.1-1.8c0-1,0.1-1.8,0.2-1.9c0.2-0.2,0.2-2.7,0-2.8c-0.2-0.1-0.2-0.7,0-0.8
		c0.2-0.1,0.4-1.8,0.5-4.3c0-1.3,0.1-2.5,0.2-2.7c0.5-1,0.5-6.3,0-7.4c-0.3-0.6-0.4-1-0.6-1.4c-0.1-0.1-0.1-0.4-0.1-0.6
		s0.1-0.3,0.1-0.3c0.1,0,0.1-0.4,0.1-0.9c0-1,0.1-1.4,0.5-1.6C144.8,494.9,148.8,495,148.9,495.1 M112.7,497.4
		c0.2,0.1,0.2,0.5,0.2,3.6v3.6l-0.5-0.1c-0.8-0.1-1,0.1-1,1.5c0,0.6,0.1,1.1,0.1,1.2c0.1,0.1,0.1,0.9,0.2,1.8c0,1.5,0.1,1.7,0.3,1.8
		c0.2,0.1,0.3,0.3,0.3,0.4s0.1,0.3,0.2,0.4c0.7,0.8-0.3,2-2.1,2.5c-0.5,0.1-0.9,0.3-1,0.3c-0.1,0.1-0.5,0.2-1,0.3
		c-0.5,0.1-0.9,0.3-1,0.3c-0.3,0.3-0.9,0.3-1.1,0.1c-0.1-0.2-0.2-0.2,0-0.3c0.1,0,0.2-0.1,0.2-0.2s0.2-0.4,0.3-0.7
		c0.2-0.3,0.4-0.8,0.5-1c0.7-1.4,0.7-1.2,0.4-1.6c-0.4-0.5,0-2,1.1-3.7c0.1-0.2,0.2-0.5,0.3-0.7c0-0.2,0.2-0.4,0.3-0.5
		c0.1-0.1,0.2-0.4,0.2-0.8c0-0.5,0.1-0.7,0.5-1.1c0.6-0.6,0.8-1.2,0.8-2.2c0-0.5,0.1-0.9,0.2-1.3c0.4-0.8,0.6-1.4,0.7-2.1
		c0.1-0.6,0.3-1.3,0.5-1.7C112.5,497.3,112.5,497.3,112.7,497.4 M179.2,501c0,0.3,0.1,0.6,0.2,0.6c0.4,0.3,0,2.2-0.5,2.2
		c-0.2,0-0.4-2.1-0.3-2.8C178.8,500.3,179.1,500.3,179.2,501 M181.4,505.3c0.1,0.5,0.3,0.9,0.3,1c0.1,0.1,0.2,0.6,0.3,1
		c0.1,0.5,0.2,1,0.3,1c0.1,0.1,0.1,0.3,0.2,0.6c0.1,0.5,0.2,0.9,0.8,2.2c0.2,0.4,0.3,0.8,0.3,0.8c0,0.1,0.7,1.8,0.9,2.4
		c0.1,0.2,0.3,0.6,0.4,0.8c0.1,0.2,0.2,0.4,0.3,0.4s0.1,0.1,0.1,0.2s0.2,0.5,0.4,0.8c0.2,0.3,0.4,0.7,0.4,0.8c0,0.1,0.1,0.2,0.1,0.2
		c0.1,0,0.1,0.2,0.1,0.5c0,0.6-0.1,0.7-1.2,0.9c-0.4,0.1-0.8,0.2-0.9,0.3c-0.3,0.3-1.2,0.2-1.5-0.1c-0.2-0.3-0.3-0.3-0.5-0.2
		c-0.5,0.3-0.9,0.5-1.2,0.5c-0.8,0.1-0.9,0-1-0.5c0-0.3-0.1-0.5-0.2-0.6c-0.2-0.1-0.2-0.6,0-0.6c0.1,0,0.1-0.7,0.1-1.8
		c0-1,0.1-3,0.2-4.6c0.1-1.5,0.2-3.5,0.2-4.3c0-0.8,0.1-1.5,0.1-1.6s0.1-0.5,0.1-0.9v-0.9l0.2,0.4
		C181,504.2,181.2,504.8,181.4,505.3 M115,505.7c0.2,0.1,0.2,0.8-0.1,1.1c-0.1,0.1-0.2,0.5-0.2,0.9c-0.2,1.1-0.6,1-0.6-0.1
		c0-0.5,0-1-0.1-1.2c-0.1-0.3,0.3-0.6,0.8-0.7C114.8,505.6,114.9,505.6,115,505.7 M115,509.6c0.3,0.4,0.3,1.7,0,2.2
		c-0.5,0.9-0.9,1.3-1.1,1.1c-0.2-0.2-0.2-0.6-0.1-0.6c0.1,0,0.2-0.3,0.3-0.7c0.1-0.3,0.3-0.7,0.4-0.8c0.1-0.1,0.1-0.2-0.1-0.3
		c-0.5-0.6-0.5-1-0.1-1.6l0.2-0.4l0.1,0.5C114.8,509.2,114.9,509.5,115,509.6 M187.2,519.8c0,0.1,0.2,0.1,0.3,0.1
		c0.2,0,0.3,0.2,0.3,0.4c0,0.2,0.1,0.4,0.2,0.5c0.2,0.2-0.1,0.4-0.3,0.2c-0.1-0.1-0.3-0.1-0.4-0.1c-0.3,0-1.2-0.4-1.3-0.6
		c0-0.1-0.1-0.1-0.2-0.1c-0.1,0-0.1-0.1,0.1-0.3C186.1,519.6,187,519.5,187.2,519.8"/>
	<path id="path2" class="st16" d="M145.2,373.4c-0.2,0-0.6,0.2-0.9,0.4c-0.3,0.2-0.6,0.3-0.7,0.3c-0.1,0-0.2,0.1-0.3,0.2
		c-0.1,0.1-0.2,0.2-0.3,0.1c-0.1,0-0.2,0.1-0.3,0.3c-0.1,0.2-0.2,0.6-0.3,0.8c-0.1,0.2-0.2,0.5-0.2,0.6c0,0.2-0.4,1.1-0.5,1.2
		c-0.1,0-0.1,0.2-0.1,0.5c0,0.3-0.2,0.6-0.4,0.9c-0.2,0.3-0.5,0.7-0.5,0.9c-0.1,0.2-0.2,0.6-0.4,0.9c-0.2,0.3-0.3,1-0.4,1.5
		c-0.1,0.5-0.2,1-0.3,1.2c-0.2,0.2-0.2,0.6-0.2,1.2c0,0.5-0.1,1.1-0.2,1.3c-0.2,0.6-0.5,1.1-0.7,1.3c-0.1,0.1-0.2,0.6-0.2,1
		c-0.1,0.5-0.2,1.1-0.5,1.6c-0.2,0.4-0.4,0.9-0.4,1c0,0.1-0.1,0.3-0.2,0.5c-0.1,0.1-0.2,0.4-0.2,0.5c0,0.1-0.1,0.5-0.2,0.7
		c-0.1,0.2-0.3,0.8-0.4,1.2c-0.1,0.4-0.2,0.8-0.3,1c-0.4,0.8-0.2,1.4,0.6,1.6c0.4,0.1,0.8,0.2,0.9,0.3c0.1,0,0.5,0.2,0.9,0.2
		c0.4,0.1,0.9,0.2,1,0.3c1,0.5,3.5,0.7,5,0.4c0.6-0.1,0.8-0.1,0.9,0c0.1,0.1,0.2,0.1,0.4,0c0.3-0.1,0.4-0.1,0.6,0.3l0.3,0.4l0.2-0.4
		c0.1-0.2,0.2-0.5,0.3-0.7c0.1-0.4,1-0.5,1.2-0.1c0.3,0.6,1.2,0.7,3.2,0.3c0.4-0.1,1.1-0.1,1.6-0.1c0.7,0,0.9-0.1,1-0.2
		c0-0.1,0.2-0.2,0.3-0.2c0.7,0,0.9-0.6,0.4-1.7c-0.2-0.5-0.4-0.9-0.4-1c0-0.1-0.1-0.2-0.2-0.3c-0.2-0.1-0.2-0.1-0.2,0.1
		c0,0.1-0.1,0.2-0.1,0.1c-0.1,0-0.1-0.2-0.1-0.4c0-0.1-0.1-0.4-0.1-0.5c-0.1-0.1-0.2-0.7-0.2-1.4c-0.1-2-0.2-2.7-0.3-2.7
		c-0.1,0-0.1-0.1-0.1-0.2s-0.1-0.4-0.3-0.6c-0.2-0.3-0.3-0.6-0.3-1.1c0-0.3-0.1-0.7-0.1-0.7c-0.1-0.1-0.1-0.2-0.1-0.3
		c0-0.1-0.1-0.3-0.2-0.4c-0.1-0.1-0.2-0.3-0.2-0.6c0-0.3-0.1-0.5-0.3-0.6c-0.2-0.1-0.3-0.4-0.4-0.7c-0.1-0.3-0.2-0.6-0.2-0.6
		c-0.1,0-0.2-0.6-0.2-1.2c-0.1-0.7-0.2-1.3-0.3-1.3c-0.1,0-0.2-0.5-0.3-1c-0.1-0.6-0.3-1.1-0.5-1.3c-0.2-0.2-0.3-0.4-0.3-0.5
		c0-0.1-0.1-0.2-0.2-0.3c-0.1-0.1-0.2-0.3-0.2-0.4s-0.2-0.5-0.4-0.7c-0.2-0.3-0.4-0.6-0.4-0.7C148.2,374.4,146.3,373.2,145.2,373.4
		 M150,385.4c0.1,0.2,0.2,0.6,0.4,0.8c0.2,0.2,0.3,0.5,0.3,0.6s0.1,0.2,0.2,0.2c0.1,0.1,0.2,0.3,0.2,0.9c0,0.7,0.1,0.9,0.4,1.4
		c0.2,0.4,0.4,0.7,0.4,1.1c0,0.3,0.1,0.7,0.2,0.9c0.2,0.3,0.2,0.4,0,0.5c-0.2,0.1-0.2,0.5-0.1,0.7c0.2,0.2,0.4,1.4,0.5,2.5
		c0,0.6,0.2,1.2,0.2,1.4c0.2,0.4,0.2,0.4-0.2,0.5c-0.2,0-0.5,0.1-0.5,0.2c-0.4,0.4-0.8,0.1-0.9-0.5c-0.1-0.3-0.1-0.7-0.2-0.8
		c-0.1-0.2-0.4-2.2-0.4-3.2c0-0.3-0.1-0.7-0.1-0.7c-0.1,0-0.1-0.3-0.1-0.6c0-0.6-0.4-2.6-0.5-2.8c-0.2-0.3-0.3-1.3-0.2-2.4
		C149.7,385,149.8,384.8,150,385.4 M135.5,396.7c0,0,0.2,0.2,0.4,0.4s0.4,0.3,0.4,0.2s-0.2-0.2-0.4-0.4
		C135.6,396.7,135.5,396.6,135.5,396.7 M134.9,397.8c-0.1,0.3-0.2,1.1-0.1,1c0.1,0,0.1-0.3,0.1-0.6C135,397.6,135,397.5,134.9,397.8
		 M137.9,398.2c0.1,0.1,0.4,0.1,0.7,0.2c0.3,0,0.5,0,0.4,0C138,398.1,137.8,398.1,137.9,398.2 M156,398.9c0.1,0.4,0.1,0.4,0.1,0.1
		c0-0.2,0-0.4-0.1-0.5C156,398.5,156,398.6,156,398.9 M151.4,399c0,0.2,0,0.5,0.1,0.5c0.1,0,0.1-0.1,0.1-0.4
		C151.5,398.5,151.4,398.5,151.4,399 M149.2,398.8c-0.6,0.1-0.7,0.3-0.1,0.2c0.3,0,0.5-0.1,0.6-0.2c0-0.1,0.1-0.1,0-0.1
		S149.4,398.8,149.2,398.8 M150.3,399.6c0,0.2,0,0.4,0.1,0.4c0.1,0,0.1-0.1,0.1-0.3C150.4,399.2,150.3,399.1,150.3,399.6
		 M144.6,399.8c0,0.3,0,0.4,0,0.3c0.1-0.1,0.1-0.3,0.1-0.5C144.7,399.4,144.7,399.4,144.6,399.8 M140.7,400.6
		c-0.1,0.4-0.2,0.9-0.1,0.9c0.1,0,0.1-0.3,0.2-0.6C140.8,400.4,140.8,400.3,140.7,400.6 M156.6,401.4c0,0.3,0.1,0.7,0.2,0.7
		c0.1,0.1,0.1-0.1,0-0.5C156.6,400.8,156.5,400.6,156.6,401.4 M151.9,401.5c0,0.3,0.1,0.7,0.2,0.7c0.1,0.1,0.1-0.1,0-0.5
		C151.9,400.9,151.9,400.8,151.9,401.5 M140.2,403.3c0,0.3,0,0.4,0.1,0.2s0-0.3,0-0.5C140.2,403,140.2,403.1,140.2,403.3
		 M141.2,403.2c-0.1,0.3-0.1,1.5,0,1.4c0.1-0.1,0.2-1.6,0.1-1.6C141.2,403.1,141.2,403.1,141.2,403.2 M144.7,404.7
		c0,0.8,0,1.2,0,0.7s0-1,0-1.5S144.7,403.9,144.7,404.7 M152.5,404.8c0,0.3,0,0.5,0.1,0.6c0.1,0,0.1-0.2,0.1-0.5
		C152.6,404.2,152.5,404.1,152.5,404.8 M150.9,405.5c0,0.4,0,0.5,0.1,0.3s0-0.5,0-0.7C151,404.9,150.9,405.1,150.9,405.5
		 M146.2,407.3c0,1.1,0,2,0,2c0.1-0.1,0.1-1,0.1-2.1l0-2L146.2,407.3 M139.5,406.7c0,0.3,0,0.4,0.1,0.2c0-0.1,0-0.3,0-0.5
		C139.6,406.3,139.5,406.4,139.5,406.7 M157.7,406.7c0.1,0.4,0.1,0.4,0.1,0.1c0-0.2,0-0.4-0.1-0.5
		C157.7,406.3,157.7,406.4,157.7,406.7 M140.5,407.7c0,0.3,0,0.4,0.1,0.2s0-0.3,0-0.5S140.5,407.4,140.5,407.7 M158.3,409.1
		c0,0.3,0.1,0.6,0.1,0.6c0.1,0.1,0-0.6-0.1-0.9C158.3,408.6,158.3,408.7,158.3,409.1 M151.5,409.4c0,0.3,0.1,0.5,0.1,0.5
		c0,0,0.1-0.2,0-0.4c0-0.3-0.1-0.5-0.1-0.5C151.5,408.9,151.5,409.2,151.5,409.4 M132.6,409.7c0,0.1-0.1,0.3,0,0.5
		c0,0.2,0.1,0.1,0.1-0.2C132.7,409.4,132.7,409.3,132.6,409.7 M139,409.8c-0.1,0.4-0.2,0.9-0.1,0.9c0.1,0,0.1-0.3,0.2-0.6
		C139.1,409.6,139,409.5,139,409.8 M140,410.2c0,0.3,0,0.4,0.1,0.2c0-0.1,0-0.3,0-0.5C140.1,409.8,140,409.9,140,410.2 M138.5,412.3
		c-0.1,0.4-0.2,0.9-0.1,0.9c0.1,0,0.1-0.3,0.2-0.6C138.6,412.1,138.6,412,138.5,412.3 M146.2,413.2c0,0.3,0,0.5,0.1,0.6
		c0.1,0,0.1-0.2,0.1-0.5C146.3,412.5,146.2,412.5,146.2,413.2 M139.4,413.3c0,0.3,0,0.4,0,0.3c0.1-0.1,0.1-0.3,0.1-0.5
		C139.4,412.9,139.4,413,139.4,413.3 M159.5,414.4c0.1,0.4,0.1,0.4,0.1,0.1c0-0.2,0-0.4-0.1-0.5C159.5,414,159.4,414.1,159.5,414.4
		 M146.7,414.9c0.2,0.6,0.2,1.2-0.3,1.7l-0.4,0.5l0.5-0.5C147,416.1,147.1,415.3,146.7,414.9C146.6,414.6,146.6,414.6,146.7,414.9
		 M153.6,415c0,0.1-0.1,0.4,0,0.6c0,0.3,0.1,0.3,0.1-0.2C153.8,414.8,153.8,414.6,153.6,415 M131.4,415.4c0,0.1-0.1,0.3,0,0.5
		c0,0.2,0.1,0.2,0.1-0.2C131.6,415.2,131.6,415.1,131.4,415.4 M139,415.3c0,0.1-0.1,0.5-0.1,1l-0.1,0.9l0.1-0.8
		c0.1-0.5,0.2-0.9,0.2-1C139.1,415.2,139,415.1,139,415.3 M152.6,416.6l0.1,1.4l0-1.3c0-0.7,0-1.3-0.1-1.4
		C152.6,415.3,152.6,415.8,152.6,416.6 M137.8,416.2c0,0.3,0,0.4,0.1,0.2c0-0.1,0-0.3,0-0.5C137.9,415.8,137.8,415.9,137.8,416.2
		 M160,416.5c0,0.2,0,0.4,0.1,0.4s0.1-0.1,0.1-0.3C160.1,416.1,160,416,160,416.5 M144.6,418.6c0,1,0,1.8,0.1,1.8
		c0.1,0,0.1-0.8,0.1-1.8s0-1.7-0.1-1.8C144.6,416.8,144.6,417.6,144.6,418.6 M138.3,419.4c0,0.1-0.1,0.4,0,0.6
		c0,0.3,0.1,0.3,0.1-0.2C138.5,419.2,138.4,419.1,138.3,419.4 M137.2,419.9c0,0-0.1,0.3-0.1,0.6v0.6l-0.6,0c-0.3,0-0.5,0-0.5,0.1
		c0.4,0.4,1,0,1.1-0.6C137.3,420.1,137.3,419.8,137.2,419.9C137.3,419.8,137.3,419.8,137.2,419.9 M157.8,420.3
		c0.2,0.2,0.4,0.3,0.6,0.3l0.3,0l-0.3-0.1c-0.2,0-0.4-0.2-0.6-0.3C157.6,420,157.6,420,157.8,420.3 M133.2,420.4
		c0.1,0.1,0.4,0.1,0.8,0.2c0.8,0.1,0.7,0-0.2-0.2C133.4,420.3,133.2,420.3,133.2,420.4 M160.5,420.5l-0.4,0.1l0.5,0
		c0.2,0,0.5,0,0.5-0.1s0-0.1,0-0.1C160.9,420.4,160.7,420.4,160.5,420.5 M148.3,421.2c0.9,0.1,1.9,0.1,1.8,0c0-0.1-0.6-0.1-1.1-0.1
		C148.4,421.1,148.1,421.1,148.3,421.2 M154.5,421.7c0,0.1,0.2,0.1,0.5,0.1c0.9-0.1,1-0.1,0.2-0.1
		C154.9,421.6,154.5,421.6,154.5,421.7 M161,421.9c0.2,0.2,0.3,0.3,0.3,0.3c0.1-0.1-0.4-0.6-0.5-0.6
		C160.8,421.6,160.8,421.8,161,421.9 M138.9,422.4c0.1,0.1,0.1,0.1,0,0.5l-0.2,0.4l0.2-0.3C139.1,422.6,139.1,422.3,138.9,422.4
		C138.7,422.3,138.7,422.3,138.9,422.4 M134.4,425c0,0.5,0,0.7,0.1,0.5c0-0.3,0-0.7,0-1C134.4,424.3,134.4,424.5,134.4,425
		 M159.4,424.5c0,0.2,0,0.4,0.1,0.4c0.1,0,0.1-0.1,0.1-0.3C159.5,424.1,159.4,424,159.4,424.5 M146.3,424.4c0.3,0,0.9,0,1.2,0
		s0.1,0-0.6,0C146.2,424.3,145.9,424.3,146.3,424.4 M135.4,429.4c-0.1,2.5-0.1,4.7,0,4.7c0.1,0.1,0.2-8.9,0.2-9.2
		C135.5,424.8,135.5,426.8,135.4,429.4 M158.3,425.4c0,0.3,0.1,0.7,0.2,0.7c0.1,0.1,0.1-0.1,0-0.5
		C158.3,424.8,158.2,424.6,158.3,425.4 M129.8,425.3c-0.1,0.4-0.2,0.9-0.1,0.9c0.1,0,0.1-0.3,0.2-0.6
		C129.9,425.1,129.9,425,129.8,425.3 M159.9,426.8c0,0.3,0.1,0.7,0.2,0.7c0.1,0.1,0.1-0.1,0-0.5C159.9,426.2,159.8,426,159.9,426.8
		 M158.8,428.1c0,0.3,0.1,0.5,0.1,0.5c0,0,0.1-0.2,0-0.4c0-0.3-0.1-0.5-0.1-0.5C158.8,427.6,158.8,427.9,158.8,428.1 M136.7,428.5
		c0,0.1,0,0.9,0,1.8l0,1.6l0.1-1.8C136.9,428.3,136.8,428.1,136.7,428.5 M129.1,429.1c0,0.1-0.1,0.3,0,0.5c0,0.2,0.1,0.2,0.1-0.2
		C129.3,428.8,129.2,428.7,129.1,429.1 M133.9,429.6c0,0.3,0,0.4,0.1,0.2c0-0.2,0-0.4,0-0.6C133.9,429.2,133.9,429.3,133.9,429.6
		 M133.8,430.7c0,0.3,0,0.4,0.1,0.2c0-0.2,0-0.4,0-0.6S133.8,430.4,133.8,430.7 M162.3,430.7c0,0.3,0.1,0.5,0.1,0.5
		c0,0,0.1-0.2,0-0.4c0-0.3-0.1-0.5-0.1-0.5C162.3,430.3,162.2,430.5,162.3,430.7 M159.5,431.8c0,0.3,0,0.5,0.1,0.3
		c0-0.2,0-0.5,0-0.6C159.5,431.3,159.5,431.4,159.5,431.8 M128.6,432.2c0,0.3,0,0.4,0,0.3c0.1-0.1,0.1-0.3,0.1-0.5
		C128.7,431.8,128.6,431.8,128.6,432.2 M161,432.7c0,0.3,0.1,0.5,0.1,0.5c0,0,0.1-0.2,0-0.4c0-0.3-0.1-0.5-0.1-0.5
		C161,432.2,161,432.5,161,432.7 M133.3,433.7c0,0.3,0,0.5,0.1,0.3c0-0.2,0-0.5,0-0.6S133.3,433.4,133.3,433.7 M160,434.8
		c0.1,0.6,0.1,0.6,0.1,0.1c0-0.2,0-0.5-0.1-0.6C159.9,434.2,159.9,434.4,160,434.8 M162.9,434.7c0,0.3,0.1,0.5,0.1,0.5
		c0,0,0.1-0.2,0-0.4c0-0.3-0.1-0.5-0.1-0.5C162.9,434.2,162.9,434.4,162.9,434.7 M161.6,435.2c0.1,0.3,0.1,0.6,0.2,0.7
		c0.1,0.1,0-0.1,0-0.5C161.6,434.6,161.5,434.5,161.6,435.2 M128,436.7c0,0.6,0,1,0,1c0.1-0.1,0.1-0.6,0.1-1.1l0-1L128,436.7
		 M163.4,437.7c0,0.3,0,0.4,0.1,0.2c0-0.1,0-0.3,0-0.5C163.5,437.3,163.4,437.4,163.4,437.7 M132.7,437.6c0,0.1-0.1,0.5,0,0.8
		c0,0.6,0,0.6,0.1-0.2C132.8,437.4,132.8,437.2,132.7,437.6 M153.6,437.6c0,0.1-0.1,0.3,0,0.5c0,0.2,0.1,0.1,0.1-0.2
		C153.8,437.3,153.8,437.2,153.6,437.6 M162.2,437.9c0,0.3,0,0.6,0.1,0.7s0.1-0.2,0.1-0.5C162.2,437.3,162.2,437.2,162.2,437.9
		 M134.9,438.1c-0.1,0.3-0.1,1.8,0,1.7c0.1-0.1,0.2-1.8,0.1-1.8C135,437.9,134.9,438,134.9,438.1 M152.9,438.5l-0.2,0.3L152.9,438.5
		l0.4-0.2l-0.1,0.5c0,0.2,0,0.4,0,0.4c0.1-0.1,0.1-0.9,0-0.9C153.2,438.2,153,438.4,152.9,438.5 M152,439.5
		c-0.3,0.3-0.4,0.5-0.3,0.4c0.2-0.1,1-1,0.9-1C152.6,438.9,152.3,439.2,152,439.5 M160.6,439.8c0,0.4,0,0.5,0.1,0.3s0-0.5,0-0.7
		C160.6,439.3,160.6,439.4,160.6,439.8 M143.2,440.5c0.1,0.1,0.2,0.1,0.4,0.1c0.2,0,0.2-0.1-0.1-0.1
		C143.2,440.4,143.1,440.4,143.2,440.5 M127.6,440.5c-0.1,0.2-0.3,1.9-0.2,1.8C127.5,442.2,127.7,440.4,127.6,440.5
		C127.6,440.4,127.6,440.4,127.6,440.5 M164,441.2c0,0.2,0,0.4,0.1,0.4s0.1-0.1,0.1-0.3C164.1,440.8,164,440.7,164,441.2
		 M144.8,441.1c0.1,0.1,0.4,0.1,0.5,0.1c0.2,0,0.2,0-0.1-0.1C144.8,441,144.5,441,144.8,441.1 M132.2,442.1c0,0.1-0.1,0.4,0,0.7
		c0,0.4,0.1,0.4,0.1-0.2C132.3,441.8,132.3,441.7,132.2,442.1 M145.7,443.3c0,0.8,0.1,1.5,0.1,1.5c0.1,0.1,0.1-0.6,0-1.3
		s-0.1-1.5-0.1-1.5C145.7,441.9,145.7,442.5,145.7,443.3 M134.8,442.4c0.1,0.4,0.1,0.4,0.1,0.1c0-0.2,0-0.4-0.1-0.5
		C134.8,442,134.8,442.2,134.8,442.4 M140.2,442.2c-0.1,0.3-0.1,1.5,0,1.4c0.1-0.1,0.2-1.6,0.1-1.6
		C140.2,442,140.2,442.1,140.2,442.2 M132,443.8c0,0.3,0,0.6,0,0.6s0.1-0.3,0.1-0.7l0-0.6L132,443.8 M147.3,443.7
		c0,0.3,0.1,0.5,0.1,0.5c0,0,0.1-0.2,0-0.4c0-0.3-0.1-0.5-0.1-0.5C147.3,443.3,147.3,443.5,147.3,443.7 M153.2,444.5l0.1,0.7l0-0.6
		c0-0.3,0-0.6-0.1-0.7C153.2,443.8,153.2,444.1,153.2,444.5 M131.5,447c0,0.3,0,0.5,0,0.5c0.1-0.1,0.1-0.3,0.1-0.6
		C131.6,446.4,131.6,446.4,131.5,447 M134.3,446.6c0,0.1-0.1,0.6,0,1l0,0.8l0.1-1C134.4,446.4,134.4,446.3,134.3,446.6 M155.3,447.2
		l0.1,0.8l0-0.7c0-0.4,0-0.7-0.1-0.8C155.3,446.5,155.3,446.8,155.3,447.2 M125.8,447.3c0,0.2,0.2,0.4,0.3,0.5l0.3,0.2l-0.3-0.2
		C126,447.6,125.9,447.4,125.8,447.3C125.8,447,125.8,447,125.8,447.3 M153.7,447.8l0.1,0.8l0-0.7c0-0.4,0-0.7-0.1-0.8
		C153.7,447.1,153.7,447.4,153.7,447.8 M156.6,448.5c0,0.3,0,0.5,0.1,0.3c0-0.2,0-0.5,0-0.6C156.6,448,156.6,448.2,156.6,448.5
		 M146.4,448.7c0,0.3,0,0.5,0.1,0.3c0-0.2,0-0.5,0-0.6C146.4,448.2,146.4,448.3,146.4,448.7 M141.1,449c0,0.1-0.1,0.5,0,0.7l0,0.5
		l2.5,0c2.5,0,2.5,0,2.8-0.3l0.2-0.3l-0.2,0.2c-0.2,0.2-0.6,0.2-2.7,0.2h-2.5v-0.6c0-0.6,0-0.6,0.2-0.6c0.1,0,0.2,0,0.2-0.1
		C141.5,448.7,141.2,448.8,141.1,449 M127.5,450.1c0,0.7,0,1,0,0.7c0-0.3,0-0.9,0-1.3C127.6,449.2,127.5,449.4,127.5,450.1
		 M133.8,449.9c0,0.4,0,0.5,0.1,0.3c0-0.2,0-0.5,0-0.7S133.8,449.5,133.8,449.9 M148.8,449.7c0.1,0.1,0.3,0.1,0.6,0.1l0.6,0
		l-0.6-0.1C149,449.6,148.8,449.6,148.8,449.7 M132.1,451.3c0,0.8,0,1.2,0.1,0.9c0.1-0.6,0.1-1.6,0-2
		C132.1,450.1,132.1,450.5,132.1,451.3 M139.1,450.3c0,0,0.2,0.1,0.4,0.1c0.2,0,0.3,0,0.3-0.1C139.7,450.2,139.1,450.2,139.1,450.3
		 M158.7,450.4c0.3,0.1,0.7,0.1,1,0c0.4-0.1,0.3-0.1-0.5-0.1C158.4,450.2,158.3,450.3,158.7,450.4 M162.8,450.4
		c0.4,0.1,2.5,0.1,2.6,0c0.1-0.1-0.6-0.1-1.4-0.1C163.3,450.3,162.6,450.3,162.8,450.4 M138.6,450.9c0,0.1,0.1,0.1,0.2,0.1
		c0.6-0.1,0.7,0.1,0.7,2.3l0,2l0-2c0-1.7,0-2-0.2-2.2C139.2,450.8,138.7,450.7,138.6,450.9 M149.4,450.9c0.2,0,0.4,0,0.5,0
		s0-0.1-0.3-0.1C149.3,450.8,149.2,450.8,149.4,450.9 M145.3,451.8c0,0.4-0.1,0.9-0.1,1.2c-0.1,0.3-0.1,0.5,0,0.5
		c0.1-0.1,0.3-1.4,0.2-2C145.3,451.3,145.3,451.3,145.3,451.8 M154,451.5c0.1,0.1,0.3,0.3,0.4,0.5c0.2,0.2,0.2,0.2,0.1-0.1
		C154.4,451.7,154.2,451.5,154,451.5C153.8,451.3,153.8,451.3,154,451.5 M161.7,451.4c-0.6,0.1-0.7,0.3-0.1,0.2
		c0.3,0,0.5-0.1,0.6-0.2c0-0.1,0.1-0.1,0-0.1S161.9,451.4,161.7,451.4 M159.3,451.6c0.2,0,0.5,0,0.7,0s0-0.1-0.3-0.1
		C159.2,451.5,159.1,451.5,159.3,451.6 M146.8,456.9c0,3,0,5,0.1,4.5c0-0.5,0-2.9,0-5.4l-0.1-4.5V456.9 M155.9,452.5
		c0,0.5,0.1,0.8,0.1,0.9c0,0.1,0.1-0.2,0-0.7c0-0.5-0.1-0.8-0.1-0.9C155.9,451.8,155.9,452.1,155.9,452.5 M151.3,459.1
		c0,3,0,5.4,0.1,5.3c0.1,0,0.1-2.4,0.1-5.3s0-5.3-0.1-5.3S151.3,456.2,151.3,459.1 M164,456.9c0,0.6,0,1,0,1
		c0.1-0.1,0.1-0.6,0.1-1.1l0-1L164,456.9 M132.1,457.9c0,0.7,0,2.1,0.1,2.9l0.1,1.6v-1.3c0-0.7,0-2-0.1-2.9l-0.1-1.7V457.9
		 M145.2,457.4c0.1,0.4,0.2,0.8,0.2,0.8c0.1,0.1-0.1-1.3-0.2-1.4C145.1,456.7,145.1,456.9,145.2,457.4 M141.1,457.7
		c0,0.6,0,0.9,0,0.9c0.1-0.1,0.1-0.5,0.1-1l0-0.9L141.1,457.7 M133.7,458.5c0,0.7,0,1.4,0.1,1.4c0.1,0,0.1-0.4,0.1-0.9
		C133.8,457.3,133.8,457,133.7,458.5 M128,459c0,0.8,0.1,1.5,0.1,1.5c0.1,0.1,0.1-0.6,0-1.3s-0.1-1.5-0.1-1.5
		C127.9,457.6,127.9,458.3,128,459 M139.5,462.3c0,1.3,0,2.2,0,2.2c0.1-0.1,0.1-1.1,0.1-2.3l0-2.2L139.5,462.3 M156.5,461.1l0.1,1
		l0-0.9c0-0.5,0-0.9-0.1-1C156.5,460.2,156.5,460.6,156.5,461.1 M141.9,460.9c-0.1,0.1-0.2,0.3-0.2,0.4s0.1,0,0.2-0.2
		c0.1-0.2,0.2-0.3,0.3-0.2c0.1,0.1,0.1,0,0-0.1C142.1,460.6,142.1,460.6,141.9,460.9 M145.3,461l-0.1,0.3l-1.5,0
		c-0.8,0-1.5,0-1.5,0.1s0.6,0.1,1.5,0.1c1.5,0,1.6,0,1.8-0.6C145.5,460.5,145.4,460.6,145.3,461 M160,462.7c0,0.9,0,1.3,0,0.8
		c0-0.5,0-1.2,0-1.7C160,461.4,160,461.8,160,462.7 M143.1,463.3c0.2,0,0.7,0,0.9,0s0-0.1-0.5-0.1
		C143,463.2,142.8,463.3,143.1,463.3 M154.8,466.1c0,1.2,0.1,2.2,0.1,2.3c0.1,0.1,0-4.3-0.1-4.4C154.8,464,154.8,464.9,154.8,466.1
		 M163.5,464.3c-0.1,0.3-0.1,2.2,0,2.1c0.1-0.1,0.2-2.3,0.1-2.3C163.5,464.2,163.5,464.2,163.5,464.3 M128.6,465
		c0,0.3,0,0.7,0.1,0.7c0.1,0,0.1-0.2,0.1-0.5C128.7,464.4,128.6,464.3,128.6,465 M143.9,466c0,0.4,0.1,0.8,0.1,0.8s0.1-0.2,0-0.6
		s-0.1-0.8-0.1-0.8C143.9,465.3,143.9,465.6,143.9,466 M148,466.6c0,0.6,0,1.1,0.1,1.1c0.1,0,0.1-0.5,0.1-1.1s0-1-0.1-1.1
		S148,466,148,466.6 M157,466.2c0,0.3,0,0.7,0.1,0.7s0.1-0.2,0.1-0.5C157.1,465.6,157.1,465.5,157,466.2 M140.5,466.2
		c0,0.1,0,0.7,0,1.3l0,1.1l0.1-1.3C140.7,466,140.6,465.8,140.5,466.2 M164.5,467.2c0,0.3,0,0.5,0,0.4c0.1-0.1,0.2-0.9,0.1-0.9
		C164.6,466.7,164.5,466.9,164.5,467.2 M127.5,467.8l0.1,0.7l0-0.6c0-0.3,0-0.6-0.1-0.7C127.5,467.1,127.5,467.4,127.5,467.8
		 M145.8,467.8c0,0.4,0,0.7,0,0.6c0.1-0.1,0.1-0.4,0.1-0.7l0-0.6L145.8,467.8 M161.6,469c-0.1,0.8-0.1,1.4,0,1.4
		c0.1,0.1,0.2-2.2,0.2-2.5C161.7,467.7,161.7,468.2,161.6,469 M132.6,469.2c0,0.5,0.1,0.9,0.1,1s0.1-0.3,0-0.8s-0.1-0.9-0.1-1
		C132.6,468.4,132.6,468.8,132.6,469.2 M129.1,469.5l0.1,1l0-0.9c0-0.5,0-0.9-0.1-1C129.1,468.6,129.1,468.9,129.1,469.5 M124.1,470
		c-0.2,0.2-0.2,0.4-0.2,0.4c0,0,0.2-0.2,0.3-0.4c0.2-0.2,0.2-0.4,0.2-0.4C124.3,469.6,124.2,469.8,124.1,470 M162.9,470.3
		c0,0.3,0,0.6,0,0.6c0.1-0.1,0.1-0.3,0.1-0.7l0-0.6L162.9,470.3 M144.5,472.3c0,0.6,0,1.1,0.1,1.1c0.1,0,0.1-0.5,0.1-1.1
		c0-0.6,0-1-0.1-1.1C144.5,471.2,144.5,471.7,144.5,472.3 M163.9,471.3c0,0.1-0.1,0.3,0,0.5c0,0.2,0.1,0.1,0.1-0.2
		C164.1,471.1,164,471,163.9,471.3 M142.3,471.5c-0.1,0.1-0.5,0.2-1.1,0.2l-1,0l1,0C142,471.8,142.2,471.8,142.3,471.5
		c0.2-0.1,0.2-0.2,0.2-0.2S142.4,471.4,142.3,471.5 M156,471.5c0.1,0.2,0,0.2-1.1,0.3l-1.2,0l1.2,0C156,471.8,156.4,471.7,156,471.5
		C155.9,471.2,155.9,471.2,156,471.5 M159.4,472.1c-0.2,0.3-0.2,0.4,0,0.3c0.2-0.1,0.4-0.7,0.2-0.7
		C159.6,471.7,159.5,471.9,159.4,472.1 M134.4,472.2c0.3,0.3,0.4,0.4,0.5,0.2c0.1-0.1,0.1-0.2,0-0.1
		C134.8,472.4,134.6,472.3,134.4,472.2l-0.3-0.4L134.4,472.2 M144.9,472.3c0,0,0.2,0.1,0.4,0.1c0.2,0,0.4,0,0.4-0.1
		C145.6,472.3,144.9,472.2,144.9,472.3 M151.4,473.6c0,0.6,0,1.1,0,1c0.1-0.1,0.1-0.6,0.1-1.2l0-1L151.4,473.6 M153.3,472.8
		c0,0.1,0.4,0.1,0.9,0.2l0.8,0.1v0.7c0,0.4-0.1,1-0.1,1.3c-0.1,0.4-0.1,0.6,0,0.5c0.1-0.1,0.1-0.7,0.2-1.4l0-1.2l-0.9-0.1
		C153.6,472.8,153.3,472.8,153.3,472.8 M130.3,473.8c0,0.3,0,0.6,0.1,0.7c0.1,0,0.1-0.2,0.1-0.5
		C130.4,473.2,130.3,473.1,130.3,473.8 M136.4,473.7c0.2,0.2,0.3,0.5,0.3,0.6c0.1,0.2,0.1,0.2,0.1,0
		C136.8,474.1,136.6,473.8,136.4,473.7l-0.3-0.3L136.4,473.7 M138.3,474.3c0,0.6,0,0.8,0.1,0.5s0-0.8,0-1
		C138.3,473.5,138.3,473.8,138.3,474.3 M157.3,473.5c0,0.1,0.2,0.1,0.4,0.2s0.3,0,0.3,0c0-0.1-0.2-0.1-0.4-0.2
		C157.5,473.4,157.3,473.5,157.3,473.5 M141.9,473.8c0,0.1,0,0.7,0,1.4l0,1.2l0.1-1.4C142,473.7,142,473.5,141.9,473.8 M158.3,474.3
		c0,0.3,0,0.5,0,0.5c0.1-0.1,0.1-0.3,0.1-0.6C158.3,473.7,158.3,473.7,158.3,474.3 M163.9,475c0,0.5,0,0.7,0.1,0.5c0-0.3,0-0.7,0-1
		C164,474.2,163.9,474.5,163.9,475 M133.2,474.6c0.1,0.2,0.2,0.3,0.3,0.3s0-0.2-0.2-0.3c-0.2-0.2-0.3-0.3-0.3-0.3
		S133.1,474.4,133.2,474.6 M156.6,474.5c-0.1,0.3-0.2,1-0.1,1c0.1,0,0.1-0.3,0.1-0.6C156.7,474.3,156.7,474.2,156.6,474.5
		 M159.8,475.1C159.8,475.3,159.9,475.4,159.8,475.1c0.1-0.1,0.2-0.2,0.8-0.1c0.4,0,0.6,0,0.5,0
		C160.8,474.6,159.8,474.7,159.8,475.1 M137.2,478.4l0.1,2.1l0-2c0-1.1,0-2-0.1-2.1C137.1,476.4,137.1,477.2,137.2,478.4
		 M154.4,477.2c0,0.1,0,1.3,0,2.6l0,2.4l0.1-2.6C154.5,477,154.5,476.8,154.4,477.2 M161.7,477.5c0,0.3,0,0.5,0,0.5
		c0.1-0.1,0.1-0.3,0.1-0.6C161.7,476.9,161.7,476.9,161.7,477.5 M157.8,477.9c0,0.4,0,0.7,0,0.6c0.1-0.1,0.1-0.4,0.1-0.7l0-0.6
		L157.8,477.9 M159.4,478.7c0,0.3,0,0.6,0,0.6c0.1-0.1,0.1-0.3,0.1-0.7l0-0.6L159.4,478.7 M155.9,479c0,0.3,0,0.5,0,0.4
		c0.1-0.1,0.1-0.3,0.1-0.5C156,478.5,156,478.5,155.9,479 M138.9,481.8c0,0.8,0.1,1.6,0.2,1.6s0-0.4,0-1
		C138.8,480.4,138.8,480.2,138.9,481.8 M148.6,482c0,0.7,0,1,0.1,0.7s0-1,0-1.3S148.6,481.3,148.6,482 M150.8,482
		c0,0.3,0,0.6,0.1,0.7c0.1,0,0.1-0.2,0.1-0.5C150.8,481.4,150.8,481.3,150.8,482 M161.3,481.8c-0.1,0.3-0.1,1.5,0,1.4
		c0.1-0.1,0.2-1.6,0.1-1.6C161.3,481.6,161.3,481.7,161.3,481.8 M175.3,482.3c0.2,0.2,0.3,0.5,0.3,0.5c0.1,0-0.2-0.5-0.4-0.7
		C175.1,481.9,175.1,482,175.3,482.3 M144,482.3c-0.1,0.1-0.1,3.5,0,3.6c0.1,0,0.1-0.8,0.1-1.8s0-1.9,0-1.9
		C144.1,482.2,144,482.2,144,482.3 M157.2,482.3c-0.1,0.3-0.1,1.6,0,1.5c0.1-0.1,0.2-1.7,0.1-1.7
		C157.3,482.2,157.2,482.2,157.2,482.3 M116.1,482.7c0.1,0,0.3,0,0.4,0c0.1,0,0-0.1-0.2-0.1C116.1,482.6,116,482.6,116.1,482.7
		 M158.8,483.2c0,0.3,0,0.4,0.1,0.2c0-0.2,0-0.4,0-0.6C158.8,482.8,158.8,482.9,158.8,483.2 M155.3,484.3c0,0.5,0,0.9,0,0.8
		s0.1-0.5,0.1-0.9l0-0.8L155.3,484.3 M115.7,484c0.1,0.1,0.9,0.3,0.8,0.2c0,0-0.2-0.1-0.5-0.2C115.7,483.9,115.6,483.9,115.7,484
		 M150.8,484.3c0,0.1-0.1,0.4,0,0.6c0,0.3,0.1,0.3,0.1-0.2C151,484.1,150.9,484,150.8,484.3 M114.2,485.3c0,0.2,0.2,0.6,0.3,0.7
		l0.3,0.2l-0.2-0.3c-0.2-0.2-0.2-0.5-0.2-0.7c0-0.2,0-0.4-0.1-0.4C114.2,484.8,114.2,485.1,114.2,485.3 M158.3,485.5
		c-0.1,0.4-0.2,0.9-0.1,0.9c0.1,0,0.1-0.3,0.2-0.6C158.4,485.4,158.4,485.2,158.3,485.5 M133.7,486c0,0.3,0.1,0.5,0.1,0.5
		c0,0,0.1-0.2,0-0.4c0-0.3-0.1-0.5-0.1-0.5C133.7,485.5,133.7,485.8,133.7,486 M119.7,486c0.1,0.1,0.3,0.2,0.5,0.2
		c0.2,0,0.2,0-0.1-0.1c-0.2-0.1-0.4-0.1-0.5-0.2C119.5,485.8,119.6,485.9,119.7,486 M139.4,487.6c0,0.5,0.1,0.8,0.1,0.9
		s0.1-0.2,0-0.7s-0.1-0.8-0.1-0.9C139.4,486.8,139.3,487.1,139.4,487.6 M115.4,487c0,0.1-0.3,0.1-0.5,0.1l-0.5,0l0,1.3
		c0,0.7,0,1.3,0.1,1.4s0.1-0.5,0.1-1.2l0-1.3l0.4,0.1c0.3,0,0.5,0,0.6-0.2c0.1-0.1,0.1-0.2,0.1-0.2C115.5,486.9,115.5,487,115.4,487
		 M116.4,487.4c0,0.1,0.2,0.1,0.3,0.1c0.2,0,0.3,0,0.3-0.1s-0.1-0.1-0.3-0.1C116.5,487.3,116.4,487.3,116.4,487.4 M160.6,487.6
		c0,0.1-0.1,0.6,0,1.1l0,0.9l0.1-1.1C160.8,487.5,160.7,487.3,160.6,487.6 M118.3,487.8c1.2,1.2,1.4,1.4,0.9,0.8
		c-0.3-0.3-0.6-0.7-0.7-0.7C118.3,487.8,118.3,487.7,118.3,487.8 M137.8,488.9c0,0.3,0,0.5,0.1,0.3s0-0.5,0-0.6
		C137.9,488.4,137.8,488.5,137.8,488.9 M154.9,489.8c0,0.5,0,0.7,0.1,0.5c0-0.3,0-0.7,0-1C154.9,489,154.9,489.2,154.9,489.8
		 M170.5,489.8c0.1,0.1,0.3,0.1,0.5,0.1c0.4,0,0.3-0.1-0.2-0.2C170.5,489.7,170.4,489.7,170.5,489.8 M153.2,490.4
		c0,0.3,0.1,0.6,0.1,0.7s0.1-0.2,0-0.5s-0.1-0.6-0.1-0.7C153.2,489.9,153.2,490.1,153.2,490.4 M142.4,490.3c-0.1,0.3-0.1,1.5,0,1.4
		s0.2-1.6,0.1-1.6C142.4,490.1,142.4,490.2,142.4,490.3 M121.2,490.6c0,0.2,0,0.4,0.1,0.4c0.1,0,0.1-0.1,0.1-0.3
		C121.3,490.2,121.2,490.1,121.2,490.6 M134.8,491.5c0,0.5,0.1,0.8,0.1,0.9s0.1-0.2,0-0.7s-0.1-0.8-0.1-0.9
		C134.8,490.7,134.8,491.1,134.8,491.5 M176.1,491.2c0.2,0.3,0.2,0.3,0.4,0c0.2-0.2,0.2-0.2,0-0.1
		C176.3,491.2,176.2,491.2,176.1,491.2C175.8,490.9,175.8,490.9,176.1,491.2 M121.9,493.3c0,0.2,0,0.4,0.1,0.4
		c0.1,0,0.1-0.1,0.1-0.3C122,492.8,121.9,492.8,121.9,493.3 M146,493.2c0.1,0.1,0.2,0.1,0.4,0.1c0.2,0,0.2-0.1-0.1-0.1
		C146,493.1,145.9,493.1,146,493.2 M121.9,494.1c-0.1,0.3-0.1,2.8,0,2.7c0.1-0.1,0.2-2.8,0.1-2.8C122,493.9,122,494,121.9,494.1
		 M115.9,494.4c0,0.1,0.1,0.1,0.3,0.1c0.2,0,0.2,0,0.1-0.1C116,494.3,115.9,494.3,115.9,494.4 M145.4,495c0.1,0.1,3.6,0.2,3.6,0.1
		c0-0.1-0.8-0.1-1.8-0.1C146.1,495,145.3,495,145.4,495 M114.4,496.5c0,0.1-0.1,0.5-0.1,1c-0.1,0.9,0,0.8,0.2-0.5
		C114.6,496.4,114.6,496.3,114.4,496.5 M143.9,497.9c0,0.3,0,0.4,0.1,0.2c0-0.1,0-0.3,0-0.5S143.9,497.6,143.9,497.9 M114.3,501.1
		c0,0.3-0.1,0.8-0.1,1.2c0,0.5,0,0.3,0.1-0.5C114.5,500.6,114.5,500.2,114.3,501.1 M111,501.7c-0.1,0.1-0.1,0.6-0.1,1.1l0,0.8
		l0.1-0.9c0-0.5,0.1-1,0.2-1.1c0.1-0.1,0.1-0.2,0-0.2C111.1,501.4,111,501.6,111,501.7 M179.3,502.5c0,0.7,0,0.9-0.2,1.1
		c-0.2,0.2-0.2,0.2,0.1,0.1c0.3-0.1,0.4-1.8,0.2-2C179.3,501.6,179.3,502,179.3,502.5 M116.6,501.9c0,0.1-0.1,0.3,0,0.5
		c0,0.2,0.1,0.1,0.1-0.2C116.8,501.7,116.7,501.6,116.6,501.9 M145.2,502.6c0,0.3,0,0.4,0.1,0.2c0-0.2,0-0.4,0-0.6
		C145.2,502.1,145.2,502.3,145.2,502.6 M148.6,502.6c0,0,0.2,0.2,0.4,0.3s0.4,0.2,0.4,0.1s-0.2-0.2-0.4-0.3
		C148.7,502.6,148.6,502.6,148.6,502.6 M114.3,503.8c-0.1,0.5,0,0.9,0,1c0.1,0.1,0.1-0.3,0.1-0.8
		C114.5,502.7,114.4,502.7,114.3,503.8 M176.5,503.6c0,0.4,0,0.7,0,0.6c0.1-0.1,0.1-0.4,0.1-0.7l0-0.6L176.5,503.6 M178.7,503.4
		c0.1,0.4,0.1,0.4,0.1,0.1c0-0.2,0-0.4-0.1-0.5C178.7,503,178.7,503.1,178.7,503.4 M171.9,507.4c0,1.8,0,3.2,0,3.1
		c0.1-0.1,0.1-1.5,0.1-3.2l0-3.1L171.9,507.4 M117.2,505.1c0,0.4,0.1,0.8,0.1,0.8s0.1-0.2,0-0.6s-0.1-0.8-0.1-0.8
		C117.2,504.4,117.1,504.7,117.2,505.1 M150.3,506.4c0,0.9,0,1.3,0,0.8c0-0.5,0-1.2,0-1.7C150.4,505,150.3,505.5,150.3,506.4
		 M180.4,507.4c0,1.1,0,1.9,0,1.9c0.1-0.1,0.1-0.9,0.1-2l0-1.9L180.4,507.4 M111.6,508.7c0,0.8,0,1.2,0,0.7c0-0.5,0-1.2,0-1.5
		C111.6,507.5,111.6,507.9,111.6,508.7 M144.5,508.6c0,0.7,0,1.2,0,1.2c0.1-0.1,0.1-0.6,0.1-1.3l0-1.2L144.5,508.6 M117.7,508.8
		c0,0.4-0.1,0.5-0.2,0.4c-0.2-0.1-0.2-0.1-0.1,0.1C117.6,509.5,117.8,509.2,117.7,508.8C117.7,508.4,117.7,508.4,117.7,508.8
		 M114.4,508.9c-0.2,0.2-0.2,0.4-0.2,0.4c0,0,0.2-0.2,0.3-0.4c0.2-0.2,0.2-0.4,0.2-0.4C114.7,508.5,114.5,508.7,114.4,508.9
		 M178.2,509.5l0.1,0.8l0-0.7c0-0.4,0-0.7-0.1-0.8C178.2,508.7,178.2,509.1,178.2,509.5 M182.8,510.3c0.1,0.2,0.2,0.4,0.2,0.4
		c0.1-0.1-0.2-0.8-0.2-0.8C182.7,509.9,182.7,510.1,182.8,510.3 M107.5,510.9c0,0.2,0,0.5,0.1,0.5c0.1,0,0.1-0.1,0.1-0.4
		C107.6,510.4,107.5,510.3,107.5,510.9 M116,511.5c-0.1,0.3-0.2,1-0.1,1c0.1,0,0.1-0.3,0.1-0.6C116.2,511.3,116.1,511.2,116,511.5
		 M112.6,512.3c0,0.3,0,0.4,0,0.3c0.1-0.1,0.1-0.3,0.1-0.5C112.7,511.8,112.7,511.9,112.6,512.3 M111,513.9
		c-0.3,0.1-0.5,0.2-0.6,0.2c-0.1,0.1,0.9-0.1,1-0.2c0.1-0.1,0.1-0.1,0.1-0.1C111.5,513.7,111.3,513.8,111,513.9 M144,514.2
		c-0.1,0.1-0.1,0.7,0,0.8c0.1,0,0.1-0.1,0.1-0.4c0-0.2,0-0.5,0-0.5C144.1,514.1,144,514.1,144,514.2 M178.9,515.2
		c0,0.4,0,0.5,0.1,0.3c0-0.2,0-0.5,0-0.7S178.9,514.8,178.9,515.2 M171.4,516.4c0,0.5-0.1,1.2-0.1,1.5c-0.1,0.4-0.1,0.5,0,0.4
		c0.2-0.2,0.3-2.8,0.2-2.8C171.4,515.5,171.4,515.9,171.4,516.4 M186.2,517.9c0,0.2-0.1,0.5-0.2,0.6c-0.2,0.2-0.2,0.2,0.1,0
		c0.2-0.1,0.4-1.1,0.2-1.1C186.2,517.5,186.2,517.7,186.2,517.9 M143.9,517.9c0,0.1-0.1,0.3,0,0.5c0,0.2,0.1,0.2,0.1-0.2
		C144.1,517.7,144.1,517.6,143.9,517.9 M150.9,519.4l0.1,0.9l0-0.8c0-0.5,0-0.9-0.1-0.9C150.9,518.5,150.9,518.9,150.9,519.4
		 M183.8,519.1l-0.5,0.1l0.5,0c0.2,0,0.5,0,0.5-0.1c0-0.1,0.1-0.1,0-0.1C184.3,519,184.1,519.1,183.8,519.1 M170.8,519.3
		c0,0.1-0.1,0.3,0,0.5c0,0.2,0.1,0.2,0.1-0.2C170.9,519.1,170.9,519,170.8,519.3 M181.1,519.2c0.1,0,0.3,0,0.4,0
		c0.1,0,0-0.1-0.2-0.1C181.1,519.2,181,519.2,181.1,519.2 M186,519.7c0,0.1,0.2,0.1,0.6,0.1c0.3,0,0.6,0,0.6,0
		C187.1,519.7,186.1,519.6,186,519.7"/>
	<path id="path3" class="st17" d="M144.4,426.1c-1.2,0.7-2.3,2.7-2.5,4.3c-0.1,0.5-0.2,1-0.2,1.2c-0.1,0.2-0.1,0.3,0,0.4
		c0.1,0.1,0.2,0.4,0.2,0.8c0,2,1,4.2,2.5,5.7l0.6,0.5l1.4-0.1c0.8,0,1.5-0.1,1.7-0.2s0.6-0.3,1.1-0.6c0.5-0.2,0.9-0.6,1-0.7
		c0.1-0.1,0.2-0.2,0.3-0.2c0.2,0,0.8-0.8,1.1-1.5s0.4-4.9,0.1-5.3c-0.1-0.1-0.2-0.4-0.3-0.7c-0.3-1-2-2.6-2.8-2.6
		c-0.1,0-0.2,0-0.2-0.1c0-0.1-0.4-0.2-0.9-0.3c-0.5-0.1-1.1-0.3-1.3-0.5C145.5,425.8,145,425.8,144.4,426.1"/>
	<path id="path4" class="st18" d="M153.7,427.5c0,0.3,0.1,0.6,0.1,0.6s0.1-0.2,0-0.5s-0.1-0.6-0.1-0.6S153.7,427.2,153.7,427.5
		 M153.7,429.3c0,0.5,0,0.7,0,0.7c0.1-0.1,0.1-0.4,0.1-0.8l0-0.7L153.7,429.3"/>
</g>
</svg>
